G04 #@! TF.GenerationSoftware,KiCad,Pcbnew,5.0.0-fee4fd1~66~ubuntu16.04.1*
G04 #@! TF.CreationDate,2018-09-10T21:40:52+02:00*
G04 #@! TF.ProjectId,fpvlaptracker32,6670766C6170747261636B657233322E,rev?*
G04 #@! TF.SameCoordinates,Original*
G04 #@! TF.FileFunction,Legend,Bot*
G04 #@! TF.FilePolarity,Positive*
%FSLAX46Y46*%
G04 Gerber Fmt 4.6, Leading zero omitted, Abs format (unit mm)*
G04 Created by KiCad (PCBNEW 5.0.0-fee4fd1~66~ubuntu16.04.1) date Mon Sep 10 21:40:52 2018*
%MOMM*%
%LPD*%
G01*
G04 APERTURE LIST*
%ADD10C,0.200000*%
%ADD11C,0.300000*%
%ADD12C,0.120000*%
%ADD13C,0.150000*%
G04 APERTURE END LIST*
D10*
X144471428Y-82292857D02*
X144871428Y-81721428D01*
X145157142Y-82292857D02*
X145157142Y-81092857D01*
X144700000Y-81092857D01*
X144585714Y-81150000D01*
X144528571Y-81207142D01*
X144471428Y-81321428D01*
X144471428Y-81492857D01*
X144528571Y-81607142D01*
X144585714Y-81664285D01*
X144700000Y-81721428D01*
X145157142Y-81721428D01*
X144071428Y-81092857D02*
X143271428Y-82292857D01*
X143271428Y-81092857D02*
X144071428Y-82292857D01*
X142071428Y-81092857D02*
X141385714Y-81092857D01*
X141728571Y-82292857D02*
X141728571Y-81092857D01*
X141100000Y-81092857D02*
X140300000Y-82292857D01*
X140300000Y-81092857D02*
X141100000Y-82292857D01*
X138300000Y-81150000D02*
X138414285Y-81092857D01*
X138585714Y-81092857D01*
X138757142Y-81150000D01*
X138871428Y-81264285D01*
X138928571Y-81378571D01*
X138985714Y-81607142D01*
X138985714Y-81778571D01*
X138928571Y-82007142D01*
X138871428Y-82121428D01*
X138757142Y-82235714D01*
X138585714Y-82292857D01*
X138471428Y-82292857D01*
X138300000Y-82235714D01*
X138242857Y-82178571D01*
X138242857Y-81778571D01*
X138471428Y-81778571D01*
X137728571Y-82292857D02*
X137728571Y-81092857D01*
X137042857Y-82292857D01*
X137042857Y-81092857D01*
X136471428Y-82292857D02*
X136471428Y-81092857D01*
X136185714Y-81092857D01*
X136014285Y-81150000D01*
X135900000Y-81264285D01*
X135842857Y-81378571D01*
X135785714Y-81607142D01*
X135785714Y-81778571D01*
X135842857Y-82007142D01*
X135900000Y-82121428D01*
X136014285Y-82235714D01*
X136185714Y-82292857D01*
X136471428Y-82292857D01*
D11*
X182071428Y-91607142D02*
X180928571Y-91607142D01*
X181500000Y-92178571D02*
X181500000Y-91035714D01*
X179500000Y-90678571D02*
X180214285Y-90678571D01*
X180285714Y-91392857D01*
X180214285Y-91321428D01*
X180071428Y-91250000D01*
X179714285Y-91250000D01*
X179571428Y-91321428D01*
X179500000Y-91392857D01*
X179428571Y-91535714D01*
X179428571Y-91892857D01*
X179500000Y-92035714D01*
X179571428Y-92107142D01*
X179714285Y-92178571D01*
X180071428Y-92178571D01*
X180214285Y-92107142D01*
X180285714Y-92035714D01*
X179000000Y-90678571D02*
X178500000Y-92178571D01*
X178000000Y-90678571D01*
X175571428Y-90750000D02*
X175714285Y-90678571D01*
X175928571Y-90678571D01*
X176142857Y-90750000D01*
X176285714Y-90892857D01*
X176357142Y-91035714D01*
X176428571Y-91321428D01*
X176428571Y-91535714D01*
X176357142Y-91821428D01*
X176285714Y-91964285D01*
X176142857Y-92107142D01*
X175928571Y-92178571D01*
X175785714Y-92178571D01*
X175571428Y-92107142D01*
X175500000Y-92035714D01*
X175500000Y-91535714D01*
X175785714Y-91535714D01*
X174857142Y-92178571D02*
X174857142Y-90678571D01*
X174000000Y-92178571D01*
X174000000Y-90678571D01*
X173285714Y-92178571D02*
X173285714Y-90678571D01*
X172928571Y-90678571D01*
X172714285Y-90750000D01*
X172571428Y-90892857D01*
X172500000Y-91035714D01*
X172428571Y-91321428D01*
X172428571Y-91535714D01*
X172500000Y-91821428D01*
X172571428Y-91964285D01*
X172714285Y-92107142D01*
X172928571Y-92178571D01*
X173285714Y-92178571D01*
X170142857Y-91392857D02*
X169928571Y-91464285D01*
X169857142Y-91535714D01*
X169785714Y-91678571D01*
X169785714Y-91892857D01*
X169857142Y-92035714D01*
X169928571Y-92107142D01*
X170071428Y-92178571D01*
X170642857Y-92178571D01*
X170642857Y-90678571D01*
X170142857Y-90678571D01*
X170000000Y-90750000D01*
X169928571Y-90821428D01*
X169857142Y-90964285D01*
X169857142Y-91107142D01*
X169928571Y-91250000D01*
X170000000Y-91321428D01*
X170142857Y-91392857D01*
X170642857Y-91392857D01*
X169214285Y-91750000D02*
X168500000Y-91750000D01*
X169357142Y-92178571D02*
X168857142Y-90678571D01*
X168357142Y-92178571D01*
X168071428Y-90678571D02*
X167214285Y-90678571D01*
X167642857Y-92178571D02*
X167642857Y-90678571D01*
D12*
G04 #@! TO.C,U2*
X154840000Y-79990000D02*
X156100000Y-79990000D01*
X161660000Y-79990000D02*
X160400000Y-79990000D01*
X154840000Y-83750000D02*
X154840000Y-79990000D01*
X161660000Y-86000000D02*
X161660000Y-79990000D01*
G04 #@! TO.C,D4*
X159150000Y-87650000D02*
X159150000Y-89350000D01*
X159150000Y-89350000D02*
X156000000Y-89350000D01*
X159150000Y-87650000D02*
X156000000Y-87650000D01*
G04 #@! TO.C,C6*
X140114564Y-103840000D02*
X138910436Y-103840000D01*
X140114564Y-105660000D02*
X138910436Y-105660000D01*
G04 #@! TO.C,R4*
X159840000Y-101089564D02*
X159840000Y-99885436D01*
X161660000Y-101089564D02*
X161660000Y-99885436D01*
G04 #@! TO.C,R6*
X152089564Y-120090000D02*
X150885436Y-120090000D01*
X152089564Y-121910000D02*
X150885436Y-121910000D01*
G04 #@! TO.C,R7*
X145864564Y-120090000D02*
X144660436Y-120090000D01*
X145864564Y-121910000D02*
X144660436Y-121910000D01*
G04 #@! TO.C,R8*
X151410000Y-103910436D02*
X151410000Y-105114564D01*
X149590000Y-103910436D02*
X149590000Y-105114564D01*
G04 #@! TO.C,R9*
X146410000Y-105114564D02*
X146410000Y-103910436D01*
X144590000Y-105114564D02*
X144590000Y-103910436D01*
G04 #@! TO.C,R12*
X138660000Y-111410436D02*
X138660000Y-112614564D01*
X136840000Y-111410436D02*
X136840000Y-112614564D01*
G04 #@! TO.C,C7*
X162002500Y-87187500D02*
X162627500Y-87187500D01*
X162315000Y-86875000D02*
X162315000Y-87500000D01*
X165695563Y-87740000D02*
X166760000Y-88804437D01*
X162304437Y-87740000D02*
X161240000Y-88804437D01*
X162304437Y-87740000D02*
X162940000Y-87740000D01*
X165695563Y-87740000D02*
X165060000Y-87740000D01*
X166760000Y-88804437D02*
X166760000Y-93260000D01*
X161240000Y-88804437D02*
X161240000Y-93260000D01*
X161240000Y-93260000D02*
X162940000Y-93260000D01*
X166760000Y-93260000D02*
X165060000Y-93260000D01*
G04 #@! TO.C,C8*
X158660000Y-98960000D02*
X156310000Y-98960000D01*
X151840000Y-98960000D02*
X154190000Y-98960000D01*
X151840000Y-93204437D02*
X151840000Y-98960000D01*
X158660000Y-93204437D02*
X158660000Y-98960000D01*
X157595563Y-92140000D02*
X156310000Y-92140000D01*
X152904437Y-92140000D02*
X154190000Y-92140000D01*
X152904437Y-92140000D02*
X151840000Y-93204437D01*
X157595563Y-92140000D02*
X158660000Y-93204437D01*
X153402500Y-91112500D02*
X153402500Y-91900000D01*
X153008750Y-91506250D02*
X153796250Y-91506250D01*
G04 #@! TO.C,C9*
X143260000Y-95740000D02*
X143260000Y-97440000D01*
X143260000Y-101260000D02*
X143260000Y-99560000D01*
X138804437Y-101260000D02*
X143260000Y-101260000D01*
X138804437Y-95740000D02*
X143260000Y-95740000D01*
X137740000Y-96804437D02*
X137740000Y-97440000D01*
X137740000Y-100195563D02*
X137740000Y-99560000D01*
X137740000Y-100195563D02*
X138804437Y-101260000D01*
X137740000Y-96804437D02*
X138804437Y-95740000D01*
X136875000Y-100185000D02*
X137500000Y-100185000D01*
X137187500Y-100497500D02*
X137187500Y-99872500D01*
G04 #@! TO.C,C1*
X145852064Y-116590000D02*
X144647936Y-116590000D01*
X145852064Y-118410000D02*
X144647936Y-118410000D01*
G04 #@! TO.C,C2*
X156660000Y-103885436D02*
X156660000Y-105089564D01*
X154840000Y-103885436D02*
X154840000Y-105089564D01*
G04 #@! TO.C,R2*
X152160000Y-113614564D02*
X152160000Y-112410436D01*
X150340000Y-113614564D02*
X150340000Y-112410436D01*
G04 #@! TO.C,U2*
D13*
X162202380Y-81138095D02*
X163011904Y-81138095D01*
X163107142Y-81185714D01*
X163154761Y-81233333D01*
X163202380Y-81328571D01*
X163202380Y-81519047D01*
X163154761Y-81614285D01*
X163107142Y-81661904D01*
X163011904Y-81709523D01*
X162202380Y-81709523D01*
X162297619Y-82138095D02*
X162250000Y-82185714D01*
X162202380Y-82280952D01*
X162202380Y-82519047D01*
X162250000Y-82614285D01*
X162297619Y-82661904D01*
X162392857Y-82709523D01*
X162488095Y-82709523D01*
X162630952Y-82661904D01*
X163202380Y-82090476D01*
X163202380Y-82709523D01*
G04 #@! TO.C,D4*
X157988095Y-87102380D02*
X157988095Y-86102380D01*
X157750000Y-86102380D01*
X157607142Y-86150000D01*
X157511904Y-86245238D01*
X157464285Y-86340476D01*
X157416666Y-86530952D01*
X157416666Y-86673809D01*
X157464285Y-86864285D01*
X157511904Y-86959523D01*
X157607142Y-87054761D01*
X157750000Y-87102380D01*
X157988095Y-87102380D01*
X156559523Y-86435714D02*
X156559523Y-87102380D01*
X156797619Y-86054761D02*
X157035714Y-86769047D01*
X156416666Y-86769047D01*
G04 #@! TO.C,C6*
X139679166Y-103287142D02*
X139726785Y-103334761D01*
X139869642Y-103382380D01*
X139964880Y-103382380D01*
X140107738Y-103334761D01*
X140202976Y-103239523D01*
X140250595Y-103144285D01*
X140298214Y-102953809D01*
X140298214Y-102810952D01*
X140250595Y-102620476D01*
X140202976Y-102525238D01*
X140107738Y-102430000D01*
X139964880Y-102382380D01*
X139869642Y-102382380D01*
X139726785Y-102430000D01*
X139679166Y-102477619D01*
X138822023Y-102382380D02*
X139012500Y-102382380D01*
X139107738Y-102430000D01*
X139155357Y-102477619D01*
X139250595Y-102620476D01*
X139298214Y-102810952D01*
X139298214Y-103191904D01*
X139250595Y-103287142D01*
X139202976Y-103334761D01*
X139107738Y-103382380D01*
X138917261Y-103382380D01*
X138822023Y-103334761D01*
X138774404Y-103287142D01*
X138726785Y-103191904D01*
X138726785Y-102953809D01*
X138774404Y-102858571D01*
X138822023Y-102810952D01*
X138917261Y-102763333D01*
X139107738Y-102763333D01*
X139202976Y-102810952D01*
X139250595Y-102858571D01*
X139298214Y-102953809D01*
G04 #@! TO.C,R4*
X163022380Y-100320833D02*
X162546190Y-99987500D01*
X163022380Y-99749404D02*
X162022380Y-99749404D01*
X162022380Y-100130357D01*
X162070000Y-100225595D01*
X162117619Y-100273214D01*
X162212857Y-100320833D01*
X162355714Y-100320833D01*
X162450952Y-100273214D01*
X162498571Y-100225595D01*
X162546190Y-100130357D01*
X162546190Y-99749404D01*
X162355714Y-101177976D02*
X163022380Y-101177976D01*
X161974761Y-100939880D02*
X162689047Y-100701785D01*
X162689047Y-101320833D01*
G04 #@! TO.C,R6*
X151654166Y-119632380D02*
X151987500Y-119156190D01*
X152225595Y-119632380D02*
X152225595Y-118632380D01*
X151844642Y-118632380D01*
X151749404Y-118680000D01*
X151701785Y-118727619D01*
X151654166Y-118822857D01*
X151654166Y-118965714D01*
X151701785Y-119060952D01*
X151749404Y-119108571D01*
X151844642Y-119156190D01*
X152225595Y-119156190D01*
X150797023Y-118632380D02*
X150987500Y-118632380D01*
X151082738Y-118680000D01*
X151130357Y-118727619D01*
X151225595Y-118870476D01*
X151273214Y-119060952D01*
X151273214Y-119441904D01*
X151225595Y-119537142D01*
X151177976Y-119584761D01*
X151082738Y-119632380D01*
X150892261Y-119632380D01*
X150797023Y-119584761D01*
X150749404Y-119537142D01*
X150701785Y-119441904D01*
X150701785Y-119203809D01*
X150749404Y-119108571D01*
X150797023Y-119060952D01*
X150892261Y-119013333D01*
X151082738Y-119013333D01*
X151177976Y-119060952D01*
X151225595Y-119108571D01*
X151273214Y-119203809D01*
G04 #@! TO.C,R7*
X145429166Y-119632380D02*
X145762500Y-119156190D01*
X146000595Y-119632380D02*
X146000595Y-118632380D01*
X145619642Y-118632380D01*
X145524404Y-118680000D01*
X145476785Y-118727619D01*
X145429166Y-118822857D01*
X145429166Y-118965714D01*
X145476785Y-119060952D01*
X145524404Y-119108571D01*
X145619642Y-119156190D01*
X146000595Y-119156190D01*
X145095833Y-118632380D02*
X144429166Y-118632380D01*
X144857738Y-119632380D01*
G04 #@! TO.C,R8*
X149132380Y-104345833D02*
X148656190Y-104012500D01*
X149132380Y-103774404D02*
X148132380Y-103774404D01*
X148132380Y-104155357D01*
X148180000Y-104250595D01*
X148227619Y-104298214D01*
X148322857Y-104345833D01*
X148465714Y-104345833D01*
X148560952Y-104298214D01*
X148608571Y-104250595D01*
X148656190Y-104155357D01*
X148656190Y-103774404D01*
X148560952Y-104917261D02*
X148513333Y-104822023D01*
X148465714Y-104774404D01*
X148370476Y-104726785D01*
X148322857Y-104726785D01*
X148227619Y-104774404D01*
X148180000Y-104822023D01*
X148132380Y-104917261D01*
X148132380Y-105107738D01*
X148180000Y-105202976D01*
X148227619Y-105250595D01*
X148322857Y-105298214D01*
X148370476Y-105298214D01*
X148465714Y-105250595D01*
X148513333Y-105202976D01*
X148560952Y-105107738D01*
X148560952Y-104917261D01*
X148608571Y-104822023D01*
X148656190Y-104774404D01*
X148751428Y-104726785D01*
X148941904Y-104726785D01*
X149037142Y-104774404D01*
X149084761Y-104822023D01*
X149132380Y-104917261D01*
X149132380Y-105107738D01*
X149084761Y-105202976D01*
X149037142Y-105250595D01*
X148941904Y-105298214D01*
X148751428Y-105298214D01*
X148656190Y-105250595D01*
X148608571Y-105202976D01*
X148560952Y-105107738D01*
G04 #@! TO.C,R9*
X147772380Y-104345833D02*
X147296190Y-104012500D01*
X147772380Y-103774404D02*
X146772380Y-103774404D01*
X146772380Y-104155357D01*
X146820000Y-104250595D01*
X146867619Y-104298214D01*
X146962857Y-104345833D01*
X147105714Y-104345833D01*
X147200952Y-104298214D01*
X147248571Y-104250595D01*
X147296190Y-104155357D01*
X147296190Y-103774404D01*
X147772380Y-104822023D02*
X147772380Y-105012500D01*
X147724761Y-105107738D01*
X147677142Y-105155357D01*
X147534285Y-105250595D01*
X147343809Y-105298214D01*
X146962857Y-105298214D01*
X146867619Y-105250595D01*
X146820000Y-105202976D01*
X146772380Y-105107738D01*
X146772380Y-104917261D01*
X146820000Y-104822023D01*
X146867619Y-104774404D01*
X146962857Y-104726785D01*
X147200952Y-104726785D01*
X147296190Y-104774404D01*
X147343809Y-104822023D01*
X147391428Y-104917261D01*
X147391428Y-105107738D01*
X147343809Y-105202976D01*
X147296190Y-105250595D01*
X147200952Y-105298214D01*
G04 #@! TO.C,R12*
X136382380Y-111369642D02*
X135906190Y-111036309D01*
X136382380Y-110798214D02*
X135382380Y-110798214D01*
X135382380Y-111179166D01*
X135430000Y-111274404D01*
X135477619Y-111322023D01*
X135572857Y-111369642D01*
X135715714Y-111369642D01*
X135810952Y-111322023D01*
X135858571Y-111274404D01*
X135906190Y-111179166D01*
X135906190Y-110798214D01*
X136382380Y-112322023D02*
X136382380Y-111750595D01*
X136382380Y-112036309D02*
X135382380Y-112036309D01*
X135525238Y-111941071D01*
X135620476Y-111845833D01*
X135668095Y-111750595D01*
X135477619Y-112702976D02*
X135430000Y-112750595D01*
X135382380Y-112845833D01*
X135382380Y-113083928D01*
X135430000Y-113179166D01*
X135477619Y-113226785D01*
X135572857Y-113274404D01*
X135668095Y-113274404D01*
X135810952Y-113226785D01*
X136382380Y-112655357D01*
X136382380Y-113274404D01*
G04 #@! TO.C,C7*
X160657142Y-90333333D02*
X160704761Y-90285714D01*
X160752380Y-90142857D01*
X160752380Y-90047619D01*
X160704761Y-89904761D01*
X160609523Y-89809523D01*
X160514285Y-89761904D01*
X160323809Y-89714285D01*
X160180952Y-89714285D01*
X159990476Y-89761904D01*
X159895238Y-89809523D01*
X159800000Y-89904761D01*
X159752380Y-90047619D01*
X159752380Y-90142857D01*
X159800000Y-90285714D01*
X159847619Y-90333333D01*
X159752380Y-90666666D02*
X159752380Y-91333333D01*
X160752380Y-90904761D01*
G04 #@! TO.C,C8*
X151257142Y-95383333D02*
X151304761Y-95335714D01*
X151352380Y-95192857D01*
X151352380Y-95097619D01*
X151304761Y-94954761D01*
X151209523Y-94859523D01*
X151114285Y-94811904D01*
X150923809Y-94764285D01*
X150780952Y-94764285D01*
X150590476Y-94811904D01*
X150495238Y-94859523D01*
X150400000Y-94954761D01*
X150352380Y-95097619D01*
X150352380Y-95192857D01*
X150400000Y-95335714D01*
X150447619Y-95383333D01*
X150780952Y-95954761D02*
X150733333Y-95859523D01*
X150685714Y-95811904D01*
X150590476Y-95764285D01*
X150542857Y-95764285D01*
X150447619Y-95811904D01*
X150400000Y-95859523D01*
X150352380Y-95954761D01*
X150352380Y-96145238D01*
X150400000Y-96240476D01*
X150447619Y-96288095D01*
X150542857Y-96335714D01*
X150590476Y-96335714D01*
X150685714Y-96288095D01*
X150733333Y-96240476D01*
X150780952Y-96145238D01*
X150780952Y-95954761D01*
X150828571Y-95859523D01*
X150876190Y-95811904D01*
X150971428Y-95764285D01*
X151161904Y-95764285D01*
X151257142Y-95811904D01*
X151304761Y-95859523D01*
X151352380Y-95954761D01*
X151352380Y-96145238D01*
X151304761Y-96240476D01*
X151257142Y-96288095D01*
X151161904Y-96335714D01*
X150971428Y-96335714D01*
X150876190Y-96288095D01*
X150828571Y-96240476D01*
X150780952Y-96145238D01*
G04 #@! TO.C,C9*
X140666666Y-102557142D02*
X140714285Y-102604761D01*
X140857142Y-102652380D01*
X140952380Y-102652380D01*
X141095238Y-102604761D01*
X141190476Y-102509523D01*
X141238095Y-102414285D01*
X141285714Y-102223809D01*
X141285714Y-102080952D01*
X141238095Y-101890476D01*
X141190476Y-101795238D01*
X141095238Y-101700000D01*
X140952380Y-101652380D01*
X140857142Y-101652380D01*
X140714285Y-101700000D01*
X140666666Y-101747619D01*
X140190476Y-102652380D02*
X140000000Y-102652380D01*
X139904761Y-102604761D01*
X139857142Y-102557142D01*
X139761904Y-102414285D01*
X139714285Y-102223809D01*
X139714285Y-101842857D01*
X139761904Y-101747619D01*
X139809523Y-101700000D01*
X139904761Y-101652380D01*
X140095238Y-101652380D01*
X140190476Y-101700000D01*
X140238095Y-101747619D01*
X140285714Y-101842857D01*
X140285714Y-102080952D01*
X140238095Y-102176190D01*
X140190476Y-102223809D01*
X140095238Y-102271428D01*
X139904761Y-102271428D01*
X139809523Y-102223809D01*
X139761904Y-102176190D01*
X139714285Y-102080952D01*
G04 #@! TO.C,C1*
X145416666Y-116037142D02*
X145464285Y-116084761D01*
X145607142Y-116132380D01*
X145702380Y-116132380D01*
X145845238Y-116084761D01*
X145940476Y-115989523D01*
X145988095Y-115894285D01*
X146035714Y-115703809D01*
X146035714Y-115560952D01*
X145988095Y-115370476D01*
X145940476Y-115275238D01*
X145845238Y-115180000D01*
X145702380Y-115132380D01*
X145607142Y-115132380D01*
X145464285Y-115180000D01*
X145416666Y-115227619D01*
X144464285Y-116132380D02*
X145035714Y-116132380D01*
X144750000Y-116132380D02*
X144750000Y-115132380D01*
X144845238Y-115275238D01*
X144940476Y-115370476D01*
X145035714Y-115418095D01*
G04 #@! TO.C,C2*
X154287142Y-104320833D02*
X154334761Y-104273214D01*
X154382380Y-104130357D01*
X154382380Y-104035119D01*
X154334761Y-103892261D01*
X154239523Y-103797023D01*
X154144285Y-103749404D01*
X153953809Y-103701785D01*
X153810952Y-103701785D01*
X153620476Y-103749404D01*
X153525238Y-103797023D01*
X153430000Y-103892261D01*
X153382380Y-104035119D01*
X153382380Y-104130357D01*
X153430000Y-104273214D01*
X153477619Y-104320833D01*
X153477619Y-104701785D02*
X153430000Y-104749404D01*
X153382380Y-104844642D01*
X153382380Y-105082738D01*
X153430000Y-105177976D01*
X153477619Y-105225595D01*
X153572857Y-105273214D01*
X153668095Y-105273214D01*
X153810952Y-105225595D01*
X154382380Y-104654166D01*
X154382380Y-105273214D01*
G04 #@! TO.C,R2*
X153522380Y-112845833D02*
X153046190Y-112512500D01*
X153522380Y-112274404D02*
X152522380Y-112274404D01*
X152522380Y-112655357D01*
X152570000Y-112750595D01*
X152617619Y-112798214D01*
X152712857Y-112845833D01*
X152855714Y-112845833D01*
X152950952Y-112798214D01*
X152998571Y-112750595D01*
X153046190Y-112655357D01*
X153046190Y-112274404D01*
X152617619Y-113226785D02*
X152570000Y-113274404D01*
X152522380Y-113369642D01*
X152522380Y-113607738D01*
X152570000Y-113702976D01*
X152617619Y-113750595D01*
X152712857Y-113798214D01*
X152808095Y-113798214D01*
X152950952Y-113750595D01*
X153522380Y-113179166D01*
X153522380Y-113798214D01*
G04 #@! TD*
M02*
