G04 #@! TF.GenerationSoftware,KiCad,Pcbnew,5.0.0-fee4fd1~66~ubuntu16.04.1*
G04 #@! TF.CreationDate,2018-09-10T21:40:52+02:00*
G04 #@! TF.ProjectId,fpvlaptracker32,6670766C6170747261636B657233322E,rev?*
G04 #@! TF.SameCoordinates,Original*
G04 #@! TF.FileFunction,Copper,L1,Top,Signal*
G04 #@! TF.FilePolarity,Positive*
%FSLAX46Y46*%
G04 Gerber Fmt 4.6, Leading zero omitted, Abs format (unit mm)*
G04 Created by KiCad (PCBNEW 5.0.0-fee4fd1~66~ubuntu16.04.1) date Mon Sep 10 21:40:52 2018*
%MOMM*%
%LPD*%
G01*
G04 APERTURE LIST*
G04 #@! TA.AperFunction,NonConductor*
%ADD10C,0.300000*%
G04 #@! TD*
G04 #@! TA.AperFunction,SMDPad,CuDef*
%ADD11R,0.900000X1.000000*%
G04 #@! TD*
G04 #@! TA.AperFunction,SMDPad,CuDef*
%ADD12R,1.000000X0.900000*%
G04 #@! TD*
G04 #@! TA.AperFunction,ComponentPad*
%ADD13R,2.600000X2.600000*%
G04 #@! TD*
G04 #@! TA.AperFunction,ComponentPad*
%ADD14C,2.600000*%
G04 #@! TD*
G04 #@! TA.AperFunction,SMDPad,CuDef*
%ADD15O,1.600000X3.500000*%
G04 #@! TD*
G04 #@! TA.AperFunction,Conductor*
%ADD16C,0.100000*%
G04 #@! TD*
G04 #@! TA.AperFunction,SMDPad,CuDef*
%ADD17C,1.425000*%
G04 #@! TD*
G04 #@! TA.AperFunction,SMDPad,CuDef*
%ADD18O,0.900000X2.500000*%
G04 #@! TD*
G04 #@! TA.AperFunction,SMDPad,CuDef*
%ADD19O,2.500000X0.900000*%
G04 #@! TD*
G04 #@! TA.AperFunction,SMDPad,CuDef*
%ADD20R,6.000000X6.000000*%
G04 #@! TD*
G04 #@! TA.AperFunction,ComponentPad*
%ADD21R,1.700000X1.700000*%
G04 #@! TD*
G04 #@! TA.AperFunction,ComponentPad*
%ADD22O,1.700000X1.700000*%
G04 #@! TD*
G04 #@! TA.AperFunction,ViaPad*
%ADD23C,0.800000*%
G04 #@! TD*
G04 #@! TA.AperFunction,Conductor*
%ADD24C,0.499999*%
G04 #@! TD*
G04 #@! TA.AperFunction,Conductor*
%ADD25C,0.250000*%
G04 #@! TD*
G04 #@! TA.AperFunction,Conductor*
%ADD26C,0.254000*%
G04 #@! TD*
G04 APERTURE END LIST*
D10*
X136178571Y-124142857D02*
X136178571Y-123571428D01*
X135678571Y-123928571D02*
X136964285Y-123928571D01*
X137107142Y-123857142D01*
X137178571Y-123714285D01*
X137178571Y-123571428D01*
X137178571Y-122857142D02*
X137107142Y-123000000D01*
X137035714Y-123071428D01*
X136892857Y-123142857D01*
X136464285Y-123142857D01*
X136321428Y-123071428D01*
X136250000Y-123000000D01*
X136178571Y-122857142D01*
X136178571Y-122642857D01*
X136250000Y-122500000D01*
X136321428Y-122428571D01*
X136464285Y-122357142D01*
X136892857Y-122357142D01*
X137035714Y-122428571D01*
X137107142Y-122500000D01*
X137178571Y-122642857D01*
X137178571Y-122857142D01*
X136178571Y-121714285D02*
X137678571Y-121714285D01*
X136250000Y-121714285D02*
X136178571Y-121571428D01*
X136178571Y-121285714D01*
X136250000Y-121142857D01*
X136321428Y-121071428D01*
X136464285Y-121000000D01*
X136892857Y-121000000D01*
X137035714Y-121071428D01*
X137107142Y-121142857D01*
X137178571Y-121285714D01*
X137178571Y-121571428D01*
X137107142Y-121714285D01*
D11*
G04 #@! TO.P,SW2,2*
G04 #@! TO.N,GND*
X151850000Y-81650000D03*
G04 #@! TO.P,SW2,1*
G04 #@! TO.N,/IO0*
X150250000Y-81650000D03*
G04 #@! TO.P,SW2,2*
G04 #@! TO.N,GND*
X151850000Y-85750000D03*
G04 #@! TO.P,SW2,1*
G04 #@! TO.N,/IO0*
X150250000Y-85750000D03*
G04 #@! TD*
D12*
G04 #@! TO.P,SW3,2*
G04 #@! TO.N,GND*
X144050000Y-117000000D03*
G04 #@! TO.P,SW3,1*
G04 #@! TO.N,/EN*
X144050000Y-115400000D03*
G04 #@! TO.P,SW3,2*
G04 #@! TO.N,GND*
X139950000Y-117000000D03*
G04 #@! TO.P,SW3,1*
G04 #@! TO.N,/EN*
X139950000Y-115400000D03*
G04 #@! TD*
G04 #@! TO.P,SW1,2*
G04 #@! TO.N,GND*
X151550000Y-116800000D03*
G04 #@! TO.P,SW1,1*
G04 #@! TO.N,/WEB_UPDATE*
X151550000Y-115200000D03*
G04 #@! TO.P,SW1,2*
G04 #@! TO.N,GND*
X147450000Y-116800000D03*
G04 #@! TO.P,SW1,1*
G04 #@! TO.N,/WEB_UPDATE*
X147450000Y-115200000D03*
G04 #@! TD*
D13*
G04 #@! TO.P,J1,1*
G04 #@! TO.N,+5V*
X179500000Y-82750000D03*
D14*
G04 #@! TO.P,J1,2*
G04 #@! TO.N,GND*
X174420000Y-82750000D03*
G04 #@! TO.P,J1,3*
G04 #@! TO.N,/BAT*
X169340000Y-82750000D03*
G04 #@! TD*
D15*
G04 #@! TO.P,U1,1*
G04 #@! TO.N,GND*
X175830000Y-120990000D03*
G04 #@! TO.P,U1,2*
G04 #@! TO.N,Net-(U1-Pad2)*
X178370000Y-120990000D03*
G04 #@! TO.P,U1,3*
G04 #@! TO.N,GND*
X180910000Y-120990000D03*
G04 #@! TO.P,U1,4*
G04 #@! TO.N,/SPI_DATA*
X180910000Y-92190000D03*
G04 #@! TO.P,U1,5*
G04 #@! TO.N,/SPI_CS*
X178370000Y-92190000D03*
G04 #@! TO.P,U1,6*
G04 #@! TO.N,/SPI_CLK*
X175830000Y-92190000D03*
G04 #@! TO.P,U1,7*
G04 #@! TO.N,GND*
X173290000Y-92190000D03*
G04 #@! TO.P,U1,8*
G04 #@! TO.N,+5V*
X170750000Y-92190000D03*
G04 #@! TO.P,U1,9*
G04 #@! TO.N,/RSSI*
X168210000Y-92190000D03*
G04 #@! TO.P,U1,10*
G04 #@! TO.N,Net-(U1-Pad10)*
X165670000Y-92190000D03*
G04 #@! TO.P,U1,11*
G04 #@! TO.N,Net-(U1-Pad11)*
X163130000Y-92190000D03*
G04 #@! TO.P,U1,12*
G04 #@! TO.N,GND*
X160590000Y-92190000D03*
G04 #@! TD*
D16*
G04 #@! TO.N,Net-(D1-Pad1)*
G04 #@! TO.C,R1*
G36*
X148762004Y-78126204D02*
X148786273Y-78129804D01*
X148810071Y-78135765D01*
X148833171Y-78144030D01*
X148855349Y-78154520D01*
X148876393Y-78167133D01*
X148896098Y-78181747D01*
X148914277Y-78198223D01*
X148930753Y-78216402D01*
X148945367Y-78236107D01*
X148957980Y-78257151D01*
X148968470Y-78279329D01*
X148976735Y-78302429D01*
X148982696Y-78326227D01*
X148986296Y-78350496D01*
X148987500Y-78375000D01*
X148987500Y-79625000D01*
X148986296Y-79649504D01*
X148982696Y-79673773D01*
X148976735Y-79697571D01*
X148968470Y-79720671D01*
X148957980Y-79742849D01*
X148945367Y-79763893D01*
X148930753Y-79783598D01*
X148914277Y-79801777D01*
X148896098Y-79818253D01*
X148876393Y-79832867D01*
X148855349Y-79845480D01*
X148833171Y-79855970D01*
X148810071Y-79864235D01*
X148786273Y-79870196D01*
X148762004Y-79873796D01*
X148737500Y-79875000D01*
X147812500Y-79875000D01*
X147787996Y-79873796D01*
X147763727Y-79870196D01*
X147739929Y-79864235D01*
X147716829Y-79855970D01*
X147694651Y-79845480D01*
X147673607Y-79832867D01*
X147653902Y-79818253D01*
X147635723Y-79801777D01*
X147619247Y-79783598D01*
X147604633Y-79763893D01*
X147592020Y-79742849D01*
X147581530Y-79720671D01*
X147573265Y-79697571D01*
X147567304Y-79673773D01*
X147563704Y-79649504D01*
X147562500Y-79625000D01*
X147562500Y-78375000D01*
X147563704Y-78350496D01*
X147567304Y-78326227D01*
X147573265Y-78302429D01*
X147581530Y-78279329D01*
X147592020Y-78257151D01*
X147604633Y-78236107D01*
X147619247Y-78216402D01*
X147635723Y-78198223D01*
X147653902Y-78181747D01*
X147673607Y-78167133D01*
X147694651Y-78154520D01*
X147716829Y-78144030D01*
X147739929Y-78135765D01*
X147763727Y-78129804D01*
X147787996Y-78126204D01*
X147812500Y-78125000D01*
X148737500Y-78125000D01*
X148762004Y-78126204D01*
X148762004Y-78126204D01*
G37*
D17*
G04 #@! TD*
G04 #@! TO.P,R1,2*
G04 #@! TO.N,Net-(D1-Pad1)*
X148275000Y-79000000D03*
D16*
G04 #@! TO.N,GND*
G04 #@! TO.C,R1*
G36*
X151737004Y-78126204D02*
X151761273Y-78129804D01*
X151785071Y-78135765D01*
X151808171Y-78144030D01*
X151830349Y-78154520D01*
X151851393Y-78167133D01*
X151871098Y-78181747D01*
X151889277Y-78198223D01*
X151905753Y-78216402D01*
X151920367Y-78236107D01*
X151932980Y-78257151D01*
X151943470Y-78279329D01*
X151951735Y-78302429D01*
X151957696Y-78326227D01*
X151961296Y-78350496D01*
X151962500Y-78375000D01*
X151962500Y-79625000D01*
X151961296Y-79649504D01*
X151957696Y-79673773D01*
X151951735Y-79697571D01*
X151943470Y-79720671D01*
X151932980Y-79742849D01*
X151920367Y-79763893D01*
X151905753Y-79783598D01*
X151889277Y-79801777D01*
X151871098Y-79818253D01*
X151851393Y-79832867D01*
X151830349Y-79845480D01*
X151808171Y-79855970D01*
X151785071Y-79864235D01*
X151761273Y-79870196D01*
X151737004Y-79873796D01*
X151712500Y-79875000D01*
X150787500Y-79875000D01*
X150762996Y-79873796D01*
X150738727Y-79870196D01*
X150714929Y-79864235D01*
X150691829Y-79855970D01*
X150669651Y-79845480D01*
X150648607Y-79832867D01*
X150628902Y-79818253D01*
X150610723Y-79801777D01*
X150594247Y-79783598D01*
X150579633Y-79763893D01*
X150567020Y-79742849D01*
X150556530Y-79720671D01*
X150548265Y-79697571D01*
X150542304Y-79673773D01*
X150538704Y-79649504D01*
X150537500Y-79625000D01*
X150537500Y-78375000D01*
X150538704Y-78350496D01*
X150542304Y-78326227D01*
X150548265Y-78302429D01*
X150556530Y-78279329D01*
X150567020Y-78257151D01*
X150579633Y-78236107D01*
X150594247Y-78216402D01*
X150610723Y-78198223D01*
X150628902Y-78181747D01*
X150648607Y-78167133D01*
X150669651Y-78154520D01*
X150691829Y-78144030D01*
X150714929Y-78135765D01*
X150738727Y-78129804D01*
X150762996Y-78126204D01*
X150787500Y-78125000D01*
X151712500Y-78125000D01*
X151737004Y-78126204D01*
X151737004Y-78126204D01*
G37*
D17*
G04 #@! TD*
G04 #@! TO.P,R1,1*
G04 #@! TO.N,GND*
X151250000Y-79000000D03*
D16*
G04 #@! TO.N,/TXD*
G04 #@! TO.C,R13*
G36*
X137649504Y-82063704D02*
X137673773Y-82067304D01*
X137697571Y-82073265D01*
X137720671Y-82081530D01*
X137742849Y-82092020D01*
X137763893Y-82104633D01*
X137783598Y-82119247D01*
X137801777Y-82135723D01*
X137818253Y-82153902D01*
X137832867Y-82173607D01*
X137845480Y-82194651D01*
X137855970Y-82216829D01*
X137864235Y-82239929D01*
X137870196Y-82263727D01*
X137873796Y-82287996D01*
X137875000Y-82312500D01*
X137875000Y-83237500D01*
X137873796Y-83262004D01*
X137870196Y-83286273D01*
X137864235Y-83310071D01*
X137855970Y-83333171D01*
X137845480Y-83355349D01*
X137832867Y-83376393D01*
X137818253Y-83396098D01*
X137801777Y-83414277D01*
X137783598Y-83430753D01*
X137763893Y-83445367D01*
X137742849Y-83457980D01*
X137720671Y-83468470D01*
X137697571Y-83476735D01*
X137673773Y-83482696D01*
X137649504Y-83486296D01*
X137625000Y-83487500D01*
X136375000Y-83487500D01*
X136350496Y-83486296D01*
X136326227Y-83482696D01*
X136302429Y-83476735D01*
X136279329Y-83468470D01*
X136257151Y-83457980D01*
X136236107Y-83445367D01*
X136216402Y-83430753D01*
X136198223Y-83414277D01*
X136181747Y-83396098D01*
X136167133Y-83376393D01*
X136154520Y-83355349D01*
X136144030Y-83333171D01*
X136135765Y-83310071D01*
X136129804Y-83286273D01*
X136126204Y-83262004D01*
X136125000Y-83237500D01*
X136125000Y-82312500D01*
X136126204Y-82287996D01*
X136129804Y-82263727D01*
X136135765Y-82239929D01*
X136144030Y-82216829D01*
X136154520Y-82194651D01*
X136167133Y-82173607D01*
X136181747Y-82153902D01*
X136198223Y-82135723D01*
X136216402Y-82119247D01*
X136236107Y-82104633D01*
X136257151Y-82092020D01*
X136279329Y-82081530D01*
X136302429Y-82073265D01*
X136326227Y-82067304D01*
X136350496Y-82063704D01*
X136375000Y-82062500D01*
X137625000Y-82062500D01*
X137649504Y-82063704D01*
X137649504Y-82063704D01*
G37*
D17*
G04 #@! TD*
G04 #@! TO.P,R13,1*
G04 #@! TO.N,/TXD*
X137000000Y-82775000D03*
D16*
G04 #@! TO.N,Net-(R13-Pad2)*
G04 #@! TO.C,R13*
G36*
X137649504Y-85038704D02*
X137673773Y-85042304D01*
X137697571Y-85048265D01*
X137720671Y-85056530D01*
X137742849Y-85067020D01*
X137763893Y-85079633D01*
X137783598Y-85094247D01*
X137801777Y-85110723D01*
X137818253Y-85128902D01*
X137832867Y-85148607D01*
X137845480Y-85169651D01*
X137855970Y-85191829D01*
X137864235Y-85214929D01*
X137870196Y-85238727D01*
X137873796Y-85262996D01*
X137875000Y-85287500D01*
X137875000Y-86212500D01*
X137873796Y-86237004D01*
X137870196Y-86261273D01*
X137864235Y-86285071D01*
X137855970Y-86308171D01*
X137845480Y-86330349D01*
X137832867Y-86351393D01*
X137818253Y-86371098D01*
X137801777Y-86389277D01*
X137783598Y-86405753D01*
X137763893Y-86420367D01*
X137742849Y-86432980D01*
X137720671Y-86443470D01*
X137697571Y-86451735D01*
X137673773Y-86457696D01*
X137649504Y-86461296D01*
X137625000Y-86462500D01*
X136375000Y-86462500D01*
X136350496Y-86461296D01*
X136326227Y-86457696D01*
X136302429Y-86451735D01*
X136279329Y-86443470D01*
X136257151Y-86432980D01*
X136236107Y-86420367D01*
X136216402Y-86405753D01*
X136198223Y-86389277D01*
X136181747Y-86371098D01*
X136167133Y-86351393D01*
X136154520Y-86330349D01*
X136144030Y-86308171D01*
X136135765Y-86285071D01*
X136129804Y-86261273D01*
X136126204Y-86237004D01*
X136125000Y-86212500D01*
X136125000Y-85287500D01*
X136126204Y-85262996D01*
X136129804Y-85238727D01*
X136135765Y-85214929D01*
X136144030Y-85191829D01*
X136154520Y-85169651D01*
X136167133Y-85148607D01*
X136181747Y-85128902D01*
X136198223Y-85110723D01*
X136216402Y-85094247D01*
X136236107Y-85079633D01*
X136257151Y-85067020D01*
X136279329Y-85056530D01*
X136302429Y-85048265D01*
X136326227Y-85042304D01*
X136350496Y-85038704D01*
X136375000Y-85037500D01*
X137625000Y-85037500D01*
X137649504Y-85038704D01*
X137649504Y-85038704D01*
G37*
D17*
G04 #@! TD*
G04 #@! TO.P,R13,2*
G04 #@! TO.N,Net-(R13-Pad2)*
X137000000Y-85750000D03*
D18*
G04 #@! TO.P,U3,38*
G04 #@! TO.N,GND*
X137350000Y-92250000D03*
G04 #@! TO.P,U3,37*
G04 #@! TO.N,Net-(U3-Pad37)*
X138620000Y-92250000D03*
G04 #@! TO.P,U3,36*
G04 #@! TO.N,Net-(U3-Pad36)*
X139890000Y-92250000D03*
G04 #@! TO.P,U3,35*
G04 #@! TO.N,Net-(R13-Pad2)*
X141160000Y-92250000D03*
G04 #@! TO.P,U3,34*
G04 #@! TO.N,/RXD*
X142430000Y-92250000D03*
G04 #@! TO.P,U3,33*
G04 #@! TO.N,Net-(U3-Pad33)*
X143700000Y-92250000D03*
G04 #@! TO.P,U3,32*
G04 #@! TO.N,Net-(U3-Pad32)*
X144970000Y-92250000D03*
G04 #@! TO.P,U3,31*
G04 #@! TO.N,/LED*
X146240000Y-92250000D03*
G04 #@! TO.P,U3,30*
G04 #@! TO.N,/SPI_DATA*
X147510000Y-92250000D03*
G04 #@! TO.P,U3,29*
G04 #@! TO.N,Net-(U3-Pad29)*
X148780000Y-92250000D03*
G04 #@! TO.P,U3,28*
G04 #@! TO.N,/SPI_CLK*
X150050000Y-92250000D03*
G04 #@! TO.P,U3,27*
G04 #@! TO.N,/SPI_CS*
X151320000Y-92250000D03*
G04 #@! TO.P,U3,26*
G04 #@! TO.N,Net-(U3-Pad26)*
X152590000Y-92250000D03*
G04 #@! TO.P,U3,25*
G04 #@! TO.N,/IO0*
X153860000Y-92250000D03*
D19*
G04 #@! TO.P,U3,24*
G04 #@! TO.N,Net-(R4-Pad2)*
X155350000Y-95535000D03*
G04 #@! TO.P,U3,23*
G04 #@! TO.N,Net-(U3-Pad23)*
X155350000Y-96805000D03*
G04 #@! TO.P,U3,22*
G04 #@! TO.N,Net-(U3-Pad22)*
X155350000Y-98075000D03*
G04 #@! TO.P,U3,21*
G04 #@! TO.N,Net-(U3-Pad21)*
X155350000Y-99345000D03*
G04 #@! TO.P,U3,20*
G04 #@! TO.N,Net-(U3-Pad20)*
X155350000Y-100615000D03*
G04 #@! TO.P,U3,19*
G04 #@! TO.N,Net-(U3-Pad19)*
X155350000Y-101885000D03*
G04 #@! TO.P,U3,18*
G04 #@! TO.N,Net-(U3-Pad18)*
X155350000Y-103155000D03*
G04 #@! TO.P,U3,17*
G04 #@! TO.N,Net-(U3-Pad17)*
X155350000Y-104425000D03*
G04 #@! TO.P,U3,16*
G04 #@! TO.N,Net-(U3-Pad16)*
X155350000Y-105695000D03*
G04 #@! TO.P,U3,15*
G04 #@! TO.N,GND*
X155350000Y-106965000D03*
D18*
G04 #@! TO.P,U3,14*
G04 #@! TO.N,Net-(U3-Pad14)*
X153860000Y-110250000D03*
G04 #@! TO.P,U3,13*
G04 #@! TO.N,Net-(U3-Pad13)*
X152590000Y-110250000D03*
G04 #@! TO.P,U3,12*
G04 #@! TO.N,/ADC_REF*
X151320000Y-110250000D03*
G04 #@! TO.P,U3,11*
G04 #@! TO.N,Net-(U3-Pad11)*
X150050000Y-110250000D03*
G04 #@! TO.P,U3,10*
G04 #@! TO.N,Net-(U3-Pad10)*
X148780000Y-110250000D03*
G04 #@! TO.P,U3,9*
G04 #@! TO.N,/ANALOG_BAT*
X147510000Y-110250000D03*
G04 #@! TO.P,U3,8*
G04 #@! TO.N,/ANALOG_RSSI*
X146240000Y-110250000D03*
G04 #@! TO.P,U3,7*
G04 #@! TO.N,Net-(U3-Pad7)*
X144970000Y-110250000D03*
G04 #@! TO.P,U3,6*
G04 #@! TO.N,/WEB_UPDATE*
X143700000Y-110250000D03*
G04 #@! TO.P,U3,5*
G04 #@! TO.N,Net-(U3-Pad5)*
X142430000Y-110250000D03*
G04 #@! TO.P,U3,4*
G04 #@! TO.N,Net-(U3-Pad4)*
X141160000Y-110250000D03*
G04 #@! TO.P,U3,3*
G04 #@! TO.N,/EN*
X139890000Y-110250000D03*
G04 #@! TO.P,U3,2*
G04 #@! TO.N,+3V3*
X138620000Y-110250000D03*
G04 #@! TO.P,U3,1*
G04 #@! TO.N,GND*
X137350000Y-110250000D03*
D20*
G04 #@! TO.P,U3,39*
G04 #@! TO.N,N/C*
X145050000Y-101550000D03*
G04 #@! TD*
D16*
G04 #@! TO.N,+3V3*
G04 #@! TO.C,D1*
G36*
X140649504Y-85013704D02*
X140673773Y-85017304D01*
X140697571Y-85023265D01*
X140720671Y-85031530D01*
X140742849Y-85042020D01*
X140763893Y-85054633D01*
X140783598Y-85069247D01*
X140801777Y-85085723D01*
X140818253Y-85103902D01*
X140832867Y-85123607D01*
X140845480Y-85144651D01*
X140855970Y-85166829D01*
X140864235Y-85189929D01*
X140870196Y-85213727D01*
X140873796Y-85237996D01*
X140875000Y-85262500D01*
X140875000Y-86187500D01*
X140873796Y-86212004D01*
X140870196Y-86236273D01*
X140864235Y-86260071D01*
X140855970Y-86283171D01*
X140845480Y-86305349D01*
X140832867Y-86326393D01*
X140818253Y-86346098D01*
X140801777Y-86364277D01*
X140783598Y-86380753D01*
X140763893Y-86395367D01*
X140742849Y-86407980D01*
X140720671Y-86418470D01*
X140697571Y-86426735D01*
X140673773Y-86432696D01*
X140649504Y-86436296D01*
X140625000Y-86437500D01*
X139375000Y-86437500D01*
X139350496Y-86436296D01*
X139326227Y-86432696D01*
X139302429Y-86426735D01*
X139279329Y-86418470D01*
X139257151Y-86407980D01*
X139236107Y-86395367D01*
X139216402Y-86380753D01*
X139198223Y-86364277D01*
X139181747Y-86346098D01*
X139167133Y-86326393D01*
X139154520Y-86305349D01*
X139144030Y-86283171D01*
X139135765Y-86260071D01*
X139129804Y-86236273D01*
X139126204Y-86212004D01*
X139125000Y-86187500D01*
X139125000Y-85262500D01*
X139126204Y-85237996D01*
X139129804Y-85213727D01*
X139135765Y-85189929D01*
X139144030Y-85166829D01*
X139154520Y-85144651D01*
X139167133Y-85123607D01*
X139181747Y-85103902D01*
X139198223Y-85085723D01*
X139216402Y-85069247D01*
X139236107Y-85054633D01*
X139257151Y-85042020D01*
X139279329Y-85031530D01*
X139302429Y-85023265D01*
X139326227Y-85017304D01*
X139350496Y-85013704D01*
X139375000Y-85012500D01*
X140625000Y-85012500D01*
X140649504Y-85013704D01*
X140649504Y-85013704D01*
G37*
D17*
G04 #@! TD*
G04 #@! TO.P,D1,2*
G04 #@! TO.N,+3V3*
X140000000Y-85725000D03*
D16*
G04 #@! TO.N,Net-(D1-Pad1)*
G04 #@! TO.C,D1*
G36*
X140649504Y-82038704D02*
X140673773Y-82042304D01*
X140697571Y-82048265D01*
X140720671Y-82056530D01*
X140742849Y-82067020D01*
X140763893Y-82079633D01*
X140783598Y-82094247D01*
X140801777Y-82110723D01*
X140818253Y-82128902D01*
X140832867Y-82148607D01*
X140845480Y-82169651D01*
X140855970Y-82191829D01*
X140864235Y-82214929D01*
X140870196Y-82238727D01*
X140873796Y-82262996D01*
X140875000Y-82287500D01*
X140875000Y-83212500D01*
X140873796Y-83237004D01*
X140870196Y-83261273D01*
X140864235Y-83285071D01*
X140855970Y-83308171D01*
X140845480Y-83330349D01*
X140832867Y-83351393D01*
X140818253Y-83371098D01*
X140801777Y-83389277D01*
X140783598Y-83405753D01*
X140763893Y-83420367D01*
X140742849Y-83432980D01*
X140720671Y-83443470D01*
X140697571Y-83451735D01*
X140673773Y-83457696D01*
X140649504Y-83461296D01*
X140625000Y-83462500D01*
X139375000Y-83462500D01*
X139350496Y-83461296D01*
X139326227Y-83457696D01*
X139302429Y-83451735D01*
X139279329Y-83443470D01*
X139257151Y-83432980D01*
X139236107Y-83420367D01*
X139216402Y-83405753D01*
X139198223Y-83389277D01*
X139181747Y-83371098D01*
X139167133Y-83351393D01*
X139154520Y-83330349D01*
X139144030Y-83308171D01*
X139135765Y-83285071D01*
X139129804Y-83261273D01*
X139126204Y-83237004D01*
X139125000Y-83212500D01*
X139125000Y-82287500D01*
X139126204Y-82262996D01*
X139129804Y-82238727D01*
X139135765Y-82214929D01*
X139144030Y-82191829D01*
X139154520Y-82169651D01*
X139167133Y-82148607D01*
X139181747Y-82128902D01*
X139198223Y-82110723D01*
X139216402Y-82094247D01*
X139236107Y-82079633D01*
X139257151Y-82067020D01*
X139279329Y-82056530D01*
X139302429Y-82048265D01*
X139326227Y-82042304D01*
X139350496Y-82038704D01*
X139375000Y-82037500D01*
X140625000Y-82037500D01*
X140649504Y-82038704D01*
X140649504Y-82038704D01*
G37*
D17*
G04 #@! TD*
G04 #@! TO.P,D1,1*
G04 #@! TO.N,Net-(D1-Pad1)*
X140000000Y-82750000D03*
D16*
G04 #@! TO.N,Net-(D5-Pad1)*
G04 #@! TO.C,D5*
G36*
X143899504Y-82038704D02*
X143923773Y-82042304D01*
X143947571Y-82048265D01*
X143970671Y-82056530D01*
X143992849Y-82067020D01*
X144013893Y-82079633D01*
X144033598Y-82094247D01*
X144051777Y-82110723D01*
X144068253Y-82128902D01*
X144082867Y-82148607D01*
X144095480Y-82169651D01*
X144105970Y-82191829D01*
X144114235Y-82214929D01*
X144120196Y-82238727D01*
X144123796Y-82262996D01*
X144125000Y-82287500D01*
X144125000Y-83212500D01*
X144123796Y-83237004D01*
X144120196Y-83261273D01*
X144114235Y-83285071D01*
X144105970Y-83308171D01*
X144095480Y-83330349D01*
X144082867Y-83351393D01*
X144068253Y-83371098D01*
X144051777Y-83389277D01*
X144033598Y-83405753D01*
X144013893Y-83420367D01*
X143992849Y-83432980D01*
X143970671Y-83443470D01*
X143947571Y-83451735D01*
X143923773Y-83457696D01*
X143899504Y-83461296D01*
X143875000Y-83462500D01*
X142625000Y-83462500D01*
X142600496Y-83461296D01*
X142576227Y-83457696D01*
X142552429Y-83451735D01*
X142529329Y-83443470D01*
X142507151Y-83432980D01*
X142486107Y-83420367D01*
X142466402Y-83405753D01*
X142448223Y-83389277D01*
X142431747Y-83371098D01*
X142417133Y-83351393D01*
X142404520Y-83330349D01*
X142394030Y-83308171D01*
X142385765Y-83285071D01*
X142379804Y-83261273D01*
X142376204Y-83237004D01*
X142375000Y-83212500D01*
X142375000Y-82287500D01*
X142376204Y-82262996D01*
X142379804Y-82238727D01*
X142385765Y-82214929D01*
X142394030Y-82191829D01*
X142404520Y-82169651D01*
X142417133Y-82148607D01*
X142431747Y-82128902D01*
X142448223Y-82110723D01*
X142466402Y-82094247D01*
X142486107Y-82079633D01*
X142507151Y-82067020D01*
X142529329Y-82056530D01*
X142552429Y-82048265D01*
X142576227Y-82042304D01*
X142600496Y-82038704D01*
X142625000Y-82037500D01*
X143875000Y-82037500D01*
X143899504Y-82038704D01*
X143899504Y-82038704D01*
G37*
D17*
G04 #@! TD*
G04 #@! TO.P,D5,1*
G04 #@! TO.N,Net-(D5-Pad1)*
X143250000Y-82750000D03*
D16*
G04 #@! TO.N,+3V3*
G04 #@! TO.C,D5*
G36*
X143899504Y-85013704D02*
X143923773Y-85017304D01*
X143947571Y-85023265D01*
X143970671Y-85031530D01*
X143992849Y-85042020D01*
X144013893Y-85054633D01*
X144033598Y-85069247D01*
X144051777Y-85085723D01*
X144068253Y-85103902D01*
X144082867Y-85123607D01*
X144095480Y-85144651D01*
X144105970Y-85166829D01*
X144114235Y-85189929D01*
X144120196Y-85213727D01*
X144123796Y-85237996D01*
X144125000Y-85262500D01*
X144125000Y-86187500D01*
X144123796Y-86212004D01*
X144120196Y-86236273D01*
X144114235Y-86260071D01*
X144105970Y-86283171D01*
X144095480Y-86305349D01*
X144082867Y-86326393D01*
X144068253Y-86346098D01*
X144051777Y-86364277D01*
X144033598Y-86380753D01*
X144013893Y-86395367D01*
X143992849Y-86407980D01*
X143970671Y-86418470D01*
X143947571Y-86426735D01*
X143923773Y-86432696D01*
X143899504Y-86436296D01*
X143875000Y-86437500D01*
X142625000Y-86437500D01*
X142600496Y-86436296D01*
X142576227Y-86432696D01*
X142552429Y-86426735D01*
X142529329Y-86418470D01*
X142507151Y-86407980D01*
X142486107Y-86395367D01*
X142466402Y-86380753D01*
X142448223Y-86364277D01*
X142431747Y-86346098D01*
X142417133Y-86326393D01*
X142404520Y-86305349D01*
X142394030Y-86283171D01*
X142385765Y-86260071D01*
X142379804Y-86236273D01*
X142376204Y-86212004D01*
X142375000Y-86187500D01*
X142375000Y-85262500D01*
X142376204Y-85237996D01*
X142379804Y-85213727D01*
X142385765Y-85189929D01*
X142394030Y-85166829D01*
X142404520Y-85144651D01*
X142417133Y-85123607D01*
X142431747Y-85103902D01*
X142448223Y-85085723D01*
X142466402Y-85069247D01*
X142486107Y-85054633D01*
X142507151Y-85042020D01*
X142529329Y-85031530D01*
X142552429Y-85023265D01*
X142576227Y-85017304D01*
X142600496Y-85013704D01*
X142625000Y-85012500D01*
X143875000Y-85012500D01*
X143899504Y-85013704D01*
X143899504Y-85013704D01*
G37*
D17*
G04 #@! TD*
G04 #@! TO.P,D5,2*
G04 #@! TO.N,+3V3*
X143250000Y-85725000D03*
D16*
G04 #@! TO.N,Net-(D5-Pad1)*
G04 #@! TO.C,R5*
G36*
X146899504Y-82038704D02*
X146923773Y-82042304D01*
X146947571Y-82048265D01*
X146970671Y-82056530D01*
X146992849Y-82067020D01*
X147013893Y-82079633D01*
X147033598Y-82094247D01*
X147051777Y-82110723D01*
X147068253Y-82128902D01*
X147082867Y-82148607D01*
X147095480Y-82169651D01*
X147105970Y-82191829D01*
X147114235Y-82214929D01*
X147120196Y-82238727D01*
X147123796Y-82262996D01*
X147125000Y-82287500D01*
X147125000Y-83212500D01*
X147123796Y-83237004D01*
X147120196Y-83261273D01*
X147114235Y-83285071D01*
X147105970Y-83308171D01*
X147095480Y-83330349D01*
X147082867Y-83351393D01*
X147068253Y-83371098D01*
X147051777Y-83389277D01*
X147033598Y-83405753D01*
X147013893Y-83420367D01*
X146992849Y-83432980D01*
X146970671Y-83443470D01*
X146947571Y-83451735D01*
X146923773Y-83457696D01*
X146899504Y-83461296D01*
X146875000Y-83462500D01*
X145625000Y-83462500D01*
X145600496Y-83461296D01*
X145576227Y-83457696D01*
X145552429Y-83451735D01*
X145529329Y-83443470D01*
X145507151Y-83432980D01*
X145486107Y-83420367D01*
X145466402Y-83405753D01*
X145448223Y-83389277D01*
X145431747Y-83371098D01*
X145417133Y-83351393D01*
X145404520Y-83330349D01*
X145394030Y-83308171D01*
X145385765Y-83285071D01*
X145379804Y-83261273D01*
X145376204Y-83237004D01*
X145375000Y-83212500D01*
X145375000Y-82287500D01*
X145376204Y-82262996D01*
X145379804Y-82238727D01*
X145385765Y-82214929D01*
X145394030Y-82191829D01*
X145404520Y-82169651D01*
X145417133Y-82148607D01*
X145431747Y-82128902D01*
X145448223Y-82110723D01*
X145466402Y-82094247D01*
X145486107Y-82079633D01*
X145507151Y-82067020D01*
X145529329Y-82056530D01*
X145552429Y-82048265D01*
X145576227Y-82042304D01*
X145600496Y-82038704D01*
X145625000Y-82037500D01*
X146875000Y-82037500D01*
X146899504Y-82038704D01*
X146899504Y-82038704D01*
G37*
D17*
G04 #@! TD*
G04 #@! TO.P,R5,1*
G04 #@! TO.N,Net-(D5-Pad1)*
X146250000Y-82750000D03*
D16*
G04 #@! TO.N,/LED*
G04 #@! TO.C,R5*
G36*
X146899504Y-85013704D02*
X146923773Y-85017304D01*
X146947571Y-85023265D01*
X146970671Y-85031530D01*
X146992849Y-85042020D01*
X147013893Y-85054633D01*
X147033598Y-85069247D01*
X147051777Y-85085723D01*
X147068253Y-85103902D01*
X147082867Y-85123607D01*
X147095480Y-85144651D01*
X147105970Y-85166829D01*
X147114235Y-85189929D01*
X147120196Y-85213727D01*
X147123796Y-85237996D01*
X147125000Y-85262500D01*
X147125000Y-86187500D01*
X147123796Y-86212004D01*
X147120196Y-86236273D01*
X147114235Y-86260071D01*
X147105970Y-86283171D01*
X147095480Y-86305349D01*
X147082867Y-86326393D01*
X147068253Y-86346098D01*
X147051777Y-86364277D01*
X147033598Y-86380753D01*
X147013893Y-86395367D01*
X146992849Y-86407980D01*
X146970671Y-86418470D01*
X146947571Y-86426735D01*
X146923773Y-86432696D01*
X146899504Y-86436296D01*
X146875000Y-86437500D01*
X145625000Y-86437500D01*
X145600496Y-86436296D01*
X145576227Y-86432696D01*
X145552429Y-86426735D01*
X145529329Y-86418470D01*
X145507151Y-86407980D01*
X145486107Y-86395367D01*
X145466402Y-86380753D01*
X145448223Y-86364277D01*
X145431747Y-86346098D01*
X145417133Y-86326393D01*
X145404520Y-86305349D01*
X145394030Y-86283171D01*
X145385765Y-86260071D01*
X145379804Y-86236273D01*
X145376204Y-86212004D01*
X145375000Y-86187500D01*
X145375000Y-85262500D01*
X145376204Y-85237996D01*
X145379804Y-85213727D01*
X145385765Y-85189929D01*
X145394030Y-85166829D01*
X145404520Y-85144651D01*
X145417133Y-85123607D01*
X145431747Y-85103902D01*
X145448223Y-85085723D01*
X145466402Y-85069247D01*
X145486107Y-85054633D01*
X145507151Y-85042020D01*
X145529329Y-85031530D01*
X145552429Y-85023265D01*
X145576227Y-85017304D01*
X145600496Y-85013704D01*
X145625000Y-85012500D01*
X146875000Y-85012500D01*
X146899504Y-85013704D01*
X146899504Y-85013704D01*
G37*
D17*
G04 #@! TD*
G04 #@! TO.P,R5,2*
G04 #@! TO.N,/LED*
X146250000Y-85725000D03*
D21*
G04 #@! TO.P,J2,1*
G04 #@! TO.N,GND*
X138500000Y-79000000D03*
D22*
G04 #@! TO.P,J2,2*
G04 #@! TO.N,/TXD*
X141040000Y-79000000D03*
G04 #@! TO.P,J2,3*
G04 #@! TO.N,/RXD*
X143580000Y-79000000D03*
G04 #@! TD*
D21*
G04 #@! TO.P,J3,1*
G04 #@! TO.N,/ADC_REF*
X156250000Y-115250000D03*
G04 #@! TD*
D23*
G04 #@! TO.N,GND*
X136500000Y-95250000D03*
X157000000Y-90250000D03*
G04 #@! TO.N,+3V3*
X149250000Y-96250000D03*
X138750000Y-96250000D03*
X139500000Y-107620001D03*
X144500000Y-89000000D03*
G04 #@! TO.N,/RSSI*
X158000000Y-120750000D03*
G04 #@! TO.N,+5V*
X170750000Y-89250000D03*
G04 #@! TO.N,/SPI_CS*
X170000000Y-95500000D03*
X151250000Y-95500000D03*
G04 #@! TO.N,/ANALOG_RSSI*
X146250000Y-113250000D03*
G04 #@! TO.N,/ANALOG_BAT*
X147500000Y-108000000D03*
G04 #@! TO.N,/WEB_UPDATE*
X149000000Y-115250000D03*
G04 #@! TO.N,/EN*
X137750000Y-115500000D03*
G04 #@! TO.N,/IO0*
X153750000Y-89750000D03*
X151500000Y-83750000D03*
G04 #@! TO.N,/RXD*
X142500000Y-88750000D03*
G04 #@! TO.N,Net-(R4-Pad2)*
X160750000Y-96750000D03*
G04 #@! TD*
D24*
G04 #@! TO.N,+3V3*
X149250000Y-96250000D02*
X138750000Y-96250000D01*
X138620000Y-108500001D02*
X139500000Y-107620001D01*
X138620000Y-110250000D02*
X138620000Y-108500001D01*
X140000000Y-85725000D02*
X143250000Y-85725000D01*
X143250000Y-85725000D02*
X144500000Y-86975000D01*
X144500000Y-86975000D02*
X144500000Y-89000000D01*
D25*
G04 #@! TO.N,/RSSI*
X168210000Y-94190000D02*
X168250000Y-94230000D01*
X168210000Y-92190000D02*
X168210000Y-94190000D01*
X168250000Y-94230000D02*
X168250000Y-119000000D01*
X168250000Y-119000000D02*
X166500000Y-120750000D01*
X166500000Y-120750000D02*
X158000000Y-120750000D01*
D24*
G04 #@! TO.N,+5V*
X170750000Y-89250000D02*
X170750000Y-92440000D01*
D25*
G04 #@! TO.N,/SPI_DATA*
X147510000Y-88740000D02*
X147510000Y-92250000D01*
X149250000Y-87000000D02*
X147510000Y-88740000D01*
X156000000Y-87000000D02*
X149250000Y-87000000D01*
X157000000Y-86000000D02*
X156000000Y-87000000D01*
X179750000Y-86000000D02*
X157000000Y-86000000D01*
X180910000Y-92190000D02*
X180910000Y-91240000D01*
X180910000Y-91240000D02*
X180750000Y-91080000D01*
X180750000Y-91080000D02*
X180750000Y-87000000D01*
X180750000Y-87000000D02*
X179750000Y-86000000D01*
G04 #@! TO.N,/SPI_CS*
X178370000Y-94190000D02*
X177060000Y-95500000D01*
X178370000Y-92190000D02*
X178370000Y-94190000D01*
X177060000Y-95500000D02*
X170000000Y-95500000D01*
X151250000Y-92320000D02*
X151320000Y-92250000D01*
X151250000Y-95500000D02*
X151250000Y-92320000D01*
G04 #@! TO.N,/SPI_CLK*
X175830000Y-92190000D02*
X175830000Y-91240000D01*
X150050000Y-89450000D02*
X150050000Y-92250000D01*
X156250000Y-88000000D02*
X151500000Y-88000000D01*
X175830000Y-92190000D02*
X175830000Y-87830000D01*
X175830000Y-87830000D02*
X175250000Y-87250000D01*
X175250000Y-87250000D02*
X157000000Y-87250000D01*
X151500000Y-88000000D02*
X150050000Y-89450000D01*
X157000000Y-87250000D02*
X156250000Y-88000000D01*
G04 #@! TO.N,/LED*
X146240000Y-92250000D02*
X146240000Y-89010000D01*
X146250000Y-89000000D02*
X146250000Y-85725000D01*
X146240000Y-89010000D02*
X146250000Y-89000000D01*
G04 #@! TO.N,/ANALOG_RSSI*
X146240000Y-111750000D02*
X146250000Y-111760000D01*
X146240000Y-110250000D02*
X146240000Y-111750000D01*
X146250000Y-111760000D02*
X146250000Y-113250000D01*
G04 #@! TO.N,/ANALOG_BAT*
X147510000Y-108750000D02*
X147500000Y-108740000D01*
X147510000Y-110250000D02*
X147510000Y-108750000D01*
X147500000Y-108740000D02*
X147500000Y-108000000D01*
G04 #@! TO.N,/WEB_UPDATE*
X146450000Y-115200000D02*
X147450000Y-115200000D01*
X143700000Y-112450000D02*
X146450000Y-115200000D01*
X143700000Y-110250000D02*
X143700000Y-112450000D01*
X148950000Y-115200000D02*
X149000000Y-115250000D01*
X147450000Y-115200000D02*
X148950000Y-115200000D01*
X149050000Y-115200000D02*
X149000000Y-115250000D01*
X151550000Y-115200000D02*
X149050000Y-115200000D01*
G04 #@! TO.N,/EN*
X139950000Y-110310000D02*
X139890000Y-110250000D01*
X139950000Y-115400000D02*
X139950000Y-110310000D01*
X144050000Y-115400000D02*
X143300000Y-115400000D01*
X141500000Y-115400000D02*
X139950000Y-115400000D01*
X141500000Y-115500000D02*
X141500000Y-115400000D01*
X143300000Y-115400000D02*
X141500000Y-115400000D01*
X137850000Y-115400000D02*
X137750000Y-115500000D01*
X139950000Y-115400000D02*
X137850000Y-115400000D01*
G04 #@! TO.N,/IO0*
X150250000Y-82400000D02*
X150250000Y-85750000D01*
X150250000Y-81650000D02*
X150250000Y-82400000D01*
X153860000Y-92250000D02*
X153860000Y-89860000D01*
X153860000Y-89860000D02*
X153750000Y-89750000D01*
X150250000Y-82500000D02*
X151500000Y-83750000D01*
X150250000Y-81650000D02*
X150250000Y-82500000D01*
G04 #@! TO.N,Net-(R13-Pad2)*
X141160000Y-89910000D02*
X140000000Y-88750000D01*
X141160000Y-92250000D02*
X141160000Y-89910000D01*
X140000000Y-88750000D02*
X137750000Y-88750000D01*
X137000000Y-88000000D02*
X137000000Y-85750000D01*
X137750000Y-88750000D02*
X137000000Y-88000000D01*
G04 #@! TO.N,/TXD*
X141040000Y-79000000D02*
X141040000Y-80210000D01*
X141040000Y-80210000D02*
X140250000Y-81000000D01*
X140250000Y-81000000D02*
X137750000Y-81000000D01*
X137750000Y-81000000D02*
X137000000Y-81750000D01*
X137000000Y-81750000D02*
X137000000Y-82775000D01*
G04 #@! TO.N,/RXD*
X142430000Y-88820000D02*
X142500000Y-88750000D01*
X142430000Y-92250000D02*
X142430000Y-88820000D01*
G04 #@! TO.N,Net-(D1-Pad1)*
X148250000Y-80000000D02*
X148275000Y-79975000D01*
X140000000Y-82750000D02*
X142000000Y-80750000D01*
X148275000Y-79975000D02*
X148275000Y-79000000D01*
X142000000Y-80750000D02*
X147250000Y-80750000D01*
X148000000Y-80000000D02*
X148250000Y-80000000D01*
X147250000Y-80750000D02*
X148000000Y-80000000D01*
G04 #@! TO.N,Net-(R4-Pad2)*
X155350000Y-95535000D02*
X159535000Y-95535000D01*
X159535000Y-95535000D02*
X160750000Y-96750000D01*
G04 #@! TO.N,Net-(D5-Pad1)*
X143250000Y-82750000D02*
X146250000Y-82750000D01*
G04 #@! TO.N,/ADC_REF*
X154820000Y-115250000D02*
X155400000Y-115250000D01*
X155400000Y-115250000D02*
X156500000Y-115250000D01*
X151320000Y-111750000D02*
X154820000Y-115250000D01*
X151320000Y-110250000D02*
X151320000Y-111750000D01*
G04 #@! TD*
D26*
G04 #@! TO.N,GND*
G36*
X183102301Y-125502300D02*
X135397700Y-125502300D01*
X135397700Y-125070714D01*
X138530000Y-125070714D01*
X138530000Y-119929285D01*
X135627000Y-119929285D01*
X135627000Y-117285750D01*
X138815000Y-117285750D01*
X138815000Y-117576309D01*
X138911673Y-117809698D01*
X139090301Y-117988327D01*
X139323690Y-118085000D01*
X139664250Y-118085000D01*
X139823000Y-117926250D01*
X139823000Y-117127000D01*
X140077000Y-117127000D01*
X140077000Y-117926250D01*
X140235750Y-118085000D01*
X140576310Y-118085000D01*
X140809699Y-117988327D01*
X140988327Y-117809698D01*
X141085000Y-117576309D01*
X141085000Y-117285750D01*
X142915000Y-117285750D01*
X142915000Y-117576309D01*
X143011673Y-117809698D01*
X143190301Y-117988327D01*
X143423690Y-118085000D01*
X143764250Y-118085000D01*
X143923000Y-117926250D01*
X143923000Y-117127000D01*
X144177000Y-117127000D01*
X144177000Y-117926250D01*
X144335750Y-118085000D01*
X144676310Y-118085000D01*
X144909699Y-117988327D01*
X145088327Y-117809698D01*
X145185000Y-117576309D01*
X145185000Y-117285750D01*
X145026250Y-117127000D01*
X144177000Y-117127000D01*
X143923000Y-117127000D01*
X143073750Y-117127000D01*
X142915000Y-117285750D01*
X141085000Y-117285750D01*
X140926250Y-117127000D01*
X140077000Y-117127000D01*
X139823000Y-117127000D01*
X138973750Y-117127000D01*
X138815000Y-117285750D01*
X135627000Y-117285750D01*
X135627000Y-117085750D01*
X146315000Y-117085750D01*
X146315000Y-117376309D01*
X146411673Y-117609698D01*
X146590301Y-117788327D01*
X146823690Y-117885000D01*
X147164250Y-117885000D01*
X147323000Y-117726250D01*
X147323000Y-116927000D01*
X147577000Y-116927000D01*
X147577000Y-117726250D01*
X147735750Y-117885000D01*
X148076310Y-117885000D01*
X148309699Y-117788327D01*
X148488327Y-117609698D01*
X148585000Y-117376309D01*
X148585000Y-117085750D01*
X150415000Y-117085750D01*
X150415000Y-117376309D01*
X150511673Y-117609698D01*
X150690301Y-117788327D01*
X150923690Y-117885000D01*
X151264250Y-117885000D01*
X151423000Y-117726250D01*
X151423000Y-116927000D01*
X151677000Y-116927000D01*
X151677000Y-117726250D01*
X151835750Y-117885000D01*
X152176310Y-117885000D01*
X152409699Y-117788327D01*
X152588327Y-117609698D01*
X152685000Y-117376309D01*
X152685000Y-117085750D01*
X152526250Y-116927000D01*
X151677000Y-116927000D01*
X151423000Y-116927000D01*
X150573750Y-116927000D01*
X150415000Y-117085750D01*
X148585000Y-117085750D01*
X148426250Y-116927000D01*
X147577000Y-116927000D01*
X147323000Y-116927000D01*
X146473750Y-116927000D01*
X146315000Y-117085750D01*
X135627000Y-117085750D01*
X135627000Y-115294126D01*
X136715000Y-115294126D01*
X136715000Y-115705874D01*
X136872569Y-116086280D01*
X137163720Y-116377431D01*
X137544126Y-116535000D01*
X137955874Y-116535000D01*
X138336280Y-116377431D01*
X138553711Y-116160000D01*
X138893427Y-116160000D01*
X138912873Y-116189102D01*
X138911673Y-116190302D01*
X138815000Y-116423691D01*
X138815000Y-116714250D01*
X138973750Y-116873000D01*
X139823000Y-116873000D01*
X139823000Y-116853000D01*
X140077000Y-116853000D01*
X140077000Y-116873000D01*
X140926250Y-116873000D01*
X141085000Y-116714250D01*
X141085000Y-116423691D01*
X140988327Y-116190302D01*
X140987127Y-116189102D01*
X141006573Y-116160000D01*
X141119797Y-116160000D01*
X141203463Y-116215904D01*
X141500000Y-116274889D01*
X141796536Y-116215904D01*
X141880202Y-116160000D01*
X142993427Y-116160000D01*
X143012873Y-116189102D01*
X143011673Y-116190302D01*
X142915000Y-116423691D01*
X142915000Y-116714250D01*
X143073750Y-116873000D01*
X143923000Y-116873000D01*
X143923000Y-116853000D01*
X144177000Y-116853000D01*
X144177000Y-116873000D01*
X145026250Y-116873000D01*
X145185000Y-116714250D01*
X145185000Y-116423691D01*
X145088327Y-116190302D01*
X145087127Y-116189102D01*
X145148157Y-116097765D01*
X145197440Y-115850000D01*
X145197440Y-115022242D01*
X145859673Y-115684476D01*
X145902071Y-115747929D01*
X145965524Y-115790327D01*
X145965526Y-115790329D01*
X146034297Y-115836280D01*
X146153463Y-115915904D01*
X146375148Y-115960000D01*
X146375152Y-115960000D01*
X146396229Y-115964192D01*
X146412873Y-115989102D01*
X146411673Y-115990302D01*
X146315000Y-116223691D01*
X146315000Y-116514250D01*
X146473750Y-116673000D01*
X147323000Y-116673000D01*
X147323000Y-116653000D01*
X147577000Y-116653000D01*
X147577000Y-116673000D01*
X148426250Y-116673000D01*
X148585000Y-116514250D01*
X148585000Y-116223691D01*
X148572343Y-116193135D01*
X148794126Y-116285000D01*
X149205874Y-116285000D01*
X149586280Y-116127431D01*
X149753711Y-115960000D01*
X150493427Y-115960000D01*
X150512873Y-115989102D01*
X150511673Y-115990302D01*
X150415000Y-116223691D01*
X150415000Y-116514250D01*
X150573750Y-116673000D01*
X151423000Y-116673000D01*
X151423000Y-116653000D01*
X151677000Y-116653000D01*
X151677000Y-116673000D01*
X152526250Y-116673000D01*
X152685000Y-116514250D01*
X152685000Y-116223691D01*
X152588327Y-115990302D01*
X152587127Y-115989102D01*
X152648157Y-115897765D01*
X152697440Y-115650000D01*
X152697440Y-114750000D01*
X152648157Y-114502235D01*
X152507809Y-114292191D01*
X152297765Y-114151843D01*
X152050000Y-114102560D01*
X151050000Y-114102560D01*
X150802235Y-114151843D01*
X150592191Y-114292191D01*
X150493427Y-114440000D01*
X149653711Y-114440000D01*
X149586280Y-114372569D01*
X149205874Y-114215000D01*
X148794126Y-114215000D01*
X148451155Y-114357063D01*
X148407809Y-114292191D01*
X148197765Y-114151843D01*
X147950000Y-114102560D01*
X146950000Y-114102560D01*
X146839090Y-114124621D01*
X147127431Y-113836280D01*
X147285000Y-113455874D01*
X147285000Y-113044126D01*
X147127431Y-112663720D01*
X147010000Y-112546289D01*
X147010000Y-112020828D01*
X147086654Y-112072047D01*
X147510000Y-112156256D01*
X147933345Y-112072047D01*
X148145000Y-111930624D01*
X148356654Y-112072047D01*
X148780000Y-112156256D01*
X149203345Y-112072047D01*
X149415000Y-111930624D01*
X149626654Y-112072047D01*
X150050000Y-112156256D01*
X150473345Y-112072047D01*
X150593237Y-111991938D01*
X150604097Y-112046537D01*
X150716661Y-112215000D01*
X150772072Y-112297929D01*
X150835528Y-112340329D01*
X154229673Y-115734476D01*
X154272071Y-115797929D01*
X154335524Y-115840327D01*
X154335526Y-115840329D01*
X154401593Y-115884473D01*
X154523463Y-115965904D01*
X154745148Y-116010000D01*
X154745152Y-116010000D01*
X154752560Y-116011474D01*
X154752560Y-116100000D01*
X154801843Y-116347765D01*
X154942191Y-116557809D01*
X155152235Y-116698157D01*
X155400000Y-116747440D01*
X157100000Y-116747440D01*
X157347765Y-116698157D01*
X157557809Y-116557809D01*
X157698157Y-116347765D01*
X157747440Y-116100000D01*
X157747440Y-114400000D01*
X157698157Y-114152235D01*
X157557809Y-113942191D01*
X157347765Y-113801843D01*
X157100000Y-113752560D01*
X155400000Y-113752560D01*
X155152235Y-113801843D01*
X154942191Y-113942191D01*
X154801843Y-114152235D01*
X154801046Y-114156243D01*
X152766041Y-112121239D01*
X153013345Y-112072047D01*
X153225000Y-111930624D01*
X153436654Y-112072047D01*
X153860000Y-112156256D01*
X154283345Y-112072047D01*
X154642241Y-111832241D01*
X154882047Y-111473346D01*
X154945000Y-111156861D01*
X154945000Y-109343139D01*
X154882047Y-109026654D01*
X154642241Y-108667759D01*
X154283346Y-108427953D01*
X153860000Y-108343744D01*
X153436655Y-108427953D01*
X153225001Y-108569376D01*
X153013346Y-108427953D01*
X152590000Y-108343744D01*
X152166655Y-108427953D01*
X151955001Y-108569376D01*
X151743346Y-108427953D01*
X151320000Y-108343744D01*
X150896655Y-108427953D01*
X150685001Y-108569376D01*
X150473346Y-108427953D01*
X150050000Y-108343744D01*
X149626655Y-108427953D01*
X149415001Y-108569376D01*
X149203346Y-108427953D01*
X148780000Y-108343744D01*
X148450766Y-108409233D01*
X148535000Y-108205874D01*
X148535000Y-107794126D01*
X148377431Y-107413720D01*
X148222712Y-107259001D01*
X153505592Y-107259001D01*
X153692987Y-107642408D01*
X154017456Y-107918808D01*
X154423000Y-108050000D01*
X155223000Y-108050000D01*
X155223000Y-107092000D01*
X155477000Y-107092000D01*
X155477000Y-108050000D01*
X156277000Y-108050000D01*
X156682544Y-107918808D01*
X157007013Y-107642408D01*
X157194408Y-107259001D01*
X157067502Y-107092000D01*
X155477000Y-107092000D01*
X155223000Y-107092000D01*
X153632498Y-107092000D01*
X153505592Y-107259001D01*
X148222712Y-107259001D01*
X148086280Y-107122569D01*
X147705874Y-106965000D01*
X147294126Y-106965000D01*
X146913720Y-107122569D01*
X146622569Y-107413720D01*
X146465000Y-107794126D01*
X146465000Y-108205874D01*
X146547438Y-108404897D01*
X146240000Y-108343744D01*
X145816655Y-108427953D01*
X145605001Y-108569376D01*
X145393346Y-108427953D01*
X144970000Y-108343744D01*
X144546655Y-108427953D01*
X144335001Y-108569376D01*
X144123346Y-108427953D01*
X143700000Y-108343744D01*
X143276655Y-108427953D01*
X143065001Y-108569376D01*
X142853346Y-108427953D01*
X142430000Y-108343744D01*
X142006655Y-108427953D01*
X141795001Y-108569376D01*
X141583346Y-108427953D01*
X141160000Y-108343744D01*
X140736655Y-108427953D01*
X140525001Y-108569376D01*
X140313346Y-108427953D01*
X140181904Y-108401808D01*
X140377431Y-108206281D01*
X140535000Y-107825875D01*
X140535000Y-107414127D01*
X140377431Y-107033721D01*
X140086280Y-106742570D01*
X139705874Y-106585001D01*
X139294126Y-106585001D01*
X138913720Y-106742570D01*
X138622569Y-107033721D01*
X138472569Y-107395855D01*
X138055846Y-107812578D01*
X137981952Y-107861952D01*
X137932577Y-107935847D01*
X137786350Y-108154692D01*
X137728251Y-108446770D01*
X137644001Y-108405592D01*
X137477000Y-108532498D01*
X137477000Y-110123000D01*
X137497000Y-110123000D01*
X137497000Y-110377000D01*
X137477000Y-110377000D01*
X137477000Y-111967502D01*
X137644001Y-112094408D01*
X137982507Y-111928959D01*
X138196654Y-112072047D01*
X138620000Y-112156256D01*
X139043345Y-112072047D01*
X139190001Y-111974055D01*
X139190000Y-114360018D01*
X138992191Y-114492191D01*
X138893427Y-114640000D01*
X138353711Y-114640000D01*
X138336280Y-114622569D01*
X137955874Y-114465000D01*
X137544126Y-114465000D01*
X137163720Y-114622569D01*
X136872569Y-114913720D01*
X136715000Y-115294126D01*
X135627000Y-115294126D01*
X135627000Y-110377000D01*
X136265000Y-110377000D01*
X136265000Y-111177000D01*
X136396192Y-111582544D01*
X136672592Y-111907013D01*
X137055999Y-112094408D01*
X137223000Y-111967502D01*
X137223000Y-110377000D01*
X136265000Y-110377000D01*
X135627000Y-110377000D01*
X135627000Y-109323000D01*
X136265000Y-109323000D01*
X136265000Y-110123000D01*
X137223000Y-110123000D01*
X137223000Y-108532498D01*
X137055999Y-108405592D01*
X136672592Y-108592987D01*
X136396192Y-108917456D01*
X136265000Y-109323000D01*
X135627000Y-109323000D01*
X135627000Y-98550000D01*
X141402560Y-98550000D01*
X141402560Y-104550000D01*
X141451843Y-104797765D01*
X141592191Y-105007809D01*
X141802235Y-105148157D01*
X142050000Y-105197440D01*
X148050000Y-105197440D01*
X148297765Y-105148157D01*
X148507809Y-105007809D01*
X148648157Y-104797765D01*
X148697440Y-104550000D01*
X148697440Y-98550000D01*
X148648157Y-98302235D01*
X148507809Y-98092191D01*
X148297765Y-97951843D01*
X148050000Y-97902560D01*
X142050000Y-97902560D01*
X141802235Y-97951843D01*
X141592191Y-98092191D01*
X141451843Y-98302235D01*
X141402560Y-98550000D01*
X135627000Y-98550000D01*
X135627000Y-96044126D01*
X137715000Y-96044126D01*
X137715000Y-96455874D01*
X137872569Y-96836280D01*
X138163720Y-97127431D01*
X138544126Y-97285000D01*
X138955874Y-97285000D01*
X139318009Y-97134999D01*
X148681991Y-97134999D01*
X149044126Y-97285000D01*
X149455874Y-97285000D01*
X149836280Y-97127431D01*
X150127431Y-96836280D01*
X150285000Y-96455874D01*
X150285000Y-96044126D01*
X150127431Y-95663720D01*
X149836280Y-95372569D01*
X149455874Y-95215000D01*
X149044126Y-95215000D01*
X148681991Y-95365001D01*
X139318009Y-95365001D01*
X138955874Y-95215000D01*
X138544126Y-95215000D01*
X138163720Y-95372569D01*
X137872569Y-95663720D01*
X137715000Y-96044126D01*
X135627000Y-96044126D01*
X135627000Y-92377000D01*
X136265000Y-92377000D01*
X136265000Y-93177000D01*
X136396192Y-93582544D01*
X136672592Y-93907013D01*
X137055999Y-94094408D01*
X137223000Y-93967502D01*
X137223000Y-92377000D01*
X136265000Y-92377000D01*
X135627000Y-92377000D01*
X135627000Y-91323000D01*
X136265000Y-91323000D01*
X136265000Y-92123000D01*
X137223000Y-92123000D01*
X137223000Y-90532498D01*
X137055999Y-90405592D01*
X136672592Y-90592987D01*
X136396192Y-90917456D01*
X136265000Y-91323000D01*
X135627000Y-91323000D01*
X135627000Y-86677349D01*
X135740414Y-86847086D01*
X136031565Y-87041626D01*
X136240000Y-87083087D01*
X136240000Y-87925153D01*
X136225112Y-88000000D01*
X136240000Y-88074847D01*
X136240000Y-88074851D01*
X136284096Y-88296536D01*
X136452071Y-88547929D01*
X136515530Y-88590331D01*
X137159670Y-89234472D01*
X137202071Y-89297929D01*
X137453463Y-89465904D01*
X137675148Y-89510000D01*
X137675152Y-89510000D01*
X137749999Y-89524888D01*
X137824846Y-89510000D01*
X139685199Y-89510000D01*
X140400001Y-90224803D01*
X140400001Y-90485854D01*
X140313346Y-90427953D01*
X139890000Y-90343744D01*
X139466655Y-90427953D01*
X139255001Y-90569376D01*
X139043346Y-90427953D01*
X138620000Y-90343744D01*
X138196655Y-90427953D01*
X137982508Y-90571042D01*
X137644001Y-90405592D01*
X137477000Y-90532498D01*
X137477000Y-92123000D01*
X137497000Y-92123000D01*
X137497000Y-92377000D01*
X137477000Y-92377000D01*
X137477000Y-93967502D01*
X137644001Y-94094408D01*
X137982507Y-93928959D01*
X138196654Y-94072047D01*
X138620000Y-94156256D01*
X139043345Y-94072047D01*
X139255000Y-93930624D01*
X139466654Y-94072047D01*
X139890000Y-94156256D01*
X140313345Y-94072047D01*
X140525000Y-93930624D01*
X140736654Y-94072047D01*
X141160000Y-94156256D01*
X141583345Y-94072047D01*
X141795000Y-93930624D01*
X142006654Y-94072047D01*
X142430000Y-94156256D01*
X142853345Y-94072047D01*
X143065000Y-93930624D01*
X143276654Y-94072047D01*
X143700000Y-94156256D01*
X144123345Y-94072047D01*
X144335000Y-93930624D01*
X144546654Y-94072047D01*
X144970000Y-94156256D01*
X145393345Y-94072047D01*
X145605000Y-93930624D01*
X145816654Y-94072047D01*
X146240000Y-94156256D01*
X146663345Y-94072047D01*
X146875000Y-93930624D01*
X147086654Y-94072047D01*
X147510000Y-94156256D01*
X147933345Y-94072047D01*
X148145000Y-93930624D01*
X148356654Y-94072047D01*
X148780000Y-94156256D01*
X149203345Y-94072047D01*
X149415000Y-93930624D01*
X149626654Y-94072047D01*
X150050000Y-94156256D01*
X150473345Y-94072047D01*
X150490000Y-94060918D01*
X150490000Y-94796289D01*
X150372569Y-94913720D01*
X150215000Y-95294126D01*
X150215000Y-95705874D01*
X150372569Y-96086280D01*
X150663720Y-96377431D01*
X151044126Y-96535000D01*
X151455874Y-96535000D01*
X151836280Y-96377431D01*
X152127431Y-96086280D01*
X152285000Y-95705874D01*
X152285000Y-95535000D01*
X153443744Y-95535000D01*
X153527953Y-95958346D01*
X153669376Y-96170000D01*
X153527953Y-96381654D01*
X153443744Y-96805000D01*
X153527953Y-97228346D01*
X153669376Y-97440000D01*
X153527953Y-97651654D01*
X153443744Y-98075000D01*
X153527953Y-98498346D01*
X153669376Y-98710000D01*
X153527953Y-98921654D01*
X153443744Y-99345000D01*
X153527953Y-99768346D01*
X153669376Y-99980000D01*
X153527953Y-100191654D01*
X153443744Y-100615000D01*
X153527953Y-101038346D01*
X153669376Y-101250000D01*
X153527953Y-101461654D01*
X153443744Y-101885000D01*
X153527953Y-102308346D01*
X153669376Y-102520000D01*
X153527953Y-102731654D01*
X153443744Y-103155000D01*
X153527953Y-103578346D01*
X153669376Y-103790000D01*
X153527953Y-104001654D01*
X153443744Y-104425000D01*
X153527953Y-104848346D01*
X153669376Y-105060000D01*
X153527953Y-105271654D01*
X153443744Y-105695000D01*
X153527953Y-106118346D01*
X153671041Y-106332493D01*
X153505592Y-106670999D01*
X153632498Y-106838000D01*
X155223000Y-106838000D01*
X155223000Y-106818000D01*
X155477000Y-106818000D01*
X155477000Y-106838000D01*
X157067502Y-106838000D01*
X157194408Y-106670999D01*
X157028959Y-106332493D01*
X157172047Y-106118346D01*
X157256256Y-105695000D01*
X157172047Y-105271654D01*
X157030624Y-105060000D01*
X157172047Y-104848346D01*
X157256256Y-104425000D01*
X157172047Y-104001654D01*
X157030624Y-103790000D01*
X157172047Y-103578346D01*
X157256256Y-103155000D01*
X157172047Y-102731654D01*
X157030624Y-102520000D01*
X157172047Y-102308346D01*
X157256256Y-101885000D01*
X157172047Y-101461654D01*
X157030624Y-101250000D01*
X157172047Y-101038346D01*
X157256256Y-100615000D01*
X157172047Y-100191654D01*
X157030624Y-99980000D01*
X157172047Y-99768346D01*
X157256256Y-99345000D01*
X157172047Y-98921654D01*
X157030624Y-98710000D01*
X157172047Y-98498346D01*
X157256256Y-98075000D01*
X157172047Y-97651654D01*
X157030624Y-97440000D01*
X157172047Y-97228346D01*
X157256256Y-96805000D01*
X157172047Y-96381654D01*
X157114147Y-96295000D01*
X159220199Y-96295000D01*
X159715000Y-96789802D01*
X159715000Y-96955874D01*
X159872569Y-97336280D01*
X160163720Y-97627431D01*
X160544126Y-97785000D01*
X160955874Y-97785000D01*
X161336280Y-97627431D01*
X161627431Y-97336280D01*
X161785000Y-96955874D01*
X161785000Y-96544126D01*
X161627431Y-96163720D01*
X161336280Y-95872569D01*
X160955874Y-95715000D01*
X160789802Y-95715000D01*
X160125331Y-95050530D01*
X160082929Y-94987071D01*
X159831537Y-94819096D01*
X159609852Y-94775000D01*
X159609847Y-94775000D01*
X159535000Y-94760112D01*
X159460153Y-94775000D01*
X156947102Y-94775000D01*
X156932241Y-94752759D01*
X156573346Y-94512953D01*
X156256861Y-94450000D01*
X154443139Y-94450000D01*
X154126654Y-94512953D01*
X153767759Y-94752759D01*
X153527953Y-95111654D01*
X153443744Y-95535000D01*
X152285000Y-95535000D01*
X152285000Y-95294126D01*
X152127431Y-94913720D01*
X152010000Y-94796289D01*
X152010000Y-93967374D01*
X152166654Y-94072047D01*
X152590000Y-94156256D01*
X153013345Y-94072047D01*
X153225000Y-93930624D01*
X153436654Y-94072047D01*
X153860000Y-94156256D01*
X154283345Y-94072047D01*
X154642241Y-93832241D01*
X154882047Y-93473346D01*
X154945000Y-93156861D01*
X154945000Y-92317000D01*
X159155000Y-92317000D01*
X159155000Y-93267000D01*
X159312834Y-93806483D01*
X159665104Y-94244500D01*
X160158181Y-94514367D01*
X160240961Y-94531904D01*
X160463000Y-94409915D01*
X160463000Y-92317000D01*
X159155000Y-92317000D01*
X154945000Y-92317000D01*
X154945000Y-91343139D01*
X154899223Y-91113000D01*
X159155000Y-91113000D01*
X159155000Y-92063000D01*
X160463000Y-92063000D01*
X160463000Y-89970085D01*
X160240961Y-89848096D01*
X160158181Y-89865633D01*
X159665104Y-90135500D01*
X159312834Y-90573517D01*
X159155000Y-91113000D01*
X154899223Y-91113000D01*
X154882047Y-91026654D01*
X154642241Y-90667759D01*
X154620000Y-90652898D01*
X154620000Y-90343711D01*
X154627431Y-90336280D01*
X154785000Y-89955874D01*
X154785000Y-89544126D01*
X154627431Y-89163720D01*
X154336280Y-88872569D01*
X154064514Y-88760000D01*
X156175153Y-88760000D01*
X156250000Y-88774888D01*
X156324847Y-88760000D01*
X156324852Y-88760000D01*
X156546537Y-88715904D01*
X156797929Y-88547929D01*
X156840331Y-88484470D01*
X157314802Y-88010000D01*
X174935199Y-88010000D01*
X175070001Y-88144803D01*
X175070000Y-90021957D01*
X174795423Y-90205424D01*
X174557501Y-90561499D01*
X174214896Y-90135500D01*
X173721819Y-89865633D01*
X173639039Y-89848096D01*
X173417000Y-89970085D01*
X173417000Y-92063000D01*
X173437000Y-92063000D01*
X173437000Y-92317000D01*
X173417000Y-92317000D01*
X173417000Y-94409915D01*
X173639039Y-94531904D01*
X173721819Y-94514367D01*
X174214896Y-94244500D01*
X174557501Y-93818500D01*
X174795424Y-94174577D01*
X175270092Y-94491740D01*
X175830000Y-94603113D01*
X176389909Y-94491740D01*
X176864577Y-94174577D01*
X177100001Y-93822241D01*
X177325489Y-94159709D01*
X176745199Y-94740000D01*
X170703711Y-94740000D01*
X170586280Y-94622569D01*
X170344654Y-94522484D01*
X170750000Y-94603113D01*
X171309909Y-94491740D01*
X171784577Y-94174577D01*
X172022499Y-93818501D01*
X172365104Y-94244500D01*
X172858181Y-94514367D01*
X172940961Y-94531904D01*
X173163000Y-94409915D01*
X173163000Y-92317000D01*
X173143000Y-92317000D01*
X173143000Y-92063000D01*
X173163000Y-92063000D01*
X173163000Y-89970085D01*
X172940961Y-89848096D01*
X172858181Y-89865633D01*
X172365104Y-90135500D01*
X172022499Y-90561499D01*
X171784576Y-90205423D01*
X171634999Y-90105479D01*
X171634999Y-89818009D01*
X171785000Y-89455874D01*
X171785000Y-89044126D01*
X171627431Y-88663720D01*
X171336280Y-88372569D01*
X170955874Y-88215000D01*
X170544126Y-88215000D01*
X170163720Y-88372569D01*
X169872569Y-88663720D01*
X169715000Y-89044126D01*
X169715000Y-89455874D01*
X169865001Y-89818010D01*
X169865001Y-90105479D01*
X169715423Y-90205424D01*
X169480000Y-90557759D01*
X169244576Y-90205423D01*
X168769908Y-89888260D01*
X168210000Y-89776887D01*
X167650091Y-89888260D01*
X167175423Y-90205424D01*
X166940000Y-90557759D01*
X166704576Y-90205423D01*
X166229908Y-89888260D01*
X165670000Y-89776887D01*
X165110091Y-89888260D01*
X164635423Y-90205424D01*
X164400000Y-90557759D01*
X164164576Y-90205423D01*
X163689908Y-89888260D01*
X163130000Y-89776887D01*
X162570091Y-89888260D01*
X162095423Y-90205424D01*
X161857501Y-90561499D01*
X161514896Y-90135500D01*
X161021819Y-89865633D01*
X160939039Y-89848096D01*
X160717000Y-89970085D01*
X160717000Y-92063000D01*
X160737000Y-92063000D01*
X160737000Y-92317000D01*
X160717000Y-92317000D01*
X160717000Y-94409915D01*
X160939039Y-94531904D01*
X161021819Y-94514367D01*
X161514896Y-94244500D01*
X161857501Y-93818500D01*
X162095424Y-94174577D01*
X162570092Y-94491740D01*
X163130000Y-94603113D01*
X163689909Y-94491740D01*
X164164577Y-94174577D01*
X164400001Y-93822241D01*
X164635424Y-94174577D01*
X165110092Y-94491740D01*
X165670000Y-94603113D01*
X166229909Y-94491740D01*
X166704577Y-94174577D01*
X166940001Y-93822241D01*
X167175424Y-94174577D01*
X167471379Y-94372328D01*
X167490000Y-94465940D01*
X167490001Y-118685197D01*
X166185199Y-119990000D01*
X158703711Y-119990000D01*
X158586280Y-119872569D01*
X158205874Y-119715000D01*
X157794126Y-119715000D01*
X157413720Y-119872569D01*
X157122569Y-120163720D01*
X156965000Y-120544126D01*
X156965000Y-120955874D01*
X157122569Y-121336280D01*
X157413720Y-121627431D01*
X157794126Y-121785000D01*
X158205874Y-121785000D01*
X158586280Y-121627431D01*
X158703711Y-121510000D01*
X166425153Y-121510000D01*
X166500000Y-121524888D01*
X166574847Y-121510000D01*
X166574852Y-121510000D01*
X166796537Y-121465904D01*
X167047929Y-121297929D01*
X167090331Y-121234470D01*
X167207801Y-121117000D01*
X174395000Y-121117000D01*
X174395000Y-122067000D01*
X174552834Y-122606483D01*
X174905104Y-123044500D01*
X175398181Y-123314367D01*
X175480961Y-123331904D01*
X175703000Y-123209915D01*
X175703000Y-121117000D01*
X174395000Y-121117000D01*
X167207801Y-121117000D01*
X168411801Y-119913000D01*
X174395000Y-119913000D01*
X174395000Y-120863000D01*
X175703000Y-120863000D01*
X175703000Y-118770085D01*
X175957000Y-118770085D01*
X175957000Y-120863000D01*
X175977000Y-120863000D01*
X175977000Y-121117000D01*
X175957000Y-121117000D01*
X175957000Y-123209915D01*
X176179039Y-123331904D01*
X176261819Y-123314367D01*
X176754896Y-123044500D01*
X177097501Y-122618500D01*
X177335424Y-122974577D01*
X177810092Y-123291740D01*
X178370000Y-123403113D01*
X178929909Y-123291740D01*
X179404577Y-122974577D01*
X179642499Y-122618501D01*
X179985104Y-123044500D01*
X180478181Y-123314367D01*
X180560961Y-123331904D01*
X180783000Y-123209915D01*
X180783000Y-121117000D01*
X181037000Y-121117000D01*
X181037000Y-123209915D01*
X181259039Y-123331904D01*
X181341819Y-123314367D01*
X181834896Y-123044500D01*
X182187166Y-122606483D01*
X182345000Y-122067000D01*
X182345000Y-121117000D01*
X181037000Y-121117000D01*
X180783000Y-121117000D01*
X180763000Y-121117000D01*
X180763000Y-120863000D01*
X180783000Y-120863000D01*
X180783000Y-118770085D01*
X181037000Y-118770085D01*
X181037000Y-120863000D01*
X182345000Y-120863000D01*
X182345000Y-119913000D01*
X182187166Y-119373517D01*
X181834896Y-118935500D01*
X181341819Y-118665633D01*
X181259039Y-118648096D01*
X181037000Y-118770085D01*
X180783000Y-118770085D01*
X180560961Y-118648096D01*
X180478181Y-118665633D01*
X179985104Y-118935500D01*
X179642499Y-119361499D01*
X179404576Y-119005423D01*
X178929908Y-118688260D01*
X178370000Y-118576887D01*
X177810091Y-118688260D01*
X177335423Y-119005424D01*
X177097501Y-119361499D01*
X176754896Y-118935500D01*
X176261819Y-118665633D01*
X176179039Y-118648096D01*
X175957000Y-118770085D01*
X175703000Y-118770085D01*
X175480961Y-118648096D01*
X175398181Y-118665633D01*
X174905104Y-118935500D01*
X174552834Y-119373517D01*
X174395000Y-119913000D01*
X168411801Y-119913000D01*
X168734473Y-119590329D01*
X168797929Y-119547929D01*
X168914468Y-119373517D01*
X168965904Y-119296538D01*
X168975480Y-119248395D01*
X169010000Y-119074852D01*
X169010000Y-119074848D01*
X169024888Y-119000000D01*
X169010000Y-118925152D01*
X169010000Y-95814514D01*
X169122569Y-96086280D01*
X169413720Y-96377431D01*
X169794126Y-96535000D01*
X170205874Y-96535000D01*
X170586280Y-96377431D01*
X170703711Y-96260000D01*
X176985153Y-96260000D01*
X177060000Y-96274888D01*
X177134847Y-96260000D01*
X177134852Y-96260000D01*
X177356537Y-96215904D01*
X177607929Y-96047929D01*
X177650331Y-95984470D01*
X178854473Y-94780329D01*
X178917929Y-94737929D01*
X178995010Y-94622569D01*
X179085904Y-94486538D01*
X179101145Y-94409915D01*
X179108622Y-94372328D01*
X179404577Y-94174577D01*
X179640001Y-93822241D01*
X179875424Y-94174577D01*
X180350092Y-94491740D01*
X180910000Y-94603113D01*
X181469909Y-94491740D01*
X181944577Y-94174577D01*
X182261740Y-93699909D01*
X182345000Y-93281333D01*
X182345000Y-91098667D01*
X182261740Y-90680091D01*
X181944576Y-90205423D01*
X181510000Y-89915049D01*
X181510000Y-87074848D01*
X181524888Y-87000000D01*
X181510000Y-86925152D01*
X181510000Y-86925148D01*
X181465904Y-86703463D01*
X181297929Y-86452071D01*
X181234473Y-86409671D01*
X180340331Y-85515530D01*
X180297929Y-85452071D01*
X180046537Y-85284096D01*
X179824852Y-85240000D01*
X179824847Y-85240000D01*
X179750000Y-85225112D01*
X179675153Y-85240000D01*
X157074848Y-85240000D01*
X157000000Y-85225112D01*
X156925152Y-85240000D01*
X156925148Y-85240000D01*
X156703463Y-85284096D01*
X156452071Y-85452071D01*
X156409671Y-85515527D01*
X155685199Y-86240000D01*
X152935000Y-86240000D01*
X152935000Y-86035750D01*
X152776250Y-85877000D01*
X151977000Y-85877000D01*
X151977000Y-85897000D01*
X151723000Y-85897000D01*
X151723000Y-85877000D01*
X151703000Y-85877000D01*
X151703000Y-85623000D01*
X151723000Y-85623000D01*
X151723000Y-85603000D01*
X151977000Y-85603000D01*
X151977000Y-85623000D01*
X152776250Y-85623000D01*
X152935000Y-85464250D01*
X152935000Y-85123690D01*
X152838327Y-84890301D01*
X152659698Y-84711673D01*
X152426309Y-84615000D01*
X152135750Y-84615000D01*
X151977002Y-84773748D01*
X151977002Y-84672695D01*
X152086280Y-84627431D01*
X152377431Y-84336280D01*
X152535000Y-83955874D01*
X152535000Y-83544126D01*
X152377431Y-83163720D01*
X152086280Y-82872569D01*
X151874869Y-82785000D01*
X151977002Y-82785000D01*
X151977002Y-82626252D01*
X152135750Y-82785000D01*
X152426309Y-82785000D01*
X152659698Y-82688327D01*
X152838327Y-82509699D01*
X152898219Y-82365105D01*
X167405000Y-82365105D01*
X167405000Y-83134895D01*
X167699586Y-83846090D01*
X168243910Y-84390414D01*
X168955105Y-84685000D01*
X169724895Y-84685000D01*
X170436090Y-84390414D01*
X170707045Y-84119459D01*
X173230146Y-84119459D01*
X173365504Y-84417455D01*
X174083880Y-84694066D01*
X174853427Y-84674710D01*
X175474496Y-84417455D01*
X175609854Y-84119459D01*
X174420000Y-82929605D01*
X173230146Y-84119459D01*
X170707045Y-84119459D01*
X170980414Y-83846090D01*
X171275000Y-83134895D01*
X171275000Y-82413880D01*
X172475934Y-82413880D01*
X172495290Y-83183427D01*
X172752545Y-83804496D01*
X173050541Y-83939854D01*
X174240395Y-82750000D01*
X174599605Y-82750000D01*
X175789459Y-83939854D01*
X176087455Y-83804496D01*
X176364066Y-83086120D01*
X176344710Y-82316573D01*
X176087455Y-81695504D01*
X175789459Y-81560146D01*
X174599605Y-82750000D01*
X174240395Y-82750000D01*
X173050541Y-81560146D01*
X172752545Y-81695504D01*
X172475934Y-82413880D01*
X171275000Y-82413880D01*
X171275000Y-82365105D01*
X170980414Y-81653910D01*
X170707045Y-81380541D01*
X173230146Y-81380541D01*
X174420000Y-82570395D01*
X175540395Y-81450000D01*
X177552560Y-81450000D01*
X177552560Y-84050000D01*
X177601843Y-84297765D01*
X177742191Y-84507809D01*
X177952235Y-84648157D01*
X178200000Y-84697440D01*
X180800000Y-84697440D01*
X181047765Y-84648157D01*
X181257809Y-84507809D01*
X181398157Y-84297765D01*
X181447440Y-84050000D01*
X181447440Y-81450000D01*
X181398157Y-81202235D01*
X181257809Y-80992191D01*
X181047765Y-80851843D01*
X180800000Y-80802560D01*
X178200000Y-80802560D01*
X177952235Y-80851843D01*
X177742191Y-80992191D01*
X177601843Y-81202235D01*
X177552560Y-81450000D01*
X175540395Y-81450000D01*
X175609854Y-81380541D01*
X175474496Y-81082545D01*
X174756120Y-80805934D01*
X173986573Y-80825290D01*
X173365504Y-81082545D01*
X173230146Y-81380541D01*
X170707045Y-81380541D01*
X170436090Y-81109586D01*
X169724895Y-80815000D01*
X168955105Y-80815000D01*
X168243910Y-81109586D01*
X167699586Y-81653910D01*
X167405000Y-82365105D01*
X152898219Y-82365105D01*
X152935000Y-82276310D01*
X152935000Y-81935750D01*
X152776250Y-81777000D01*
X151977000Y-81777000D01*
X151977000Y-81797000D01*
X151723000Y-81797000D01*
X151723000Y-81777000D01*
X151703000Y-81777000D01*
X151703000Y-81523000D01*
X151723000Y-81523000D01*
X151723000Y-80673750D01*
X151977000Y-80673750D01*
X151977000Y-81523000D01*
X152776250Y-81523000D01*
X152935000Y-81364250D01*
X152935000Y-81023690D01*
X152838327Y-80790301D01*
X152659698Y-80611673D01*
X152426309Y-80515000D01*
X152135750Y-80515000D01*
X151977000Y-80673750D01*
X151723000Y-80673750D01*
X151564250Y-80515000D01*
X151273691Y-80515000D01*
X151040302Y-80611673D01*
X151039102Y-80612873D01*
X150947765Y-80551843D01*
X150737404Y-80510000D01*
X150964250Y-80510000D01*
X151123000Y-80351250D01*
X151123000Y-79127000D01*
X151377000Y-79127000D01*
X151377000Y-80351250D01*
X151535750Y-80510000D01*
X152088809Y-80510000D01*
X152322198Y-80413327D01*
X152500827Y-80234699D01*
X152597500Y-80001310D01*
X152597500Y-79285750D01*
X152438750Y-79127000D01*
X151377000Y-79127000D01*
X151123000Y-79127000D01*
X150061250Y-79127000D01*
X149902500Y-79285750D01*
X149902500Y-80001310D01*
X149999173Y-80234699D01*
X150177802Y-80413327D01*
X150393229Y-80502560D01*
X149800000Y-80502560D01*
X149552235Y-80551843D01*
X149342191Y-80692191D01*
X149201843Y-80902235D01*
X149152560Y-81150000D01*
X149152560Y-82150000D01*
X149201843Y-82397765D01*
X149342191Y-82607809D01*
X149490000Y-82706573D01*
X149490001Y-84693427D01*
X149342191Y-84792191D01*
X149201843Y-85002235D01*
X149152560Y-85250000D01*
X149152560Y-86244493D01*
X148953463Y-86284096D01*
X148702071Y-86452071D01*
X148659671Y-86515527D01*
X147025530Y-88149669D01*
X147010000Y-88160046D01*
X147010000Y-87058087D01*
X147218435Y-87016626D01*
X147509586Y-86822086D01*
X147704126Y-86530935D01*
X147772440Y-86187500D01*
X147772440Y-85262500D01*
X147704126Y-84919065D01*
X147509586Y-84627914D01*
X147218435Y-84433374D01*
X146875000Y-84365060D01*
X145625000Y-84365060D01*
X145281565Y-84433374D01*
X144990414Y-84627914D01*
X144795874Y-84919065D01*
X144750000Y-85149687D01*
X144704126Y-84919065D01*
X144509586Y-84627914D01*
X144218435Y-84433374D01*
X143875000Y-84365060D01*
X142625000Y-84365060D01*
X142281565Y-84433374D01*
X141990414Y-84627914D01*
X141848703Y-84840001D01*
X141401297Y-84840001D01*
X141259586Y-84627914D01*
X140968435Y-84433374D01*
X140625000Y-84365060D01*
X139375000Y-84365060D01*
X139031565Y-84433374D01*
X138740414Y-84627914D01*
X138545874Y-84919065D01*
X138497514Y-85162187D01*
X138454126Y-84944065D01*
X138259586Y-84652914D01*
X137968435Y-84458374D01*
X137625000Y-84390060D01*
X136375000Y-84390060D01*
X136031565Y-84458374D01*
X135740414Y-84652914D01*
X135627000Y-84822651D01*
X135627000Y-83702349D01*
X135740414Y-83872086D01*
X136031565Y-84066626D01*
X136375000Y-84134940D01*
X137625000Y-84134940D01*
X137968435Y-84066626D01*
X138259586Y-83872086D01*
X138454126Y-83580935D01*
X138502486Y-83337813D01*
X138545874Y-83555935D01*
X138740414Y-83847086D01*
X139031565Y-84041626D01*
X139375000Y-84109940D01*
X140625000Y-84109940D01*
X140968435Y-84041626D01*
X141259586Y-83847086D01*
X141454126Y-83555935D01*
X141522440Y-83212500D01*
X141522440Y-82302361D01*
X141774802Y-82049999D01*
X141727560Y-82287500D01*
X141727560Y-83212500D01*
X141795874Y-83555935D01*
X141990414Y-83847086D01*
X142281565Y-84041626D01*
X142625000Y-84109940D01*
X143875000Y-84109940D01*
X144218435Y-84041626D01*
X144509586Y-83847086D01*
X144704126Y-83555935D01*
X144713263Y-83510000D01*
X144786737Y-83510000D01*
X144795874Y-83555935D01*
X144990414Y-83847086D01*
X145281565Y-84041626D01*
X145625000Y-84109940D01*
X146875000Y-84109940D01*
X147218435Y-84041626D01*
X147509586Y-83847086D01*
X147704126Y-83555935D01*
X147772440Y-83212500D01*
X147772440Y-82287500D01*
X147704126Y-81944065D01*
X147509586Y-81652914D01*
X147302386Y-81514468D01*
X147324847Y-81510000D01*
X147324852Y-81510000D01*
X147546537Y-81465904D01*
X147797929Y-81297929D01*
X147840331Y-81234470D01*
X148312307Y-80762494D01*
X148324847Y-80760000D01*
X148324852Y-80760000D01*
X148546537Y-80715904D01*
X148797929Y-80547929D01*
X148807943Y-80532943D01*
X148822929Y-80522929D01*
X148836401Y-80502767D01*
X149080935Y-80454126D01*
X149372086Y-80259586D01*
X149566626Y-79968435D01*
X149634940Y-79625000D01*
X149634940Y-78375000D01*
X149566626Y-78031565D01*
X149544660Y-77998690D01*
X149902500Y-77998690D01*
X149902500Y-78714250D01*
X150061250Y-78873000D01*
X151123000Y-78873000D01*
X151123000Y-77648750D01*
X151377000Y-77648750D01*
X151377000Y-78873000D01*
X152438750Y-78873000D01*
X152597500Y-78714250D01*
X152597500Y-77998690D01*
X152500827Y-77765301D01*
X152322198Y-77586673D01*
X152088809Y-77490000D01*
X151535750Y-77490000D01*
X151377000Y-77648750D01*
X151123000Y-77648750D01*
X150964250Y-77490000D01*
X150411191Y-77490000D01*
X150177802Y-77586673D01*
X149999173Y-77765301D01*
X149902500Y-77998690D01*
X149544660Y-77998690D01*
X149372086Y-77740414D01*
X149080935Y-77545874D01*
X148737500Y-77477560D01*
X147812500Y-77477560D01*
X147469065Y-77545874D01*
X147177914Y-77740414D01*
X146983374Y-78031565D01*
X146915060Y-78375000D01*
X146915060Y-79625000D01*
X146978959Y-79946240D01*
X146935199Y-79990000D01*
X144704497Y-79990000D01*
X144978839Y-79579418D01*
X145094092Y-79000000D01*
X144978839Y-78420582D01*
X144650625Y-77929375D01*
X144159418Y-77601161D01*
X143726256Y-77515000D01*
X143433744Y-77515000D01*
X143000582Y-77601161D01*
X142509375Y-77929375D01*
X142310000Y-78227761D01*
X142110625Y-77929375D01*
X141619418Y-77601161D01*
X141186256Y-77515000D01*
X140893744Y-77515000D01*
X140460582Y-77601161D01*
X139969375Y-77929375D01*
X139954904Y-77951033D01*
X139888327Y-77790302D01*
X139709699Y-77611673D01*
X139476310Y-77515000D01*
X138785750Y-77515000D01*
X138627000Y-77673750D01*
X138627000Y-78873000D01*
X138647000Y-78873000D01*
X138647000Y-79127000D01*
X138627000Y-79127000D01*
X138627000Y-79147000D01*
X138373000Y-79147000D01*
X138373000Y-79127000D01*
X137173750Y-79127000D01*
X137015000Y-79285750D01*
X137015000Y-79976309D01*
X137111673Y-80209698D01*
X137290301Y-80388327D01*
X137294727Y-80390160D01*
X137202071Y-80452071D01*
X137159671Y-80515527D01*
X136515530Y-81159669D01*
X136452071Y-81202071D01*
X136299756Y-81430027D01*
X136031565Y-81483374D01*
X135740414Y-81677914D01*
X135586626Y-81908074D01*
X135548601Y-81882667D01*
X135500000Y-81873000D01*
X135397700Y-81873000D01*
X135397700Y-78023691D01*
X137015000Y-78023691D01*
X137015000Y-78714250D01*
X137173750Y-78873000D01*
X138373000Y-78873000D01*
X138373000Y-77673750D01*
X138214250Y-77515000D01*
X137523690Y-77515000D01*
X137290301Y-77611673D01*
X137111673Y-77790302D01*
X137015000Y-78023691D01*
X135397700Y-78023691D01*
X135397700Y-76897700D01*
X183102300Y-76897700D01*
X183102301Y-125502300D01*
X183102301Y-125502300D01*
G37*
X183102301Y-125502300D02*
X135397700Y-125502300D01*
X135397700Y-125070714D01*
X138530000Y-125070714D01*
X138530000Y-119929285D01*
X135627000Y-119929285D01*
X135627000Y-117285750D01*
X138815000Y-117285750D01*
X138815000Y-117576309D01*
X138911673Y-117809698D01*
X139090301Y-117988327D01*
X139323690Y-118085000D01*
X139664250Y-118085000D01*
X139823000Y-117926250D01*
X139823000Y-117127000D01*
X140077000Y-117127000D01*
X140077000Y-117926250D01*
X140235750Y-118085000D01*
X140576310Y-118085000D01*
X140809699Y-117988327D01*
X140988327Y-117809698D01*
X141085000Y-117576309D01*
X141085000Y-117285750D01*
X142915000Y-117285750D01*
X142915000Y-117576309D01*
X143011673Y-117809698D01*
X143190301Y-117988327D01*
X143423690Y-118085000D01*
X143764250Y-118085000D01*
X143923000Y-117926250D01*
X143923000Y-117127000D01*
X144177000Y-117127000D01*
X144177000Y-117926250D01*
X144335750Y-118085000D01*
X144676310Y-118085000D01*
X144909699Y-117988327D01*
X145088327Y-117809698D01*
X145185000Y-117576309D01*
X145185000Y-117285750D01*
X145026250Y-117127000D01*
X144177000Y-117127000D01*
X143923000Y-117127000D01*
X143073750Y-117127000D01*
X142915000Y-117285750D01*
X141085000Y-117285750D01*
X140926250Y-117127000D01*
X140077000Y-117127000D01*
X139823000Y-117127000D01*
X138973750Y-117127000D01*
X138815000Y-117285750D01*
X135627000Y-117285750D01*
X135627000Y-117085750D01*
X146315000Y-117085750D01*
X146315000Y-117376309D01*
X146411673Y-117609698D01*
X146590301Y-117788327D01*
X146823690Y-117885000D01*
X147164250Y-117885000D01*
X147323000Y-117726250D01*
X147323000Y-116927000D01*
X147577000Y-116927000D01*
X147577000Y-117726250D01*
X147735750Y-117885000D01*
X148076310Y-117885000D01*
X148309699Y-117788327D01*
X148488327Y-117609698D01*
X148585000Y-117376309D01*
X148585000Y-117085750D01*
X150415000Y-117085750D01*
X150415000Y-117376309D01*
X150511673Y-117609698D01*
X150690301Y-117788327D01*
X150923690Y-117885000D01*
X151264250Y-117885000D01*
X151423000Y-117726250D01*
X151423000Y-116927000D01*
X151677000Y-116927000D01*
X151677000Y-117726250D01*
X151835750Y-117885000D01*
X152176310Y-117885000D01*
X152409699Y-117788327D01*
X152588327Y-117609698D01*
X152685000Y-117376309D01*
X152685000Y-117085750D01*
X152526250Y-116927000D01*
X151677000Y-116927000D01*
X151423000Y-116927000D01*
X150573750Y-116927000D01*
X150415000Y-117085750D01*
X148585000Y-117085750D01*
X148426250Y-116927000D01*
X147577000Y-116927000D01*
X147323000Y-116927000D01*
X146473750Y-116927000D01*
X146315000Y-117085750D01*
X135627000Y-117085750D01*
X135627000Y-115294126D01*
X136715000Y-115294126D01*
X136715000Y-115705874D01*
X136872569Y-116086280D01*
X137163720Y-116377431D01*
X137544126Y-116535000D01*
X137955874Y-116535000D01*
X138336280Y-116377431D01*
X138553711Y-116160000D01*
X138893427Y-116160000D01*
X138912873Y-116189102D01*
X138911673Y-116190302D01*
X138815000Y-116423691D01*
X138815000Y-116714250D01*
X138973750Y-116873000D01*
X139823000Y-116873000D01*
X139823000Y-116853000D01*
X140077000Y-116853000D01*
X140077000Y-116873000D01*
X140926250Y-116873000D01*
X141085000Y-116714250D01*
X141085000Y-116423691D01*
X140988327Y-116190302D01*
X140987127Y-116189102D01*
X141006573Y-116160000D01*
X141119797Y-116160000D01*
X141203463Y-116215904D01*
X141500000Y-116274889D01*
X141796536Y-116215904D01*
X141880202Y-116160000D01*
X142993427Y-116160000D01*
X143012873Y-116189102D01*
X143011673Y-116190302D01*
X142915000Y-116423691D01*
X142915000Y-116714250D01*
X143073750Y-116873000D01*
X143923000Y-116873000D01*
X143923000Y-116853000D01*
X144177000Y-116853000D01*
X144177000Y-116873000D01*
X145026250Y-116873000D01*
X145185000Y-116714250D01*
X145185000Y-116423691D01*
X145088327Y-116190302D01*
X145087127Y-116189102D01*
X145148157Y-116097765D01*
X145197440Y-115850000D01*
X145197440Y-115022242D01*
X145859673Y-115684476D01*
X145902071Y-115747929D01*
X145965524Y-115790327D01*
X145965526Y-115790329D01*
X146034297Y-115836280D01*
X146153463Y-115915904D01*
X146375148Y-115960000D01*
X146375152Y-115960000D01*
X146396229Y-115964192D01*
X146412873Y-115989102D01*
X146411673Y-115990302D01*
X146315000Y-116223691D01*
X146315000Y-116514250D01*
X146473750Y-116673000D01*
X147323000Y-116673000D01*
X147323000Y-116653000D01*
X147577000Y-116653000D01*
X147577000Y-116673000D01*
X148426250Y-116673000D01*
X148585000Y-116514250D01*
X148585000Y-116223691D01*
X148572343Y-116193135D01*
X148794126Y-116285000D01*
X149205874Y-116285000D01*
X149586280Y-116127431D01*
X149753711Y-115960000D01*
X150493427Y-115960000D01*
X150512873Y-115989102D01*
X150511673Y-115990302D01*
X150415000Y-116223691D01*
X150415000Y-116514250D01*
X150573750Y-116673000D01*
X151423000Y-116673000D01*
X151423000Y-116653000D01*
X151677000Y-116653000D01*
X151677000Y-116673000D01*
X152526250Y-116673000D01*
X152685000Y-116514250D01*
X152685000Y-116223691D01*
X152588327Y-115990302D01*
X152587127Y-115989102D01*
X152648157Y-115897765D01*
X152697440Y-115650000D01*
X152697440Y-114750000D01*
X152648157Y-114502235D01*
X152507809Y-114292191D01*
X152297765Y-114151843D01*
X152050000Y-114102560D01*
X151050000Y-114102560D01*
X150802235Y-114151843D01*
X150592191Y-114292191D01*
X150493427Y-114440000D01*
X149653711Y-114440000D01*
X149586280Y-114372569D01*
X149205874Y-114215000D01*
X148794126Y-114215000D01*
X148451155Y-114357063D01*
X148407809Y-114292191D01*
X148197765Y-114151843D01*
X147950000Y-114102560D01*
X146950000Y-114102560D01*
X146839090Y-114124621D01*
X147127431Y-113836280D01*
X147285000Y-113455874D01*
X147285000Y-113044126D01*
X147127431Y-112663720D01*
X147010000Y-112546289D01*
X147010000Y-112020828D01*
X147086654Y-112072047D01*
X147510000Y-112156256D01*
X147933345Y-112072047D01*
X148145000Y-111930624D01*
X148356654Y-112072047D01*
X148780000Y-112156256D01*
X149203345Y-112072047D01*
X149415000Y-111930624D01*
X149626654Y-112072047D01*
X150050000Y-112156256D01*
X150473345Y-112072047D01*
X150593237Y-111991938D01*
X150604097Y-112046537D01*
X150716661Y-112215000D01*
X150772072Y-112297929D01*
X150835528Y-112340329D01*
X154229673Y-115734476D01*
X154272071Y-115797929D01*
X154335524Y-115840327D01*
X154335526Y-115840329D01*
X154401593Y-115884473D01*
X154523463Y-115965904D01*
X154745148Y-116010000D01*
X154745152Y-116010000D01*
X154752560Y-116011474D01*
X154752560Y-116100000D01*
X154801843Y-116347765D01*
X154942191Y-116557809D01*
X155152235Y-116698157D01*
X155400000Y-116747440D01*
X157100000Y-116747440D01*
X157347765Y-116698157D01*
X157557809Y-116557809D01*
X157698157Y-116347765D01*
X157747440Y-116100000D01*
X157747440Y-114400000D01*
X157698157Y-114152235D01*
X157557809Y-113942191D01*
X157347765Y-113801843D01*
X157100000Y-113752560D01*
X155400000Y-113752560D01*
X155152235Y-113801843D01*
X154942191Y-113942191D01*
X154801843Y-114152235D01*
X154801046Y-114156243D01*
X152766041Y-112121239D01*
X153013345Y-112072047D01*
X153225000Y-111930624D01*
X153436654Y-112072047D01*
X153860000Y-112156256D01*
X154283345Y-112072047D01*
X154642241Y-111832241D01*
X154882047Y-111473346D01*
X154945000Y-111156861D01*
X154945000Y-109343139D01*
X154882047Y-109026654D01*
X154642241Y-108667759D01*
X154283346Y-108427953D01*
X153860000Y-108343744D01*
X153436655Y-108427953D01*
X153225001Y-108569376D01*
X153013346Y-108427953D01*
X152590000Y-108343744D01*
X152166655Y-108427953D01*
X151955001Y-108569376D01*
X151743346Y-108427953D01*
X151320000Y-108343744D01*
X150896655Y-108427953D01*
X150685001Y-108569376D01*
X150473346Y-108427953D01*
X150050000Y-108343744D01*
X149626655Y-108427953D01*
X149415001Y-108569376D01*
X149203346Y-108427953D01*
X148780000Y-108343744D01*
X148450766Y-108409233D01*
X148535000Y-108205874D01*
X148535000Y-107794126D01*
X148377431Y-107413720D01*
X148222712Y-107259001D01*
X153505592Y-107259001D01*
X153692987Y-107642408D01*
X154017456Y-107918808D01*
X154423000Y-108050000D01*
X155223000Y-108050000D01*
X155223000Y-107092000D01*
X155477000Y-107092000D01*
X155477000Y-108050000D01*
X156277000Y-108050000D01*
X156682544Y-107918808D01*
X157007013Y-107642408D01*
X157194408Y-107259001D01*
X157067502Y-107092000D01*
X155477000Y-107092000D01*
X155223000Y-107092000D01*
X153632498Y-107092000D01*
X153505592Y-107259001D01*
X148222712Y-107259001D01*
X148086280Y-107122569D01*
X147705874Y-106965000D01*
X147294126Y-106965000D01*
X146913720Y-107122569D01*
X146622569Y-107413720D01*
X146465000Y-107794126D01*
X146465000Y-108205874D01*
X146547438Y-108404897D01*
X146240000Y-108343744D01*
X145816655Y-108427953D01*
X145605001Y-108569376D01*
X145393346Y-108427953D01*
X144970000Y-108343744D01*
X144546655Y-108427953D01*
X144335001Y-108569376D01*
X144123346Y-108427953D01*
X143700000Y-108343744D01*
X143276655Y-108427953D01*
X143065001Y-108569376D01*
X142853346Y-108427953D01*
X142430000Y-108343744D01*
X142006655Y-108427953D01*
X141795001Y-108569376D01*
X141583346Y-108427953D01*
X141160000Y-108343744D01*
X140736655Y-108427953D01*
X140525001Y-108569376D01*
X140313346Y-108427953D01*
X140181904Y-108401808D01*
X140377431Y-108206281D01*
X140535000Y-107825875D01*
X140535000Y-107414127D01*
X140377431Y-107033721D01*
X140086280Y-106742570D01*
X139705874Y-106585001D01*
X139294126Y-106585001D01*
X138913720Y-106742570D01*
X138622569Y-107033721D01*
X138472569Y-107395855D01*
X138055846Y-107812578D01*
X137981952Y-107861952D01*
X137932577Y-107935847D01*
X137786350Y-108154692D01*
X137728251Y-108446770D01*
X137644001Y-108405592D01*
X137477000Y-108532498D01*
X137477000Y-110123000D01*
X137497000Y-110123000D01*
X137497000Y-110377000D01*
X137477000Y-110377000D01*
X137477000Y-111967502D01*
X137644001Y-112094408D01*
X137982507Y-111928959D01*
X138196654Y-112072047D01*
X138620000Y-112156256D01*
X139043345Y-112072047D01*
X139190001Y-111974055D01*
X139190000Y-114360018D01*
X138992191Y-114492191D01*
X138893427Y-114640000D01*
X138353711Y-114640000D01*
X138336280Y-114622569D01*
X137955874Y-114465000D01*
X137544126Y-114465000D01*
X137163720Y-114622569D01*
X136872569Y-114913720D01*
X136715000Y-115294126D01*
X135627000Y-115294126D01*
X135627000Y-110377000D01*
X136265000Y-110377000D01*
X136265000Y-111177000D01*
X136396192Y-111582544D01*
X136672592Y-111907013D01*
X137055999Y-112094408D01*
X137223000Y-111967502D01*
X137223000Y-110377000D01*
X136265000Y-110377000D01*
X135627000Y-110377000D01*
X135627000Y-109323000D01*
X136265000Y-109323000D01*
X136265000Y-110123000D01*
X137223000Y-110123000D01*
X137223000Y-108532498D01*
X137055999Y-108405592D01*
X136672592Y-108592987D01*
X136396192Y-108917456D01*
X136265000Y-109323000D01*
X135627000Y-109323000D01*
X135627000Y-98550000D01*
X141402560Y-98550000D01*
X141402560Y-104550000D01*
X141451843Y-104797765D01*
X141592191Y-105007809D01*
X141802235Y-105148157D01*
X142050000Y-105197440D01*
X148050000Y-105197440D01*
X148297765Y-105148157D01*
X148507809Y-105007809D01*
X148648157Y-104797765D01*
X148697440Y-104550000D01*
X148697440Y-98550000D01*
X148648157Y-98302235D01*
X148507809Y-98092191D01*
X148297765Y-97951843D01*
X148050000Y-97902560D01*
X142050000Y-97902560D01*
X141802235Y-97951843D01*
X141592191Y-98092191D01*
X141451843Y-98302235D01*
X141402560Y-98550000D01*
X135627000Y-98550000D01*
X135627000Y-96044126D01*
X137715000Y-96044126D01*
X137715000Y-96455874D01*
X137872569Y-96836280D01*
X138163720Y-97127431D01*
X138544126Y-97285000D01*
X138955874Y-97285000D01*
X139318009Y-97134999D01*
X148681991Y-97134999D01*
X149044126Y-97285000D01*
X149455874Y-97285000D01*
X149836280Y-97127431D01*
X150127431Y-96836280D01*
X150285000Y-96455874D01*
X150285000Y-96044126D01*
X150127431Y-95663720D01*
X149836280Y-95372569D01*
X149455874Y-95215000D01*
X149044126Y-95215000D01*
X148681991Y-95365001D01*
X139318009Y-95365001D01*
X138955874Y-95215000D01*
X138544126Y-95215000D01*
X138163720Y-95372569D01*
X137872569Y-95663720D01*
X137715000Y-96044126D01*
X135627000Y-96044126D01*
X135627000Y-92377000D01*
X136265000Y-92377000D01*
X136265000Y-93177000D01*
X136396192Y-93582544D01*
X136672592Y-93907013D01*
X137055999Y-94094408D01*
X137223000Y-93967502D01*
X137223000Y-92377000D01*
X136265000Y-92377000D01*
X135627000Y-92377000D01*
X135627000Y-91323000D01*
X136265000Y-91323000D01*
X136265000Y-92123000D01*
X137223000Y-92123000D01*
X137223000Y-90532498D01*
X137055999Y-90405592D01*
X136672592Y-90592987D01*
X136396192Y-90917456D01*
X136265000Y-91323000D01*
X135627000Y-91323000D01*
X135627000Y-86677349D01*
X135740414Y-86847086D01*
X136031565Y-87041626D01*
X136240000Y-87083087D01*
X136240000Y-87925153D01*
X136225112Y-88000000D01*
X136240000Y-88074847D01*
X136240000Y-88074851D01*
X136284096Y-88296536D01*
X136452071Y-88547929D01*
X136515530Y-88590331D01*
X137159670Y-89234472D01*
X137202071Y-89297929D01*
X137453463Y-89465904D01*
X137675148Y-89510000D01*
X137675152Y-89510000D01*
X137749999Y-89524888D01*
X137824846Y-89510000D01*
X139685199Y-89510000D01*
X140400001Y-90224803D01*
X140400001Y-90485854D01*
X140313346Y-90427953D01*
X139890000Y-90343744D01*
X139466655Y-90427953D01*
X139255001Y-90569376D01*
X139043346Y-90427953D01*
X138620000Y-90343744D01*
X138196655Y-90427953D01*
X137982508Y-90571042D01*
X137644001Y-90405592D01*
X137477000Y-90532498D01*
X137477000Y-92123000D01*
X137497000Y-92123000D01*
X137497000Y-92377000D01*
X137477000Y-92377000D01*
X137477000Y-93967502D01*
X137644001Y-94094408D01*
X137982507Y-93928959D01*
X138196654Y-94072047D01*
X138620000Y-94156256D01*
X139043345Y-94072047D01*
X139255000Y-93930624D01*
X139466654Y-94072047D01*
X139890000Y-94156256D01*
X140313345Y-94072047D01*
X140525000Y-93930624D01*
X140736654Y-94072047D01*
X141160000Y-94156256D01*
X141583345Y-94072047D01*
X141795000Y-93930624D01*
X142006654Y-94072047D01*
X142430000Y-94156256D01*
X142853345Y-94072047D01*
X143065000Y-93930624D01*
X143276654Y-94072047D01*
X143700000Y-94156256D01*
X144123345Y-94072047D01*
X144335000Y-93930624D01*
X144546654Y-94072047D01*
X144970000Y-94156256D01*
X145393345Y-94072047D01*
X145605000Y-93930624D01*
X145816654Y-94072047D01*
X146240000Y-94156256D01*
X146663345Y-94072047D01*
X146875000Y-93930624D01*
X147086654Y-94072047D01*
X147510000Y-94156256D01*
X147933345Y-94072047D01*
X148145000Y-93930624D01*
X148356654Y-94072047D01*
X148780000Y-94156256D01*
X149203345Y-94072047D01*
X149415000Y-93930624D01*
X149626654Y-94072047D01*
X150050000Y-94156256D01*
X150473345Y-94072047D01*
X150490000Y-94060918D01*
X150490000Y-94796289D01*
X150372569Y-94913720D01*
X150215000Y-95294126D01*
X150215000Y-95705874D01*
X150372569Y-96086280D01*
X150663720Y-96377431D01*
X151044126Y-96535000D01*
X151455874Y-96535000D01*
X151836280Y-96377431D01*
X152127431Y-96086280D01*
X152285000Y-95705874D01*
X152285000Y-95535000D01*
X153443744Y-95535000D01*
X153527953Y-95958346D01*
X153669376Y-96170000D01*
X153527953Y-96381654D01*
X153443744Y-96805000D01*
X153527953Y-97228346D01*
X153669376Y-97440000D01*
X153527953Y-97651654D01*
X153443744Y-98075000D01*
X153527953Y-98498346D01*
X153669376Y-98710000D01*
X153527953Y-98921654D01*
X153443744Y-99345000D01*
X153527953Y-99768346D01*
X153669376Y-99980000D01*
X153527953Y-100191654D01*
X153443744Y-100615000D01*
X153527953Y-101038346D01*
X153669376Y-101250000D01*
X153527953Y-101461654D01*
X153443744Y-101885000D01*
X153527953Y-102308346D01*
X153669376Y-102520000D01*
X153527953Y-102731654D01*
X153443744Y-103155000D01*
X153527953Y-103578346D01*
X153669376Y-103790000D01*
X153527953Y-104001654D01*
X153443744Y-104425000D01*
X153527953Y-104848346D01*
X153669376Y-105060000D01*
X153527953Y-105271654D01*
X153443744Y-105695000D01*
X153527953Y-106118346D01*
X153671041Y-106332493D01*
X153505592Y-106670999D01*
X153632498Y-106838000D01*
X155223000Y-106838000D01*
X155223000Y-106818000D01*
X155477000Y-106818000D01*
X155477000Y-106838000D01*
X157067502Y-106838000D01*
X157194408Y-106670999D01*
X157028959Y-106332493D01*
X157172047Y-106118346D01*
X157256256Y-105695000D01*
X157172047Y-105271654D01*
X157030624Y-105060000D01*
X157172047Y-104848346D01*
X157256256Y-104425000D01*
X157172047Y-104001654D01*
X157030624Y-103790000D01*
X157172047Y-103578346D01*
X157256256Y-103155000D01*
X157172047Y-102731654D01*
X157030624Y-102520000D01*
X157172047Y-102308346D01*
X157256256Y-101885000D01*
X157172047Y-101461654D01*
X157030624Y-101250000D01*
X157172047Y-101038346D01*
X157256256Y-100615000D01*
X157172047Y-100191654D01*
X157030624Y-99980000D01*
X157172047Y-99768346D01*
X157256256Y-99345000D01*
X157172047Y-98921654D01*
X157030624Y-98710000D01*
X157172047Y-98498346D01*
X157256256Y-98075000D01*
X157172047Y-97651654D01*
X157030624Y-97440000D01*
X157172047Y-97228346D01*
X157256256Y-96805000D01*
X157172047Y-96381654D01*
X157114147Y-96295000D01*
X159220199Y-96295000D01*
X159715000Y-96789802D01*
X159715000Y-96955874D01*
X159872569Y-97336280D01*
X160163720Y-97627431D01*
X160544126Y-97785000D01*
X160955874Y-97785000D01*
X161336280Y-97627431D01*
X161627431Y-97336280D01*
X161785000Y-96955874D01*
X161785000Y-96544126D01*
X161627431Y-96163720D01*
X161336280Y-95872569D01*
X160955874Y-95715000D01*
X160789802Y-95715000D01*
X160125331Y-95050530D01*
X160082929Y-94987071D01*
X159831537Y-94819096D01*
X159609852Y-94775000D01*
X159609847Y-94775000D01*
X159535000Y-94760112D01*
X159460153Y-94775000D01*
X156947102Y-94775000D01*
X156932241Y-94752759D01*
X156573346Y-94512953D01*
X156256861Y-94450000D01*
X154443139Y-94450000D01*
X154126654Y-94512953D01*
X153767759Y-94752759D01*
X153527953Y-95111654D01*
X153443744Y-95535000D01*
X152285000Y-95535000D01*
X152285000Y-95294126D01*
X152127431Y-94913720D01*
X152010000Y-94796289D01*
X152010000Y-93967374D01*
X152166654Y-94072047D01*
X152590000Y-94156256D01*
X153013345Y-94072047D01*
X153225000Y-93930624D01*
X153436654Y-94072047D01*
X153860000Y-94156256D01*
X154283345Y-94072047D01*
X154642241Y-93832241D01*
X154882047Y-93473346D01*
X154945000Y-93156861D01*
X154945000Y-92317000D01*
X159155000Y-92317000D01*
X159155000Y-93267000D01*
X159312834Y-93806483D01*
X159665104Y-94244500D01*
X160158181Y-94514367D01*
X160240961Y-94531904D01*
X160463000Y-94409915D01*
X160463000Y-92317000D01*
X159155000Y-92317000D01*
X154945000Y-92317000D01*
X154945000Y-91343139D01*
X154899223Y-91113000D01*
X159155000Y-91113000D01*
X159155000Y-92063000D01*
X160463000Y-92063000D01*
X160463000Y-89970085D01*
X160240961Y-89848096D01*
X160158181Y-89865633D01*
X159665104Y-90135500D01*
X159312834Y-90573517D01*
X159155000Y-91113000D01*
X154899223Y-91113000D01*
X154882047Y-91026654D01*
X154642241Y-90667759D01*
X154620000Y-90652898D01*
X154620000Y-90343711D01*
X154627431Y-90336280D01*
X154785000Y-89955874D01*
X154785000Y-89544126D01*
X154627431Y-89163720D01*
X154336280Y-88872569D01*
X154064514Y-88760000D01*
X156175153Y-88760000D01*
X156250000Y-88774888D01*
X156324847Y-88760000D01*
X156324852Y-88760000D01*
X156546537Y-88715904D01*
X156797929Y-88547929D01*
X156840331Y-88484470D01*
X157314802Y-88010000D01*
X174935199Y-88010000D01*
X175070001Y-88144803D01*
X175070000Y-90021957D01*
X174795423Y-90205424D01*
X174557501Y-90561499D01*
X174214896Y-90135500D01*
X173721819Y-89865633D01*
X173639039Y-89848096D01*
X173417000Y-89970085D01*
X173417000Y-92063000D01*
X173437000Y-92063000D01*
X173437000Y-92317000D01*
X173417000Y-92317000D01*
X173417000Y-94409915D01*
X173639039Y-94531904D01*
X173721819Y-94514367D01*
X174214896Y-94244500D01*
X174557501Y-93818500D01*
X174795424Y-94174577D01*
X175270092Y-94491740D01*
X175830000Y-94603113D01*
X176389909Y-94491740D01*
X176864577Y-94174577D01*
X177100001Y-93822241D01*
X177325489Y-94159709D01*
X176745199Y-94740000D01*
X170703711Y-94740000D01*
X170586280Y-94622569D01*
X170344654Y-94522484D01*
X170750000Y-94603113D01*
X171309909Y-94491740D01*
X171784577Y-94174577D01*
X172022499Y-93818501D01*
X172365104Y-94244500D01*
X172858181Y-94514367D01*
X172940961Y-94531904D01*
X173163000Y-94409915D01*
X173163000Y-92317000D01*
X173143000Y-92317000D01*
X173143000Y-92063000D01*
X173163000Y-92063000D01*
X173163000Y-89970085D01*
X172940961Y-89848096D01*
X172858181Y-89865633D01*
X172365104Y-90135500D01*
X172022499Y-90561499D01*
X171784576Y-90205423D01*
X171634999Y-90105479D01*
X171634999Y-89818009D01*
X171785000Y-89455874D01*
X171785000Y-89044126D01*
X171627431Y-88663720D01*
X171336280Y-88372569D01*
X170955874Y-88215000D01*
X170544126Y-88215000D01*
X170163720Y-88372569D01*
X169872569Y-88663720D01*
X169715000Y-89044126D01*
X169715000Y-89455874D01*
X169865001Y-89818010D01*
X169865001Y-90105479D01*
X169715423Y-90205424D01*
X169480000Y-90557759D01*
X169244576Y-90205423D01*
X168769908Y-89888260D01*
X168210000Y-89776887D01*
X167650091Y-89888260D01*
X167175423Y-90205424D01*
X166940000Y-90557759D01*
X166704576Y-90205423D01*
X166229908Y-89888260D01*
X165670000Y-89776887D01*
X165110091Y-89888260D01*
X164635423Y-90205424D01*
X164400000Y-90557759D01*
X164164576Y-90205423D01*
X163689908Y-89888260D01*
X163130000Y-89776887D01*
X162570091Y-89888260D01*
X162095423Y-90205424D01*
X161857501Y-90561499D01*
X161514896Y-90135500D01*
X161021819Y-89865633D01*
X160939039Y-89848096D01*
X160717000Y-89970085D01*
X160717000Y-92063000D01*
X160737000Y-92063000D01*
X160737000Y-92317000D01*
X160717000Y-92317000D01*
X160717000Y-94409915D01*
X160939039Y-94531904D01*
X161021819Y-94514367D01*
X161514896Y-94244500D01*
X161857501Y-93818500D01*
X162095424Y-94174577D01*
X162570092Y-94491740D01*
X163130000Y-94603113D01*
X163689909Y-94491740D01*
X164164577Y-94174577D01*
X164400001Y-93822241D01*
X164635424Y-94174577D01*
X165110092Y-94491740D01*
X165670000Y-94603113D01*
X166229909Y-94491740D01*
X166704577Y-94174577D01*
X166940001Y-93822241D01*
X167175424Y-94174577D01*
X167471379Y-94372328D01*
X167490000Y-94465940D01*
X167490001Y-118685197D01*
X166185199Y-119990000D01*
X158703711Y-119990000D01*
X158586280Y-119872569D01*
X158205874Y-119715000D01*
X157794126Y-119715000D01*
X157413720Y-119872569D01*
X157122569Y-120163720D01*
X156965000Y-120544126D01*
X156965000Y-120955874D01*
X157122569Y-121336280D01*
X157413720Y-121627431D01*
X157794126Y-121785000D01*
X158205874Y-121785000D01*
X158586280Y-121627431D01*
X158703711Y-121510000D01*
X166425153Y-121510000D01*
X166500000Y-121524888D01*
X166574847Y-121510000D01*
X166574852Y-121510000D01*
X166796537Y-121465904D01*
X167047929Y-121297929D01*
X167090331Y-121234470D01*
X167207801Y-121117000D01*
X174395000Y-121117000D01*
X174395000Y-122067000D01*
X174552834Y-122606483D01*
X174905104Y-123044500D01*
X175398181Y-123314367D01*
X175480961Y-123331904D01*
X175703000Y-123209915D01*
X175703000Y-121117000D01*
X174395000Y-121117000D01*
X167207801Y-121117000D01*
X168411801Y-119913000D01*
X174395000Y-119913000D01*
X174395000Y-120863000D01*
X175703000Y-120863000D01*
X175703000Y-118770085D01*
X175957000Y-118770085D01*
X175957000Y-120863000D01*
X175977000Y-120863000D01*
X175977000Y-121117000D01*
X175957000Y-121117000D01*
X175957000Y-123209915D01*
X176179039Y-123331904D01*
X176261819Y-123314367D01*
X176754896Y-123044500D01*
X177097501Y-122618500D01*
X177335424Y-122974577D01*
X177810092Y-123291740D01*
X178370000Y-123403113D01*
X178929909Y-123291740D01*
X179404577Y-122974577D01*
X179642499Y-122618501D01*
X179985104Y-123044500D01*
X180478181Y-123314367D01*
X180560961Y-123331904D01*
X180783000Y-123209915D01*
X180783000Y-121117000D01*
X181037000Y-121117000D01*
X181037000Y-123209915D01*
X181259039Y-123331904D01*
X181341819Y-123314367D01*
X181834896Y-123044500D01*
X182187166Y-122606483D01*
X182345000Y-122067000D01*
X182345000Y-121117000D01*
X181037000Y-121117000D01*
X180783000Y-121117000D01*
X180763000Y-121117000D01*
X180763000Y-120863000D01*
X180783000Y-120863000D01*
X180783000Y-118770085D01*
X181037000Y-118770085D01*
X181037000Y-120863000D01*
X182345000Y-120863000D01*
X182345000Y-119913000D01*
X182187166Y-119373517D01*
X181834896Y-118935500D01*
X181341819Y-118665633D01*
X181259039Y-118648096D01*
X181037000Y-118770085D01*
X180783000Y-118770085D01*
X180560961Y-118648096D01*
X180478181Y-118665633D01*
X179985104Y-118935500D01*
X179642499Y-119361499D01*
X179404576Y-119005423D01*
X178929908Y-118688260D01*
X178370000Y-118576887D01*
X177810091Y-118688260D01*
X177335423Y-119005424D01*
X177097501Y-119361499D01*
X176754896Y-118935500D01*
X176261819Y-118665633D01*
X176179039Y-118648096D01*
X175957000Y-118770085D01*
X175703000Y-118770085D01*
X175480961Y-118648096D01*
X175398181Y-118665633D01*
X174905104Y-118935500D01*
X174552834Y-119373517D01*
X174395000Y-119913000D01*
X168411801Y-119913000D01*
X168734473Y-119590329D01*
X168797929Y-119547929D01*
X168914468Y-119373517D01*
X168965904Y-119296538D01*
X168975480Y-119248395D01*
X169010000Y-119074852D01*
X169010000Y-119074848D01*
X169024888Y-119000000D01*
X169010000Y-118925152D01*
X169010000Y-95814514D01*
X169122569Y-96086280D01*
X169413720Y-96377431D01*
X169794126Y-96535000D01*
X170205874Y-96535000D01*
X170586280Y-96377431D01*
X170703711Y-96260000D01*
X176985153Y-96260000D01*
X177060000Y-96274888D01*
X177134847Y-96260000D01*
X177134852Y-96260000D01*
X177356537Y-96215904D01*
X177607929Y-96047929D01*
X177650331Y-95984470D01*
X178854473Y-94780329D01*
X178917929Y-94737929D01*
X178995010Y-94622569D01*
X179085904Y-94486538D01*
X179101145Y-94409915D01*
X179108622Y-94372328D01*
X179404577Y-94174577D01*
X179640001Y-93822241D01*
X179875424Y-94174577D01*
X180350092Y-94491740D01*
X180910000Y-94603113D01*
X181469909Y-94491740D01*
X181944577Y-94174577D01*
X182261740Y-93699909D01*
X182345000Y-93281333D01*
X182345000Y-91098667D01*
X182261740Y-90680091D01*
X181944576Y-90205423D01*
X181510000Y-89915049D01*
X181510000Y-87074848D01*
X181524888Y-87000000D01*
X181510000Y-86925152D01*
X181510000Y-86925148D01*
X181465904Y-86703463D01*
X181297929Y-86452071D01*
X181234473Y-86409671D01*
X180340331Y-85515530D01*
X180297929Y-85452071D01*
X180046537Y-85284096D01*
X179824852Y-85240000D01*
X179824847Y-85240000D01*
X179750000Y-85225112D01*
X179675153Y-85240000D01*
X157074848Y-85240000D01*
X157000000Y-85225112D01*
X156925152Y-85240000D01*
X156925148Y-85240000D01*
X156703463Y-85284096D01*
X156452071Y-85452071D01*
X156409671Y-85515527D01*
X155685199Y-86240000D01*
X152935000Y-86240000D01*
X152935000Y-86035750D01*
X152776250Y-85877000D01*
X151977000Y-85877000D01*
X151977000Y-85897000D01*
X151723000Y-85897000D01*
X151723000Y-85877000D01*
X151703000Y-85877000D01*
X151703000Y-85623000D01*
X151723000Y-85623000D01*
X151723000Y-85603000D01*
X151977000Y-85603000D01*
X151977000Y-85623000D01*
X152776250Y-85623000D01*
X152935000Y-85464250D01*
X152935000Y-85123690D01*
X152838327Y-84890301D01*
X152659698Y-84711673D01*
X152426309Y-84615000D01*
X152135750Y-84615000D01*
X151977002Y-84773748D01*
X151977002Y-84672695D01*
X152086280Y-84627431D01*
X152377431Y-84336280D01*
X152535000Y-83955874D01*
X152535000Y-83544126D01*
X152377431Y-83163720D01*
X152086280Y-82872569D01*
X151874869Y-82785000D01*
X151977002Y-82785000D01*
X151977002Y-82626252D01*
X152135750Y-82785000D01*
X152426309Y-82785000D01*
X152659698Y-82688327D01*
X152838327Y-82509699D01*
X152898219Y-82365105D01*
X167405000Y-82365105D01*
X167405000Y-83134895D01*
X167699586Y-83846090D01*
X168243910Y-84390414D01*
X168955105Y-84685000D01*
X169724895Y-84685000D01*
X170436090Y-84390414D01*
X170707045Y-84119459D01*
X173230146Y-84119459D01*
X173365504Y-84417455D01*
X174083880Y-84694066D01*
X174853427Y-84674710D01*
X175474496Y-84417455D01*
X175609854Y-84119459D01*
X174420000Y-82929605D01*
X173230146Y-84119459D01*
X170707045Y-84119459D01*
X170980414Y-83846090D01*
X171275000Y-83134895D01*
X171275000Y-82413880D01*
X172475934Y-82413880D01*
X172495290Y-83183427D01*
X172752545Y-83804496D01*
X173050541Y-83939854D01*
X174240395Y-82750000D01*
X174599605Y-82750000D01*
X175789459Y-83939854D01*
X176087455Y-83804496D01*
X176364066Y-83086120D01*
X176344710Y-82316573D01*
X176087455Y-81695504D01*
X175789459Y-81560146D01*
X174599605Y-82750000D01*
X174240395Y-82750000D01*
X173050541Y-81560146D01*
X172752545Y-81695504D01*
X172475934Y-82413880D01*
X171275000Y-82413880D01*
X171275000Y-82365105D01*
X170980414Y-81653910D01*
X170707045Y-81380541D01*
X173230146Y-81380541D01*
X174420000Y-82570395D01*
X175540395Y-81450000D01*
X177552560Y-81450000D01*
X177552560Y-84050000D01*
X177601843Y-84297765D01*
X177742191Y-84507809D01*
X177952235Y-84648157D01*
X178200000Y-84697440D01*
X180800000Y-84697440D01*
X181047765Y-84648157D01*
X181257809Y-84507809D01*
X181398157Y-84297765D01*
X181447440Y-84050000D01*
X181447440Y-81450000D01*
X181398157Y-81202235D01*
X181257809Y-80992191D01*
X181047765Y-80851843D01*
X180800000Y-80802560D01*
X178200000Y-80802560D01*
X177952235Y-80851843D01*
X177742191Y-80992191D01*
X177601843Y-81202235D01*
X177552560Y-81450000D01*
X175540395Y-81450000D01*
X175609854Y-81380541D01*
X175474496Y-81082545D01*
X174756120Y-80805934D01*
X173986573Y-80825290D01*
X173365504Y-81082545D01*
X173230146Y-81380541D01*
X170707045Y-81380541D01*
X170436090Y-81109586D01*
X169724895Y-80815000D01*
X168955105Y-80815000D01*
X168243910Y-81109586D01*
X167699586Y-81653910D01*
X167405000Y-82365105D01*
X152898219Y-82365105D01*
X152935000Y-82276310D01*
X152935000Y-81935750D01*
X152776250Y-81777000D01*
X151977000Y-81777000D01*
X151977000Y-81797000D01*
X151723000Y-81797000D01*
X151723000Y-81777000D01*
X151703000Y-81777000D01*
X151703000Y-81523000D01*
X151723000Y-81523000D01*
X151723000Y-80673750D01*
X151977000Y-80673750D01*
X151977000Y-81523000D01*
X152776250Y-81523000D01*
X152935000Y-81364250D01*
X152935000Y-81023690D01*
X152838327Y-80790301D01*
X152659698Y-80611673D01*
X152426309Y-80515000D01*
X152135750Y-80515000D01*
X151977000Y-80673750D01*
X151723000Y-80673750D01*
X151564250Y-80515000D01*
X151273691Y-80515000D01*
X151040302Y-80611673D01*
X151039102Y-80612873D01*
X150947765Y-80551843D01*
X150737404Y-80510000D01*
X150964250Y-80510000D01*
X151123000Y-80351250D01*
X151123000Y-79127000D01*
X151377000Y-79127000D01*
X151377000Y-80351250D01*
X151535750Y-80510000D01*
X152088809Y-80510000D01*
X152322198Y-80413327D01*
X152500827Y-80234699D01*
X152597500Y-80001310D01*
X152597500Y-79285750D01*
X152438750Y-79127000D01*
X151377000Y-79127000D01*
X151123000Y-79127000D01*
X150061250Y-79127000D01*
X149902500Y-79285750D01*
X149902500Y-80001310D01*
X149999173Y-80234699D01*
X150177802Y-80413327D01*
X150393229Y-80502560D01*
X149800000Y-80502560D01*
X149552235Y-80551843D01*
X149342191Y-80692191D01*
X149201843Y-80902235D01*
X149152560Y-81150000D01*
X149152560Y-82150000D01*
X149201843Y-82397765D01*
X149342191Y-82607809D01*
X149490000Y-82706573D01*
X149490001Y-84693427D01*
X149342191Y-84792191D01*
X149201843Y-85002235D01*
X149152560Y-85250000D01*
X149152560Y-86244493D01*
X148953463Y-86284096D01*
X148702071Y-86452071D01*
X148659671Y-86515527D01*
X147025530Y-88149669D01*
X147010000Y-88160046D01*
X147010000Y-87058087D01*
X147218435Y-87016626D01*
X147509586Y-86822086D01*
X147704126Y-86530935D01*
X147772440Y-86187500D01*
X147772440Y-85262500D01*
X147704126Y-84919065D01*
X147509586Y-84627914D01*
X147218435Y-84433374D01*
X146875000Y-84365060D01*
X145625000Y-84365060D01*
X145281565Y-84433374D01*
X144990414Y-84627914D01*
X144795874Y-84919065D01*
X144750000Y-85149687D01*
X144704126Y-84919065D01*
X144509586Y-84627914D01*
X144218435Y-84433374D01*
X143875000Y-84365060D01*
X142625000Y-84365060D01*
X142281565Y-84433374D01*
X141990414Y-84627914D01*
X141848703Y-84840001D01*
X141401297Y-84840001D01*
X141259586Y-84627914D01*
X140968435Y-84433374D01*
X140625000Y-84365060D01*
X139375000Y-84365060D01*
X139031565Y-84433374D01*
X138740414Y-84627914D01*
X138545874Y-84919065D01*
X138497514Y-85162187D01*
X138454126Y-84944065D01*
X138259586Y-84652914D01*
X137968435Y-84458374D01*
X137625000Y-84390060D01*
X136375000Y-84390060D01*
X136031565Y-84458374D01*
X135740414Y-84652914D01*
X135627000Y-84822651D01*
X135627000Y-83702349D01*
X135740414Y-83872086D01*
X136031565Y-84066626D01*
X136375000Y-84134940D01*
X137625000Y-84134940D01*
X137968435Y-84066626D01*
X138259586Y-83872086D01*
X138454126Y-83580935D01*
X138502486Y-83337813D01*
X138545874Y-83555935D01*
X138740414Y-83847086D01*
X139031565Y-84041626D01*
X139375000Y-84109940D01*
X140625000Y-84109940D01*
X140968435Y-84041626D01*
X141259586Y-83847086D01*
X141454126Y-83555935D01*
X141522440Y-83212500D01*
X141522440Y-82302361D01*
X141774802Y-82049999D01*
X141727560Y-82287500D01*
X141727560Y-83212500D01*
X141795874Y-83555935D01*
X141990414Y-83847086D01*
X142281565Y-84041626D01*
X142625000Y-84109940D01*
X143875000Y-84109940D01*
X144218435Y-84041626D01*
X144509586Y-83847086D01*
X144704126Y-83555935D01*
X144713263Y-83510000D01*
X144786737Y-83510000D01*
X144795874Y-83555935D01*
X144990414Y-83847086D01*
X145281565Y-84041626D01*
X145625000Y-84109940D01*
X146875000Y-84109940D01*
X147218435Y-84041626D01*
X147509586Y-83847086D01*
X147704126Y-83555935D01*
X147772440Y-83212500D01*
X147772440Y-82287500D01*
X147704126Y-81944065D01*
X147509586Y-81652914D01*
X147302386Y-81514468D01*
X147324847Y-81510000D01*
X147324852Y-81510000D01*
X147546537Y-81465904D01*
X147797929Y-81297929D01*
X147840331Y-81234470D01*
X148312307Y-80762494D01*
X148324847Y-80760000D01*
X148324852Y-80760000D01*
X148546537Y-80715904D01*
X148797929Y-80547929D01*
X148807943Y-80532943D01*
X148822929Y-80522929D01*
X148836401Y-80502767D01*
X149080935Y-80454126D01*
X149372086Y-80259586D01*
X149566626Y-79968435D01*
X149634940Y-79625000D01*
X149634940Y-78375000D01*
X149566626Y-78031565D01*
X149544660Y-77998690D01*
X149902500Y-77998690D01*
X149902500Y-78714250D01*
X150061250Y-78873000D01*
X151123000Y-78873000D01*
X151123000Y-77648750D01*
X151377000Y-77648750D01*
X151377000Y-78873000D01*
X152438750Y-78873000D01*
X152597500Y-78714250D01*
X152597500Y-77998690D01*
X152500827Y-77765301D01*
X152322198Y-77586673D01*
X152088809Y-77490000D01*
X151535750Y-77490000D01*
X151377000Y-77648750D01*
X151123000Y-77648750D01*
X150964250Y-77490000D01*
X150411191Y-77490000D01*
X150177802Y-77586673D01*
X149999173Y-77765301D01*
X149902500Y-77998690D01*
X149544660Y-77998690D01*
X149372086Y-77740414D01*
X149080935Y-77545874D01*
X148737500Y-77477560D01*
X147812500Y-77477560D01*
X147469065Y-77545874D01*
X147177914Y-77740414D01*
X146983374Y-78031565D01*
X146915060Y-78375000D01*
X146915060Y-79625000D01*
X146978959Y-79946240D01*
X146935199Y-79990000D01*
X144704497Y-79990000D01*
X144978839Y-79579418D01*
X145094092Y-79000000D01*
X144978839Y-78420582D01*
X144650625Y-77929375D01*
X144159418Y-77601161D01*
X143726256Y-77515000D01*
X143433744Y-77515000D01*
X143000582Y-77601161D01*
X142509375Y-77929375D01*
X142310000Y-78227761D01*
X142110625Y-77929375D01*
X141619418Y-77601161D01*
X141186256Y-77515000D01*
X140893744Y-77515000D01*
X140460582Y-77601161D01*
X139969375Y-77929375D01*
X139954904Y-77951033D01*
X139888327Y-77790302D01*
X139709699Y-77611673D01*
X139476310Y-77515000D01*
X138785750Y-77515000D01*
X138627000Y-77673750D01*
X138627000Y-78873000D01*
X138647000Y-78873000D01*
X138647000Y-79127000D01*
X138627000Y-79127000D01*
X138627000Y-79147000D01*
X138373000Y-79147000D01*
X138373000Y-79127000D01*
X137173750Y-79127000D01*
X137015000Y-79285750D01*
X137015000Y-79976309D01*
X137111673Y-80209698D01*
X137290301Y-80388327D01*
X137294727Y-80390160D01*
X137202071Y-80452071D01*
X137159671Y-80515527D01*
X136515530Y-81159669D01*
X136452071Y-81202071D01*
X136299756Y-81430027D01*
X136031565Y-81483374D01*
X135740414Y-81677914D01*
X135586626Y-81908074D01*
X135548601Y-81882667D01*
X135500000Y-81873000D01*
X135397700Y-81873000D01*
X135397700Y-78023691D01*
X137015000Y-78023691D01*
X137015000Y-78714250D01*
X137173750Y-78873000D01*
X138373000Y-78873000D01*
X138373000Y-77673750D01*
X138214250Y-77515000D01*
X137523690Y-77515000D01*
X137290301Y-77611673D01*
X137111673Y-77790302D01*
X137015000Y-78023691D01*
X135397700Y-78023691D01*
X135397700Y-76897700D01*
X183102300Y-76897700D01*
X183102301Y-125502300D01*
G04 #@! TD*
M02*
