M48
;DRILL file {KiCad 5.0.0-fee4fd1~66~ubuntu16.04.1} date Mon Sep 10 21:40:58 2018
;FORMAT={-:-/ absolute / inch / decimal}
FMAT,2
INCH,TZ
T1C0.0157
T2C0.0394
T3C0.0512
%
G90
G05
M72
T1
X5.374Y-3.75
X5.4232Y-4.5472
X5.4626Y-3.7894
X5.4921Y-4.237
X5.6102Y-3.4941
X5.689Y-3.5039
X5.7579Y-4.4587
X5.8071Y-4.252
X5.8661Y-4.5374
X5.876Y-3.7894
X5.9547Y-3.7598
X5.9646Y-3.2972
X6.0531Y-3.5335
X6.1811Y-3.5531
X6.2205Y-4.7539
X6.3287Y-3.8091
X6.6929Y-3.7598
X6.7224Y-3.5138
T2
X6.1516Y-4.5374
X5.4528Y-3.1102
X5.5528Y-3.1102
X5.6528Y-3.1102
T3
X6.6669Y-3.2579
X6.8669Y-3.2579
X7.0669Y-3.2579
T0
M30
