G04 #@! TF.GenerationSoftware,KiCad,Pcbnew,5.0.0-fee4fd1~66~ubuntu16.04.1*
G04 #@! TF.CreationDate,2018-09-10T21:40:52+02:00*
G04 #@! TF.ProjectId,fpvlaptracker32,6670766C6170747261636B657233322E,rev?*
G04 #@! TF.SameCoordinates,Original*
G04 #@! TF.FileFunction,Legend,Top*
G04 #@! TF.FilePolarity,Positive*
%FSLAX46Y46*%
G04 Gerber Fmt 4.6, Leading zero omitted, Abs format (unit mm)*
G04 Created by KiCad (PCBNEW 5.0.0-fee4fd1~66~ubuntu16.04.1) date Mon Sep 10 21:40:52 2018*
%MOMM*%
%LPD*%
G01*
G04 APERTURE LIST*
%ADD10C,0.300000*%
%ADD11C,0.120000*%
%ADD12C,0.150000*%
%ADD13C,0.500000*%
G04 APERTURE END LIST*
D10*
X155678571Y-122321428D02*
X157178571Y-121821428D01*
X155678571Y-121321428D01*
X157178571Y-119964285D02*
X156464285Y-120464285D01*
X157178571Y-120821428D02*
X155678571Y-120821428D01*
X155678571Y-120250000D01*
X155750000Y-120107142D01*
X155821428Y-120035714D01*
X155964285Y-119964285D01*
X156178571Y-119964285D01*
X156321428Y-120035714D01*
X156392857Y-120107142D01*
X156464285Y-120250000D01*
X156464285Y-120821428D01*
X156392857Y-119321428D02*
X156392857Y-118821428D01*
X157178571Y-118607142D02*
X157178571Y-119321428D01*
X155678571Y-119321428D01*
X155678571Y-118607142D01*
X156392857Y-117464285D02*
X156392857Y-117964285D01*
X157178571Y-117964285D02*
X155678571Y-117964285D01*
X155678571Y-117250000D01*
X154142857Y-85535714D02*
X154142857Y-86035714D01*
X154928571Y-86035714D02*
X153428571Y-86035714D01*
X153428571Y-85321428D01*
X154928571Y-84035714D02*
X154928571Y-84750000D01*
X153428571Y-84750000D01*
X154500000Y-83607142D02*
X154500000Y-82892857D01*
X154928571Y-83750000D02*
X153428571Y-83250000D01*
X154928571Y-82750000D01*
X154857142Y-82321428D02*
X154928571Y-82107142D01*
X154928571Y-81750000D01*
X154857142Y-81607142D01*
X154785714Y-81535714D01*
X154642857Y-81464285D01*
X154500000Y-81464285D01*
X154357142Y-81535714D01*
X154285714Y-81607142D01*
X154214285Y-81750000D01*
X154142857Y-82035714D01*
X154071428Y-82178571D01*
X154000000Y-82250000D01*
X153857142Y-82321428D01*
X153714285Y-82321428D01*
X153571428Y-82250000D01*
X153500000Y-82178571D01*
X153428571Y-82035714D01*
X153428571Y-81678571D01*
X153500000Y-81464285D01*
X154928571Y-80821428D02*
X153428571Y-80821428D01*
X154142857Y-80821428D02*
X154142857Y-79964285D01*
X154928571Y-79964285D02*
X153428571Y-79964285D01*
X139571428Y-120178571D02*
X139071428Y-119464285D01*
X138714285Y-120178571D02*
X138714285Y-118678571D01*
X139285714Y-118678571D01*
X139428571Y-118750000D01*
X139500000Y-118821428D01*
X139571428Y-118964285D01*
X139571428Y-119178571D01*
X139500000Y-119321428D01*
X139428571Y-119392857D01*
X139285714Y-119464285D01*
X138714285Y-119464285D01*
X140214285Y-119392857D02*
X140714285Y-119392857D01*
X140928571Y-120178571D02*
X140214285Y-120178571D01*
X140214285Y-118678571D01*
X140928571Y-118678571D01*
X141500000Y-120107142D02*
X141714285Y-120178571D01*
X142071428Y-120178571D01*
X142214285Y-120107142D01*
X142285714Y-120035714D01*
X142357142Y-119892857D01*
X142357142Y-119750000D01*
X142285714Y-119607142D01*
X142214285Y-119535714D01*
X142071428Y-119464285D01*
X141785714Y-119392857D01*
X141642857Y-119321428D01*
X141571428Y-119250000D01*
X141500000Y-119107142D01*
X141500000Y-118964285D01*
X141571428Y-118821428D01*
X141642857Y-118750000D01*
X141785714Y-118678571D01*
X142142857Y-118678571D01*
X142357142Y-118750000D01*
X143000000Y-119392857D02*
X143500000Y-119392857D01*
X143714285Y-120178571D02*
X143000000Y-120178571D01*
X143000000Y-118678571D01*
X143714285Y-118678571D01*
X144142857Y-118678571D02*
X145000000Y-118678571D01*
X144571428Y-120178571D02*
X144571428Y-118678571D01*
X148142857Y-118678571D02*
X148428571Y-118678571D01*
X148571428Y-118750000D01*
X148714285Y-118892857D01*
X148785714Y-119178571D01*
X148785714Y-119678571D01*
X148714285Y-119964285D01*
X148571428Y-120107142D01*
X148428571Y-120178571D01*
X148142857Y-120178571D01*
X148000000Y-120107142D01*
X147857142Y-119964285D01*
X147785714Y-119678571D01*
X147785714Y-119178571D01*
X147857142Y-118892857D01*
X148000000Y-118750000D01*
X148142857Y-118678571D01*
X149214285Y-118678571D02*
X150071428Y-118678571D01*
X149642857Y-120178571D02*
X149642857Y-118678571D01*
X150500000Y-119750000D02*
X151214285Y-119750000D01*
X150357142Y-120178571D02*
X150857142Y-118678571D01*
X151357142Y-120178571D01*
X144928571Y-123178571D02*
X145500000Y-123178571D01*
X145142857Y-124178571D02*
X145142857Y-122892857D01*
X145214285Y-122750000D01*
X145357142Y-122678571D01*
X145500000Y-122678571D01*
X146000000Y-123178571D02*
X146000000Y-124678571D01*
X146000000Y-123250000D02*
X146142857Y-123178571D01*
X146428571Y-123178571D01*
X146571428Y-123250000D01*
X146642857Y-123321428D01*
X146714285Y-123464285D01*
X146714285Y-123892857D01*
X146642857Y-124035714D01*
X146571428Y-124107142D01*
X146428571Y-124178571D01*
X146142857Y-124178571D01*
X146000000Y-124107142D01*
X147214285Y-123178571D02*
X147571428Y-124178571D01*
X147928571Y-123178571D01*
X148714285Y-124178571D02*
X148571428Y-124107142D01*
X148500000Y-123964285D01*
X148500000Y-122678571D01*
X149928571Y-124178571D02*
X149928571Y-123392857D01*
X149857142Y-123250000D01*
X149714285Y-123178571D01*
X149428571Y-123178571D01*
X149285714Y-123250000D01*
X149928571Y-124107142D02*
X149785714Y-124178571D01*
X149428571Y-124178571D01*
X149285714Y-124107142D01*
X149214285Y-123964285D01*
X149214285Y-123821428D01*
X149285714Y-123678571D01*
X149428571Y-123607142D01*
X149785714Y-123607142D01*
X149928571Y-123535714D01*
X150642857Y-123178571D02*
X150642857Y-124678571D01*
X150642857Y-123250000D02*
X150785714Y-123178571D01*
X151071428Y-123178571D01*
X151214285Y-123250000D01*
X151285714Y-123321428D01*
X151357142Y-123464285D01*
X151357142Y-123892857D01*
X151285714Y-124035714D01*
X151214285Y-124107142D01*
X151071428Y-124178571D01*
X150785714Y-124178571D01*
X150642857Y-124107142D01*
X151785714Y-123178571D02*
X152357142Y-123178571D01*
X152000000Y-122678571D02*
X152000000Y-123964285D01*
X152071428Y-124107142D01*
X152214285Y-124178571D01*
X152357142Y-124178571D01*
X152857142Y-124178571D02*
X152857142Y-123178571D01*
X152857142Y-123464285D02*
X152928571Y-123321428D01*
X153000000Y-123250000D01*
X153142857Y-123178571D01*
X153285714Y-123178571D01*
X154428571Y-124178571D02*
X154428571Y-123392857D01*
X154357142Y-123250000D01*
X154214285Y-123178571D01*
X153928571Y-123178571D01*
X153785714Y-123250000D01*
X154428571Y-124107142D02*
X154285714Y-124178571D01*
X153928571Y-124178571D01*
X153785714Y-124107142D01*
X153714285Y-123964285D01*
X153714285Y-123821428D01*
X153785714Y-123678571D01*
X153928571Y-123607142D01*
X154285714Y-123607142D01*
X154428571Y-123535714D01*
X155785714Y-124107142D02*
X155642857Y-124178571D01*
X155357142Y-124178571D01*
X155214285Y-124107142D01*
X155142857Y-124035714D01*
X155071428Y-123892857D01*
X155071428Y-123464285D01*
X155142857Y-123321428D01*
X155214285Y-123250000D01*
X155357142Y-123178571D01*
X155642857Y-123178571D01*
X155785714Y-123250000D01*
X156428571Y-124178571D02*
X156428571Y-122678571D01*
X156571428Y-123607142D02*
X157000000Y-124178571D01*
X157000000Y-123178571D02*
X156428571Y-123750000D01*
X158214285Y-124107142D02*
X158071428Y-124178571D01*
X157785714Y-124178571D01*
X157642857Y-124107142D01*
X157571428Y-123964285D01*
X157571428Y-123392857D01*
X157642857Y-123250000D01*
X157785714Y-123178571D01*
X158071428Y-123178571D01*
X158214285Y-123250000D01*
X158285714Y-123392857D01*
X158285714Y-123535714D01*
X157571428Y-123678571D01*
X158928571Y-124178571D02*
X158928571Y-123178571D01*
X158928571Y-123464285D02*
X159000000Y-123321428D01*
X159071428Y-123250000D01*
X159214285Y-123178571D01*
X159357142Y-123178571D01*
X159714285Y-122678571D02*
X160642857Y-122678571D01*
X160142857Y-123250000D01*
X160357142Y-123250000D01*
X160500000Y-123321428D01*
X160571428Y-123392857D01*
X160642857Y-123535714D01*
X160642857Y-123892857D01*
X160571428Y-124035714D01*
X160500000Y-124107142D01*
X160357142Y-124178571D01*
X159928571Y-124178571D01*
X159785714Y-124107142D01*
X159714285Y-124035714D01*
X161214285Y-122821428D02*
X161285714Y-122750000D01*
X161428571Y-122678571D01*
X161785714Y-122678571D01*
X161928571Y-122750000D01*
X162000000Y-122821428D01*
X162071428Y-122964285D01*
X162071428Y-123107142D01*
X162000000Y-123321428D01*
X161142857Y-124178571D01*
X162071428Y-124178571D01*
X163714285Y-123178571D02*
X164071428Y-124178571D01*
X164428571Y-123178571D01*
X165785714Y-124178571D02*
X164928571Y-124178571D01*
X165357142Y-124178571D02*
X165357142Y-122678571D01*
X165214285Y-122892857D01*
X165071428Y-123035714D01*
X164928571Y-123107142D01*
X166428571Y-124035714D02*
X166500000Y-124107142D01*
X166428571Y-124178571D01*
X166357142Y-124107142D01*
X166428571Y-124035714D01*
X166428571Y-124178571D01*
X167928571Y-124178571D02*
X167071428Y-124178571D01*
X167500000Y-124178571D02*
X167500000Y-122678571D01*
X167357142Y-122892857D01*
X167214285Y-123035714D01*
X167071428Y-123107142D01*
D11*
G04 #@! TO.C,SW2*
X151100000Y-85900000D02*
X151000000Y-85900000D01*
X149500000Y-81500000D02*
X149500000Y-85900000D01*
X152600000Y-85900000D02*
X152600000Y-81500000D01*
X151100000Y-81500000D02*
X151000000Y-81500000D01*
G04 #@! TO.C,SW3*
X139800000Y-116250000D02*
X139800000Y-116150000D01*
X144200000Y-114650000D02*
X139800000Y-114650000D01*
X139800000Y-117750000D02*
X144200000Y-117750000D01*
X144200000Y-116250000D02*
X144200000Y-116150000D01*
G04 #@! TO.C,SW1*
X147300000Y-116050000D02*
X147300000Y-115950000D01*
X151700000Y-114450000D02*
X147300000Y-114450000D01*
X147300000Y-117550000D02*
X151700000Y-117550000D01*
X151700000Y-116050000D02*
X151700000Y-115950000D01*
G04 #@! TO.C,J1*
X178816682Y-81215244D02*
G75*
G02X179500000Y-81070000I683318J-1534756D01*
G01*
X177964574Y-83433042D02*
G75*
G02X177965000Y-82066000I1535426J683042D01*
G01*
X180183042Y-84285426D02*
G75*
G02X178816000Y-84285000I-683042J1535426D01*
G01*
X181035426Y-82066958D02*
G75*
G02X181035000Y-83434000I-1535426J-683042D01*
G01*
X179471195Y-81069747D02*
G75*
G02X180184000Y-81215000I28805J-1680253D01*
G01*
X176100000Y-82750000D02*
G75*
G03X176100000Y-82750000I-1680000J0D01*
G01*
X171020000Y-82750000D02*
G75*
G03X171020000Y-82750000I-1680000J0D01*
G01*
X182100000Y-78650000D02*
X166740000Y-78650000D01*
X182100000Y-80150000D02*
X166740000Y-80150000D01*
X182100000Y-85051000D02*
X166740000Y-85051000D01*
X182100000Y-88011000D02*
X166740000Y-88011000D01*
X182100000Y-78090000D02*
X166740000Y-78090000D01*
X182100000Y-88011000D02*
X182100000Y-78090000D01*
X166740000Y-88011000D02*
X166740000Y-78090000D01*
X173145000Y-83819000D02*
X173192000Y-83773000D01*
X175454000Y-81511000D02*
X175489000Y-81476000D01*
X173350000Y-84025000D02*
X173385000Y-83989000D01*
X175647000Y-81727000D02*
X175694000Y-81681000D01*
X168065000Y-83819000D02*
X168112000Y-83773000D01*
X170374000Y-81511000D02*
X170409000Y-81476000D01*
X168270000Y-84025000D02*
X168305000Y-83989000D01*
X170567000Y-81727000D02*
X170614000Y-81681000D01*
X182340000Y-78590000D02*
X182340000Y-77850000D01*
X182340000Y-77850000D02*
X181840000Y-77850000D01*
D12*
G04 #@! TO.C,U1*
X159320000Y-92190000D02*
X159320000Y-120990000D01*
X159320000Y-120990000D02*
X182180000Y-120990000D01*
X182180000Y-120990000D02*
X182180000Y-92190000D01*
X182180000Y-92190000D02*
X159320000Y-92190000D01*
D11*
G04 #@! TO.C,R1*
X150364564Y-78090000D02*
X149160436Y-78090000D01*
X150364564Y-79910000D02*
X149160436Y-79910000D01*
G04 #@! TO.C,R13*
X137910000Y-83660436D02*
X137910000Y-84864564D01*
X136090000Y-83660436D02*
X136090000Y-84864564D01*
D13*
G04 #@! TO.C,U3*
X136279981Y-111156000D02*
G75*
G03X136279981Y-111156000I-283981J0D01*
G01*
D12*
X135850000Y-92250000D02*
X135850000Y-110250000D01*
X129850000Y-110250000D02*
X155350000Y-110250000D01*
X129850000Y-92250000D02*
X155350000Y-92250000D01*
X155350000Y-92250000D02*
X155350000Y-110250000D01*
X129850000Y-92250000D02*
X129850000Y-110250000D01*
D11*
G04 #@! TO.C,D1*
X138865000Y-81777500D02*
X138865000Y-85837500D01*
X141135000Y-81777500D02*
X138865000Y-81777500D01*
X141135000Y-85837500D02*
X141135000Y-81777500D01*
G04 #@! TO.C,D5*
X144385000Y-85837500D02*
X144385000Y-81777500D01*
X144385000Y-81777500D02*
X142115000Y-81777500D01*
X142115000Y-81777500D02*
X142115000Y-85837500D01*
G04 #@! TO.C,R5*
X147160000Y-83635436D02*
X147160000Y-84839564D01*
X145340000Y-83635436D02*
X145340000Y-84839564D01*
G04 #@! TO.C,J2*
X144910000Y-80330000D02*
X144910000Y-77670000D01*
X139770000Y-80330000D02*
X144910000Y-80330000D01*
X139770000Y-77670000D02*
X144910000Y-77670000D01*
X139770000Y-80330000D02*
X139770000Y-77670000D01*
X138500000Y-80330000D02*
X137170000Y-80330000D01*
X137170000Y-80330000D02*
X137170000Y-79000000D01*
G04 #@! TO.C,J3*
X157580000Y-116580000D02*
X157580000Y-113920000D01*
X157520000Y-116580000D02*
X157580000Y-116580000D01*
X157520000Y-113920000D02*
X157580000Y-113920000D01*
X157520000Y-116580000D02*
X157520000Y-113920000D01*
X156250000Y-116580000D02*
X154920000Y-116580000D01*
X154920000Y-116580000D02*
X154920000Y-115250000D01*
G04 #@! TO.C,SW2*
D12*
X149004761Y-85033333D02*
X149052380Y-84890476D01*
X149052380Y-84652380D01*
X149004761Y-84557142D01*
X148957142Y-84509523D01*
X148861904Y-84461904D01*
X148766666Y-84461904D01*
X148671428Y-84509523D01*
X148623809Y-84557142D01*
X148576190Y-84652380D01*
X148528571Y-84842857D01*
X148480952Y-84938095D01*
X148433333Y-84985714D01*
X148338095Y-85033333D01*
X148242857Y-85033333D01*
X148147619Y-84985714D01*
X148100000Y-84938095D01*
X148052380Y-84842857D01*
X148052380Y-84604761D01*
X148100000Y-84461904D01*
X148052380Y-84128571D02*
X149052380Y-83890476D01*
X148338095Y-83700000D01*
X149052380Y-83509523D01*
X148052380Y-83271428D01*
X148147619Y-82938095D02*
X148100000Y-82890476D01*
X148052380Y-82795238D01*
X148052380Y-82557142D01*
X148100000Y-82461904D01*
X148147619Y-82414285D01*
X148242857Y-82366666D01*
X148338095Y-82366666D01*
X148480952Y-82414285D01*
X149052380Y-82985714D01*
X149052380Y-82366666D01*
G04 #@! TO.C,SW3*
X140666666Y-114154761D02*
X140809523Y-114202380D01*
X141047619Y-114202380D01*
X141142857Y-114154761D01*
X141190476Y-114107142D01*
X141238095Y-114011904D01*
X141238095Y-113916666D01*
X141190476Y-113821428D01*
X141142857Y-113773809D01*
X141047619Y-113726190D01*
X140857142Y-113678571D01*
X140761904Y-113630952D01*
X140714285Y-113583333D01*
X140666666Y-113488095D01*
X140666666Y-113392857D01*
X140714285Y-113297619D01*
X140761904Y-113250000D01*
X140857142Y-113202380D01*
X141095238Y-113202380D01*
X141238095Y-113250000D01*
X141571428Y-113202380D02*
X141809523Y-114202380D01*
X142000000Y-113488095D01*
X142190476Y-114202380D01*
X142428571Y-113202380D01*
X142714285Y-113202380D02*
X143333333Y-113202380D01*
X143000000Y-113583333D01*
X143142857Y-113583333D01*
X143238095Y-113630952D01*
X143285714Y-113678571D01*
X143333333Y-113773809D01*
X143333333Y-114011904D01*
X143285714Y-114107142D01*
X143238095Y-114154761D01*
X143142857Y-114202380D01*
X142857142Y-114202380D01*
X142761904Y-114154761D01*
X142714285Y-114107142D01*
G04 #@! TO.C,SW1*
X148166666Y-113954761D02*
X148309523Y-114002380D01*
X148547619Y-114002380D01*
X148642857Y-113954761D01*
X148690476Y-113907142D01*
X148738095Y-113811904D01*
X148738095Y-113716666D01*
X148690476Y-113621428D01*
X148642857Y-113573809D01*
X148547619Y-113526190D01*
X148357142Y-113478571D01*
X148261904Y-113430952D01*
X148214285Y-113383333D01*
X148166666Y-113288095D01*
X148166666Y-113192857D01*
X148214285Y-113097619D01*
X148261904Y-113050000D01*
X148357142Y-113002380D01*
X148595238Y-113002380D01*
X148738095Y-113050000D01*
X149071428Y-113002380D02*
X149309523Y-114002380D01*
X149500000Y-113288095D01*
X149690476Y-114002380D01*
X149928571Y-113002380D01*
X150833333Y-114002380D02*
X150261904Y-114002380D01*
X150547619Y-114002380D02*
X150547619Y-113002380D01*
X150452380Y-113145238D01*
X150357142Y-113240476D01*
X150261904Y-113288095D01*
G04 #@! TO.C,J1*
X174086666Y-88462380D02*
X174086666Y-89176666D01*
X174039047Y-89319523D01*
X173943809Y-89414761D01*
X173800952Y-89462380D01*
X173705714Y-89462380D01*
X175086666Y-89462380D02*
X174515238Y-89462380D01*
X174800952Y-89462380D02*
X174800952Y-88462380D01*
X174705714Y-88605238D01*
X174610476Y-88700476D01*
X174515238Y-88748095D01*
G04 #@! TO.C,U1*
X177822380Y-112861904D02*
X178631904Y-112861904D01*
X178727142Y-112814285D01*
X178774761Y-112766666D01*
X178822380Y-112671428D01*
X178822380Y-112480952D01*
X178774761Y-112385714D01*
X178727142Y-112338095D01*
X178631904Y-112290476D01*
X177822380Y-112290476D01*
X178822380Y-111290476D02*
X178822380Y-111861904D01*
X178822380Y-111576190D02*
X177822380Y-111576190D01*
X177965238Y-111671428D01*
X178060476Y-111766666D01*
X178108095Y-111861904D01*
X178822380Y-104011428D02*
X178346190Y-104344761D01*
X178822380Y-104582857D02*
X177822380Y-104582857D01*
X177822380Y-104201904D01*
X177870000Y-104106666D01*
X177917619Y-104059047D01*
X178012857Y-104011428D01*
X178155714Y-104011428D01*
X178250952Y-104059047D01*
X178298571Y-104106666D01*
X178346190Y-104201904D01*
X178346190Y-104582857D01*
X177822380Y-103678095D02*
X178822380Y-103011428D01*
X177822380Y-103011428D02*
X178822380Y-103678095D01*
X177822380Y-102154285D02*
X177822380Y-102630476D01*
X178298571Y-102678095D01*
X178250952Y-102630476D01*
X178203333Y-102535238D01*
X178203333Y-102297142D01*
X178250952Y-102201904D01*
X178298571Y-102154285D01*
X178393809Y-102106666D01*
X178631904Y-102106666D01*
X178727142Y-102154285D01*
X178774761Y-102201904D01*
X178822380Y-102297142D01*
X178822380Y-102535238D01*
X178774761Y-102630476D01*
X178727142Y-102678095D01*
X178250952Y-101535238D02*
X178203333Y-101630476D01*
X178155714Y-101678095D01*
X178060476Y-101725714D01*
X178012857Y-101725714D01*
X177917619Y-101678095D01*
X177870000Y-101630476D01*
X177822380Y-101535238D01*
X177822380Y-101344761D01*
X177870000Y-101249523D01*
X177917619Y-101201904D01*
X178012857Y-101154285D01*
X178060476Y-101154285D01*
X178155714Y-101201904D01*
X178203333Y-101249523D01*
X178250952Y-101344761D01*
X178250952Y-101535238D01*
X178298571Y-101630476D01*
X178346190Y-101678095D01*
X178441428Y-101725714D01*
X178631904Y-101725714D01*
X178727142Y-101678095D01*
X178774761Y-101630476D01*
X178822380Y-101535238D01*
X178822380Y-101344761D01*
X178774761Y-101249523D01*
X178727142Y-101201904D01*
X178631904Y-101154285D01*
X178441428Y-101154285D01*
X178346190Y-101201904D01*
X178298571Y-101249523D01*
X178250952Y-101344761D01*
X177822380Y-100535238D02*
X177822380Y-100440000D01*
X177870000Y-100344761D01*
X177917619Y-100297142D01*
X178012857Y-100249523D01*
X178203333Y-100201904D01*
X178441428Y-100201904D01*
X178631904Y-100249523D01*
X178727142Y-100297142D01*
X178774761Y-100344761D01*
X178822380Y-100440000D01*
X178822380Y-100535238D01*
X178774761Y-100630476D01*
X178727142Y-100678095D01*
X178631904Y-100725714D01*
X178441428Y-100773333D01*
X178203333Y-100773333D01*
X178012857Y-100725714D01*
X177917619Y-100678095D01*
X177870000Y-100630476D01*
X177822380Y-100535238D01*
X178250952Y-99630476D02*
X178203333Y-99725714D01*
X178155714Y-99773333D01*
X178060476Y-99820952D01*
X178012857Y-99820952D01*
X177917619Y-99773333D01*
X177870000Y-99725714D01*
X177822380Y-99630476D01*
X177822380Y-99440000D01*
X177870000Y-99344761D01*
X177917619Y-99297142D01*
X178012857Y-99249523D01*
X178060476Y-99249523D01*
X178155714Y-99297142D01*
X178203333Y-99344761D01*
X178250952Y-99440000D01*
X178250952Y-99630476D01*
X178298571Y-99725714D01*
X178346190Y-99773333D01*
X178441428Y-99820952D01*
X178631904Y-99820952D01*
X178727142Y-99773333D01*
X178774761Y-99725714D01*
X178822380Y-99630476D01*
X178822380Y-99440000D01*
X178774761Y-99344761D01*
X178727142Y-99297142D01*
X178631904Y-99249523D01*
X178441428Y-99249523D01*
X178346190Y-99297142D01*
X178298571Y-99344761D01*
X178250952Y-99440000D01*
X162582380Y-114829523D02*
X162582380Y-115305714D01*
X163058571Y-115353333D01*
X163010952Y-115305714D01*
X162963333Y-115210476D01*
X162963333Y-114972380D01*
X163010952Y-114877142D01*
X163058571Y-114829523D01*
X163153809Y-114781904D01*
X163391904Y-114781904D01*
X163487142Y-114829523D01*
X163534761Y-114877142D01*
X163582380Y-114972380D01*
X163582380Y-115210476D01*
X163534761Y-115305714D01*
X163487142Y-115353333D01*
X163534761Y-114305714D02*
X163582380Y-114305714D01*
X163677619Y-114353333D01*
X163725238Y-114400952D01*
X163010952Y-113734285D02*
X162963333Y-113829523D01*
X162915714Y-113877142D01*
X162820476Y-113924761D01*
X162772857Y-113924761D01*
X162677619Y-113877142D01*
X162630000Y-113829523D01*
X162582380Y-113734285D01*
X162582380Y-113543809D01*
X162630000Y-113448571D01*
X162677619Y-113400952D01*
X162772857Y-113353333D01*
X162820476Y-113353333D01*
X162915714Y-113400952D01*
X162963333Y-113448571D01*
X163010952Y-113543809D01*
X163010952Y-113734285D01*
X163058571Y-113829523D01*
X163106190Y-113877142D01*
X163201428Y-113924761D01*
X163391904Y-113924761D01*
X163487142Y-113877142D01*
X163534761Y-113829523D01*
X163582380Y-113734285D01*
X163582380Y-113543809D01*
X163534761Y-113448571D01*
X163487142Y-113400952D01*
X163391904Y-113353333D01*
X163201428Y-113353333D01*
X163106190Y-113400952D01*
X163058571Y-113448571D01*
X163010952Y-113543809D01*
X162630000Y-112400952D02*
X162582380Y-112496190D01*
X162582380Y-112639047D01*
X162630000Y-112781904D01*
X162725238Y-112877142D01*
X162820476Y-112924761D01*
X163010952Y-112972380D01*
X163153809Y-112972380D01*
X163344285Y-112924761D01*
X163439523Y-112877142D01*
X163534761Y-112781904D01*
X163582380Y-112639047D01*
X163582380Y-112543809D01*
X163534761Y-112400952D01*
X163487142Y-112353333D01*
X163153809Y-112353333D01*
X163153809Y-112543809D01*
X163582380Y-111924761D02*
X162582380Y-111924761D01*
X163058571Y-111924761D02*
X163058571Y-111353333D01*
X163582380Y-111353333D02*
X162582380Y-111353333D01*
X162915714Y-110972380D02*
X162915714Y-110448571D01*
X163582380Y-110972380D01*
X163582380Y-110448571D01*
X162582380Y-109448571D02*
X163582380Y-109115238D01*
X162582380Y-108781904D01*
X163582380Y-108448571D02*
X162915714Y-108448571D01*
X162582380Y-108448571D02*
X162630000Y-108496190D01*
X162677619Y-108448571D01*
X162630000Y-108400952D01*
X162582380Y-108448571D01*
X162677619Y-108448571D01*
X163582380Y-107543809D02*
X162582380Y-107543809D01*
X163534761Y-107543809D02*
X163582380Y-107639047D01*
X163582380Y-107829523D01*
X163534761Y-107924761D01*
X163487142Y-107972380D01*
X163391904Y-108020000D01*
X163106190Y-108020000D01*
X163010952Y-107972380D01*
X162963333Y-107924761D01*
X162915714Y-107829523D01*
X162915714Y-107639047D01*
X162963333Y-107543809D01*
X163534761Y-106686666D02*
X163582380Y-106781904D01*
X163582380Y-106972380D01*
X163534761Y-107067619D01*
X163439523Y-107115238D01*
X163058571Y-107115238D01*
X162963333Y-107067619D01*
X162915714Y-106972380D01*
X162915714Y-106781904D01*
X162963333Y-106686666D01*
X163058571Y-106639047D01*
X163153809Y-106639047D01*
X163249047Y-107115238D01*
X163582380Y-106067619D02*
X163534761Y-106162857D01*
X163487142Y-106210476D01*
X163391904Y-106258095D01*
X163106190Y-106258095D01*
X163010952Y-106210476D01*
X162963333Y-106162857D01*
X162915714Y-106067619D01*
X162915714Y-105924761D01*
X162963333Y-105829523D01*
X163010952Y-105781904D01*
X163106190Y-105734285D01*
X163391904Y-105734285D01*
X163487142Y-105781904D01*
X163534761Y-105829523D01*
X163582380Y-105924761D01*
X163582380Y-106067619D01*
X163582380Y-103972380D02*
X163106190Y-104305714D01*
X163582380Y-104543809D02*
X162582380Y-104543809D01*
X162582380Y-104162857D01*
X162630000Y-104067619D01*
X162677619Y-104020000D01*
X162772857Y-103972380D01*
X162915714Y-103972380D01*
X163010952Y-104020000D01*
X163058571Y-104067619D01*
X163106190Y-104162857D01*
X163106190Y-104543809D01*
X163534761Y-103162857D02*
X163582380Y-103258095D01*
X163582380Y-103448571D01*
X163534761Y-103543809D01*
X163439523Y-103591428D01*
X163058571Y-103591428D01*
X162963333Y-103543809D01*
X162915714Y-103448571D01*
X162915714Y-103258095D01*
X162963333Y-103162857D01*
X163058571Y-103115238D01*
X163153809Y-103115238D01*
X163249047Y-103591428D01*
X163534761Y-102258095D02*
X163582380Y-102353333D01*
X163582380Y-102543809D01*
X163534761Y-102639047D01*
X163487142Y-102686666D01*
X163391904Y-102734285D01*
X163106190Y-102734285D01*
X163010952Y-102686666D01*
X162963333Y-102639047D01*
X162915714Y-102543809D01*
X162915714Y-102353333D01*
X162963333Y-102258095D01*
X163534761Y-101448571D02*
X163582380Y-101543809D01*
X163582380Y-101734285D01*
X163534761Y-101829523D01*
X163439523Y-101877142D01*
X163058571Y-101877142D01*
X162963333Y-101829523D01*
X162915714Y-101734285D01*
X162915714Y-101543809D01*
X162963333Y-101448571D01*
X163058571Y-101400952D01*
X163153809Y-101400952D01*
X163249047Y-101877142D01*
X163582380Y-100972380D02*
X162915714Y-100972380D01*
X162582380Y-100972380D02*
X162630000Y-101020000D01*
X162677619Y-100972380D01*
X162630000Y-100924761D01*
X162582380Y-100972380D01*
X162677619Y-100972380D01*
X162915714Y-100591428D02*
X163582380Y-100353333D01*
X162915714Y-100115238D01*
X163534761Y-99353333D02*
X163582380Y-99448571D01*
X163582380Y-99639047D01*
X163534761Y-99734285D01*
X163439523Y-99781904D01*
X163058571Y-99781904D01*
X162963333Y-99734285D01*
X162915714Y-99639047D01*
X162915714Y-99448571D01*
X162963333Y-99353333D01*
X163058571Y-99305714D01*
X163153809Y-99305714D01*
X163249047Y-99781904D01*
X163582380Y-98877142D02*
X162915714Y-98877142D01*
X163106190Y-98877142D02*
X163010952Y-98829523D01*
X162963333Y-98781904D01*
X162915714Y-98686666D01*
X162915714Y-98591428D01*
G04 #@! TO.C,R1*
X149595833Y-81272380D02*
X149262500Y-80796190D01*
X149024404Y-81272380D02*
X149024404Y-80272380D01*
X149405357Y-80272380D01*
X149500595Y-80320000D01*
X149548214Y-80367619D01*
X149595833Y-80462857D01*
X149595833Y-80605714D01*
X149548214Y-80700952D01*
X149500595Y-80748571D01*
X149405357Y-80796190D01*
X149024404Y-80796190D01*
X150548214Y-81272380D02*
X149976785Y-81272380D01*
X150262500Y-81272380D02*
X150262500Y-80272380D01*
X150167261Y-80415238D01*
X150072023Y-80510476D01*
X149976785Y-80558095D01*
G04 #@! TO.C,R13*
X139272380Y-84905357D02*
X138796190Y-85238690D01*
X139272380Y-85476785D02*
X138272380Y-85476785D01*
X138272380Y-85095833D01*
X138320000Y-85000595D01*
X138367619Y-84952976D01*
X138462857Y-84905357D01*
X138605714Y-84905357D01*
X138700952Y-84952976D01*
X138748571Y-85000595D01*
X138796190Y-85095833D01*
X138796190Y-85476785D01*
X139272380Y-83952976D02*
X139272380Y-84524404D01*
X139272380Y-84238690D02*
X138272380Y-84238690D01*
X138415238Y-84333928D01*
X138510476Y-84429166D01*
X138558095Y-84524404D01*
X138272380Y-83619642D02*
X138272380Y-83000595D01*
X138653333Y-83333928D01*
X138653333Y-83191071D01*
X138700952Y-83095833D01*
X138748571Y-83048214D01*
X138843809Y-83000595D01*
X139081904Y-83000595D01*
X139177142Y-83048214D01*
X139224761Y-83095833D01*
X139272380Y-83191071D01*
X139272380Y-83476785D01*
X139224761Y-83572023D01*
X139177142Y-83619642D01*
G04 #@! TO.C,U3*
X136452380Y-89761904D02*
X137261904Y-89761904D01*
X137357142Y-89714285D01*
X137404761Y-89666666D01*
X137452380Y-89571428D01*
X137452380Y-89380952D01*
X137404761Y-89285714D01*
X137357142Y-89238095D01*
X137261904Y-89190476D01*
X136452380Y-89190476D01*
X136452380Y-88809523D02*
X136452380Y-88190476D01*
X136833333Y-88523809D01*
X136833333Y-88380952D01*
X136880952Y-88285714D01*
X136928571Y-88238095D01*
X137023809Y-88190476D01*
X137261904Y-88190476D01*
X137357142Y-88238095D01*
X137404761Y-88285714D01*
X137452380Y-88380952D01*
X137452380Y-88666666D01*
X137404761Y-88761904D01*
X137357142Y-88809523D01*
X136917571Y-94320571D02*
X137250904Y-94320571D01*
X137393761Y-94844380D02*
X136917571Y-94844380D01*
X136917571Y-93844380D01*
X137393761Y-93844380D01*
X137774714Y-94796761D02*
X137869952Y-94844380D01*
X138060428Y-94844380D01*
X138155666Y-94796761D01*
X138203285Y-94701523D01*
X138203285Y-94653904D01*
X138155666Y-94558666D01*
X138060428Y-94511047D01*
X137917571Y-94511047D01*
X137822333Y-94463428D01*
X137774714Y-94368190D01*
X137774714Y-94320571D01*
X137822333Y-94225333D01*
X137917571Y-94177714D01*
X138060428Y-94177714D01*
X138155666Y-94225333D01*
X138631857Y-94177714D02*
X138631857Y-95177714D01*
X138631857Y-94225333D02*
X138727095Y-94177714D01*
X138917571Y-94177714D01*
X139012809Y-94225333D01*
X139060428Y-94272952D01*
X139108047Y-94368190D01*
X139108047Y-94653904D01*
X139060428Y-94749142D01*
X139012809Y-94796761D01*
X138917571Y-94844380D01*
X138727095Y-94844380D01*
X138631857Y-94796761D01*
X139536619Y-94844380D02*
X139536619Y-94177714D01*
X139536619Y-94368190D02*
X139584238Y-94272952D01*
X139631857Y-94225333D01*
X139727095Y-94177714D01*
X139822333Y-94177714D01*
X140536619Y-94796761D02*
X140441380Y-94844380D01*
X140250904Y-94844380D01*
X140155666Y-94796761D01*
X140108047Y-94701523D01*
X140108047Y-94320571D01*
X140155666Y-94225333D01*
X140250904Y-94177714D01*
X140441380Y-94177714D01*
X140536619Y-94225333D01*
X140584238Y-94320571D01*
X140584238Y-94415809D01*
X140108047Y-94511047D01*
X140965190Y-94796761D02*
X141060428Y-94844380D01*
X141250904Y-94844380D01*
X141346142Y-94796761D01*
X141393761Y-94701523D01*
X141393761Y-94653904D01*
X141346142Y-94558666D01*
X141250904Y-94511047D01*
X141108047Y-94511047D01*
X141012809Y-94463428D01*
X140965190Y-94368190D01*
X140965190Y-94320571D01*
X141012809Y-94225333D01*
X141108047Y-94177714D01*
X141250904Y-94177714D01*
X141346142Y-94225333D01*
X141774714Y-94796761D02*
X141869952Y-94844380D01*
X142060428Y-94844380D01*
X142155666Y-94796761D01*
X142203285Y-94701523D01*
X142203285Y-94653904D01*
X142155666Y-94558666D01*
X142060428Y-94511047D01*
X141917571Y-94511047D01*
X141822333Y-94463428D01*
X141774714Y-94368190D01*
X141774714Y-94320571D01*
X141822333Y-94225333D01*
X141917571Y-94177714D01*
X142060428Y-94177714D01*
X142155666Y-94225333D01*
X142631857Y-94844380D02*
X142631857Y-94177714D01*
X142631857Y-93844380D02*
X142584238Y-93892000D01*
X142631857Y-93939619D01*
X142679476Y-93892000D01*
X142631857Y-93844380D01*
X142631857Y-93939619D01*
X142965190Y-94177714D02*
X143346142Y-94177714D01*
X143108047Y-94844380D02*
X143108047Y-93987238D01*
X143155666Y-93892000D01*
X143250904Y-93844380D01*
X143346142Y-93844380D01*
X144393761Y-94796761D02*
X144536619Y-94844380D01*
X144774714Y-94844380D01*
X144869952Y-94796761D01*
X144917571Y-94749142D01*
X144965190Y-94653904D01*
X144965190Y-94558666D01*
X144917571Y-94463428D01*
X144869952Y-94415809D01*
X144774714Y-94368190D01*
X144584238Y-94320571D01*
X144489000Y-94272952D01*
X144441380Y-94225333D01*
X144393761Y-94130095D01*
X144393761Y-94034857D01*
X144441380Y-93939619D01*
X144489000Y-93892000D01*
X144584238Y-93844380D01*
X144822333Y-93844380D01*
X144965190Y-93892000D01*
X145298523Y-94177714D02*
X145536619Y-94844380D01*
X145774714Y-94177714D02*
X145536619Y-94844380D01*
X145441380Y-95082476D01*
X145393761Y-95130095D01*
X145298523Y-95177714D01*
X146108047Y-94796761D02*
X146203285Y-94844380D01*
X146393761Y-94844380D01*
X146489000Y-94796761D01*
X146536619Y-94701523D01*
X146536619Y-94653904D01*
X146489000Y-94558666D01*
X146393761Y-94511047D01*
X146250904Y-94511047D01*
X146155666Y-94463428D01*
X146108047Y-94368190D01*
X146108047Y-94320571D01*
X146155666Y-94225333D01*
X146250904Y-94177714D01*
X146393761Y-94177714D01*
X146489000Y-94225333D01*
X146822333Y-94177714D02*
X147203285Y-94177714D01*
X146965190Y-93844380D02*
X146965190Y-94701523D01*
X147012809Y-94796761D01*
X147108047Y-94844380D01*
X147203285Y-94844380D01*
X147917571Y-94796761D02*
X147822333Y-94844380D01*
X147631857Y-94844380D01*
X147536619Y-94796761D01*
X147489000Y-94701523D01*
X147489000Y-94320571D01*
X147536619Y-94225333D01*
X147631857Y-94177714D01*
X147822333Y-94177714D01*
X147917571Y-94225333D01*
X147965190Y-94320571D01*
X147965190Y-94415809D01*
X147489000Y-94511047D01*
X148393761Y-94844380D02*
X148393761Y-94177714D01*
X148393761Y-94272952D02*
X148441380Y-94225333D01*
X148536619Y-94177714D01*
X148679476Y-94177714D01*
X148774714Y-94225333D01*
X148822333Y-94320571D01*
X148822333Y-94844380D01*
X148822333Y-94320571D02*
X148869952Y-94225333D01*
X148965190Y-94177714D01*
X149108047Y-94177714D01*
X149203285Y-94225333D01*
X149250904Y-94320571D01*
X149250904Y-94844380D01*
X149679476Y-94796761D02*
X149774714Y-94844380D01*
X149965190Y-94844380D01*
X150060428Y-94796761D01*
X150108047Y-94701523D01*
X150108047Y-94653904D01*
X150060428Y-94558666D01*
X149965190Y-94511047D01*
X149822333Y-94511047D01*
X149727095Y-94463428D01*
X149679476Y-94368190D01*
X149679476Y-94320571D01*
X149727095Y-94225333D01*
X149822333Y-94177714D01*
X149965190Y-94177714D01*
X150060428Y-94225333D01*
X136893619Y-95971571D02*
X137226952Y-95971571D01*
X137369809Y-96495380D02*
X136893619Y-96495380D01*
X136893619Y-95495380D01*
X137369809Y-95495380D01*
X137750761Y-96447761D02*
X137893619Y-96495380D01*
X138131714Y-96495380D01*
X138226952Y-96447761D01*
X138274571Y-96400142D01*
X138322190Y-96304904D01*
X138322190Y-96209666D01*
X138274571Y-96114428D01*
X138226952Y-96066809D01*
X138131714Y-96019190D01*
X137941238Y-95971571D01*
X137846000Y-95923952D01*
X137798380Y-95876333D01*
X137750761Y-95781095D01*
X137750761Y-95685857D01*
X137798380Y-95590619D01*
X137846000Y-95543000D01*
X137941238Y-95495380D01*
X138179333Y-95495380D01*
X138322190Y-95543000D01*
X138750761Y-96495380D02*
X138750761Y-95495380D01*
X139131714Y-95495380D01*
X139226952Y-95543000D01*
X139274571Y-95590619D01*
X139322190Y-95685857D01*
X139322190Y-95828714D01*
X139274571Y-95923952D01*
X139226952Y-95971571D01*
X139131714Y-96019190D01*
X138750761Y-96019190D01*
X139655523Y-95495380D02*
X140274571Y-95495380D01*
X139941238Y-95876333D01*
X140084095Y-95876333D01*
X140179333Y-95923952D01*
X140226952Y-95971571D01*
X140274571Y-96066809D01*
X140274571Y-96304904D01*
X140226952Y-96400142D01*
X140179333Y-96447761D01*
X140084095Y-96495380D01*
X139798380Y-96495380D01*
X139703142Y-96447761D01*
X139655523Y-96400142D01*
X140655523Y-95590619D02*
X140703142Y-95543000D01*
X140798380Y-95495380D01*
X141036476Y-95495380D01*
X141131714Y-95543000D01*
X141179333Y-95590619D01*
X141226952Y-95685857D01*
X141226952Y-95781095D01*
X141179333Y-95923952D01*
X140607904Y-96495380D01*
X141226952Y-96495380D01*
X141655523Y-96114428D02*
X142417428Y-96114428D01*
X142798380Y-95495380D02*
X143036476Y-96495380D01*
X143226952Y-95781095D01*
X143417428Y-96495380D01*
X143655523Y-95495380D01*
X144607904Y-96495380D02*
X144274571Y-96019190D01*
X144036476Y-96495380D02*
X144036476Y-95495380D01*
X144417428Y-95495380D01*
X144512666Y-95543000D01*
X144560285Y-95590619D01*
X144607904Y-95685857D01*
X144607904Y-95828714D01*
X144560285Y-95923952D01*
X144512666Y-95971571D01*
X144417428Y-96019190D01*
X144036476Y-96019190D01*
X145226952Y-95495380D02*
X145417428Y-95495380D01*
X145512666Y-95543000D01*
X145607904Y-95638238D01*
X145655523Y-95828714D01*
X145655523Y-96162047D01*
X145607904Y-96352523D01*
X145512666Y-96447761D01*
X145417428Y-96495380D01*
X145226952Y-96495380D01*
X145131714Y-96447761D01*
X145036476Y-96352523D01*
X144988857Y-96162047D01*
X144988857Y-95828714D01*
X145036476Y-95638238D01*
X145131714Y-95543000D01*
X145226952Y-95495380D01*
X146274571Y-95495380D02*
X146465047Y-95495380D01*
X146560285Y-95543000D01*
X146655523Y-95638238D01*
X146703142Y-95828714D01*
X146703142Y-96162047D01*
X146655523Y-96352523D01*
X146560285Y-96447761D01*
X146465047Y-96495380D01*
X146274571Y-96495380D01*
X146179333Y-96447761D01*
X146084095Y-96352523D01*
X146036476Y-96162047D01*
X146036476Y-95828714D01*
X146084095Y-95638238D01*
X146179333Y-95543000D01*
X146274571Y-95495380D01*
X147131714Y-96495380D02*
X147131714Y-95495380D01*
X147465047Y-96209666D01*
X147798380Y-95495380D01*
X147798380Y-96495380D01*
G04 #@! TO.C,D1*
X142272380Y-84975595D02*
X141272380Y-84975595D01*
X141272380Y-84737500D01*
X141320000Y-84594642D01*
X141415238Y-84499404D01*
X141510476Y-84451785D01*
X141700952Y-84404166D01*
X141843809Y-84404166D01*
X142034285Y-84451785D01*
X142129523Y-84499404D01*
X142224761Y-84594642D01*
X142272380Y-84737500D01*
X142272380Y-84975595D01*
X142272380Y-83451785D02*
X142272380Y-84023214D01*
X142272380Y-83737500D02*
X141272380Y-83737500D01*
X141415238Y-83832738D01*
X141510476Y-83927976D01*
X141558095Y-84023214D01*
G04 #@! TO.C,D5*
X145522380Y-84975595D02*
X144522380Y-84975595D01*
X144522380Y-84737500D01*
X144570000Y-84594642D01*
X144665238Y-84499404D01*
X144760476Y-84451785D01*
X144950952Y-84404166D01*
X145093809Y-84404166D01*
X145284285Y-84451785D01*
X145379523Y-84499404D01*
X145474761Y-84594642D01*
X145522380Y-84737500D01*
X145522380Y-84975595D01*
X144522380Y-83499404D02*
X144522380Y-83975595D01*
X144998571Y-84023214D01*
X144950952Y-83975595D01*
X144903333Y-83880357D01*
X144903333Y-83642261D01*
X144950952Y-83547023D01*
X144998571Y-83499404D01*
X145093809Y-83451785D01*
X145331904Y-83451785D01*
X145427142Y-83499404D01*
X145474761Y-83547023D01*
X145522380Y-83642261D01*
X145522380Y-83880357D01*
X145474761Y-83975595D01*
X145427142Y-84023214D01*
G04 #@! TO.C,R5*
X148522380Y-84404166D02*
X148046190Y-84737500D01*
X148522380Y-84975595D02*
X147522380Y-84975595D01*
X147522380Y-84594642D01*
X147570000Y-84499404D01*
X147617619Y-84451785D01*
X147712857Y-84404166D01*
X147855714Y-84404166D01*
X147950952Y-84451785D01*
X147998571Y-84499404D01*
X148046190Y-84594642D01*
X148046190Y-84975595D01*
X147522380Y-83499404D02*
X147522380Y-83975595D01*
X147998571Y-84023214D01*
X147950952Y-83975595D01*
X147903333Y-83880357D01*
X147903333Y-83642261D01*
X147950952Y-83547023D01*
X147998571Y-83499404D01*
X148093809Y-83451785D01*
X148331904Y-83451785D01*
X148427142Y-83499404D01*
X148474761Y-83547023D01*
X148522380Y-83642261D01*
X148522380Y-83880357D01*
X148474761Y-83975595D01*
X148427142Y-84023214D01*
G04 #@! TO.C,J2*
X135622380Y-79333333D02*
X136336666Y-79333333D01*
X136479523Y-79380952D01*
X136574761Y-79476190D01*
X136622380Y-79619047D01*
X136622380Y-79714285D01*
X135717619Y-78904761D02*
X135670000Y-78857142D01*
X135622380Y-78761904D01*
X135622380Y-78523809D01*
X135670000Y-78428571D01*
X135717619Y-78380952D01*
X135812857Y-78333333D01*
X135908095Y-78333333D01*
X136050952Y-78380952D01*
X136622380Y-78952380D01*
X136622380Y-78333333D01*
G04 #@! TO.C,J3*
X153372380Y-115583333D02*
X154086666Y-115583333D01*
X154229523Y-115630952D01*
X154324761Y-115726190D01*
X154372380Y-115869047D01*
X154372380Y-115964285D01*
X153372380Y-115202380D02*
X153372380Y-114583333D01*
X153753333Y-114916666D01*
X153753333Y-114773809D01*
X153800952Y-114678571D01*
X153848571Y-114630952D01*
X153943809Y-114583333D01*
X154181904Y-114583333D01*
X154277142Y-114630952D01*
X154324761Y-114678571D01*
X154372380Y-114773809D01*
X154372380Y-115059523D01*
X154324761Y-115154761D01*
X154277142Y-115202380D01*
G04 #@! TD*
M02*
